<svg xmlns="http://www.w3.org/2000/svg" width="528" height="87" viewBox="0 0 528 87"><g fill="none"><path fill="#003873" d="M165.76 85.82L165.76 58 135.15 58 135.15 85.81 122.94 85.81 122.94 18.81 135.15 18.81 135.15 46.62 165.76 46.62 165.76 18.84 177.88 18.84 177.88 85.84zM228.88 82.26c-3.9 2.71-9.5 4.32-17 4.32-9.41 0-17.21-2.8-21.62-9.41-2.63-3.65-4.16-8.65-4.16-14.92 0-5.94 1.53-10.85 4.41-14.59 4.33-6 11.7-9.58 21.28-9.58 10.09 0 17 3.65 20.95 9.25 3.47 4.91 4.74 12 4.15 19.16h-39.6c.116 2.702 1.273 5.253 3.23 7.12 2.2 2.29 6.36 3.9 11.36 3.9 3.354.094 6.677-.663 9.66-2.2 2.46-1.36 3.65-3.23 3.82-4.41h11.19c-1.006 4.63-3.752 8.697-7.67 11.36zm-5.94-30.95c-2.29-2.12-5.68-3.9-11.11-3.9-5.08 0-8.81 1.53-11.27 3.73-1.958 1.78-3.172 4.234-3.4 6.87h28.41c.079-2.5-.872-4.922-2.63-6.7zM245.66 85.82c-.25-.17-.34-.76-.34-3.48V23.42c0-2.29-.08-4.33-.17-5.09h11.37c.263 1.424.377 2.872.34 4.32V81.5c0 2.45 0 3.9.25 4.32h-11.45zM266.62 33.76V22.4h12v11.36h-12zm12.21 52.06h-11.36c-.43-.17-.6-1.19-.6-4.58V39.19h11.53V81c0 3.38.09 4.57.43 4.82zM322.61 85.82l-.25-6.61c-3.31 5.42-10.35 7.37-17.13 7.37-10.68 0-17.38-4.15-17.38-14.83 0-28.32-.09-32.31-.43-32.56H299c.17 0 .26 1.69.26 29.42 0 6.44 4.4 8.73 10.42 8.73 7.55 0 12.3-3.65 12.3-9.41V39.19h11.36v39.08c-.048 2.52.036 5.04.25 7.55h-10.98zM405.46 57.5c0-4.66-1.78-8.82-9.58-8.82-5.68 0-10.26 3.14-10.26 9.07v28.07h-10.85v-29c0-5-3.48-8.14-9.33-8.14-6.53 0-10.6 4.5-10.6 9.33v27.81h-11.45V39.19h11.2v7.46c2-5.26 8.31-8.4 15.26-8.4 6.95 0 12.46 2.8 14.5 8.48 1.86-5.68 7.8-8.48 15.51-8.48 11.87 0 16 6.36 16 15.18 0 19.59.08 32 .42 32.39H406c-.54 0-.54-11.82-.54-28.32zM452.3 85.82V32.49l-16.45 2.29V25.2c13.91-2 17.81-4.16 19-6.7h9.41v67.32H452.3zM526.43 35.71c1 4.66 1.11 10.17 1.11 16.62 0 5.26-.6 13.06-1.62 16.87-3 12-11.53 17.47-25.43 17.47-14.33 0-22.22-5-25.44-17.55-1.27-4.58-1.61-11.53-1.61-16.88 0-6.36-.08-10.68 1.19-16.45C476.92 24.86 485.4 18 500.57 18c15.01 0 23.49 7.62 25.86 17.71zm-12.29 2.71c-1.1-6.1-5.68-9.83-13.57-9.83-8.05 0-12.8 3.73-13.82 9.83-.42 3-.76 10.26-.76 13.91-.016 4.798.352 9.59 1.1 14.33 1.27 6.53 5.94 9.66 13.48 9.66s12-3.47 13.31-9.66c.6-2.63 1-10.26 1-14.42.041-4.618-.206-9.233-.74-13.82z"></path><path fill="#0081FF" d="M.6 18.83L.6 46.65 21.79 46.65 21.79 30.41zM34 30.41L34 46.65 55.2 46.65 55.2 18.83zM67.41 12.17L67.41 46.65 88.6 46.65 88.6.6z"></path><path fill="#003873" d="M.6 58.01H21.790000000000003V85.82H.6zM34 58.01H55.19V85.82H34zM67.41 58.01H88.6V85.82H67.41z"></path></g></svg>