<svg xmlns="http://www.w3.org/2000/svg" xml:space="preserve" style="enable-background:new 0 0 100 100" viewBox="0 0 100 100"><path d="M53 7.2c-2.4-.6-4.9-.9-7.3-1.1-.6 0-1.1-.1-1.7-.1h-5.2c-7.5.5-14.9 2.3-21.8 5.5l-.9.5v45.4l2.1-.7C20 56.1 22 55.5 24 55c5.5-1.4 11.1-2.1 16.8-2.2v6c-.7 0-1.5 0-2.2.1h-.1c-4.4.2-8.7.9-12.9 2C20.2 62 15 64 10.1 66.6V8.4C19.7 3 30.5.1 41.5 0h.9c1.1 0 2.1.1 3.1.1 2.5.2 5 .6 7.5 1.2v5.9zm36.9 54.2c-9.5 5.4-20.3 8.3-31.4 8.4-3.9 0-7.8-.4-11.5-1.3V10.9c.9.2 1.8.4 2.7.5 1.5.3 3.1.4 4.7.6 1.3.1 2.7.1 4.1.1 5.4 0 10.8-.7 16-2C79.9 8.8 85 6.8 89.9 4.2v57.2zm-6-48.9-2.1.7c-1.9.6-3.9 1.2-5.8 1.7-5.7 1.4-11.6 2.2-17.4 2.2-1.4 0-2.6 0-3.8-.1l-1.8-.2v46.7l1.4.1c1.3.1 2.7.2 4.1.2 4.6 0 9.2-.6 13.7-1.8 3.7-.9 7.3-2.2 10.7-3.8l.9-.4V12.5zM14.2 86.6c-.3-.3-.7-.6-1.1-.7-.4-.2-.8-.2-1.3-.2s-.9.1-1.3.2c-.4.2-.7.4-1 .7-.3.3-.5.6-.7 1-.2.4-.2.8-.2 1.3v7.8c0 .5.1 1.1.3 1.6.2.4.5.7.8 1 .3.3.7.5 1.1.6.4.1.8.2 1.2.2.4 0 .9-.1 1.3-.3.4-.2.7-.4 1-.7.3-.3.5-.7.7-1 .2-.4.3-.8.3-1.2V96h-2v.7c0 .2 0 .5-.1.7-.1.2-.2.3-.3.4-.1.1-.3.2-.4.2h-.7c-.2 0-.4 0-.5-.1-.2-.1-.3-.2-.4-.3-.2-.3-.3-.7-.3-1v-7.2c0-.4.1-.8.3-1.2.1-.2.3-.3.4-.4.2-.1.4-.1.6-.1.2 0 .4 0 .5.1.2.1.3.2.4.3.2.3.3.7.3 1v.7h2V89c0-.5-.1-.9-.3-1.4-.1-.3-.3-.7-.6-1zm13 1c.2.5.3 1 .3 1.5v7.5c0 .5-.1 1-.3 1.5-.2.4-.4.8-.8 1.1-.3.3-.7.5-1.1.7-.8.3-1.7.3-2.5 0-.4-.1-.8-.4-1.1-.7-.3-.3-.6-.6-.8-1.1-.2-.5-.3-1-.3-1.5v-7.5c0-.5.1-1 .3-1.5.2-.4.5-.8.8-1.1.3-.3.7-.5 1.1-.6.6-.2 1.2-.3 1.9-.2.6.1 1.2.4 1.7.8.3.3.6.7.8 1.1zm-1.7 1.5c0-.2 0-.4-.1-.6-.1-.2-.2-.4-.3-.5-.3-.2-.6-.3-1-.3s-.7.1-1 .3c-.1.1-.3.3-.3.5-.1.2-.1.4-.1.6v7.5c0 .2 0 .4.1.6.1.2.2.4.3.5.3.2.6.3 1 .3s.7-.1 1-.3c.1-.1.3-.3.3-.5.1-.2.1-.4.1-.6v-7.5zm12.4 4.1-2.7-7.5h-2v14.1h2v-8.6l2 6.1h1l2-6.1v8.6h2v-14h-2l-2.3 7.4zm16.9-5.1c.1.7.2 1.3.2 2 0 .5 0 1.1-.1 1.6-.1.4-.2.9-.5 1.2-.3.5-.7.8-1.1 1.1-.6.3-1.2.4-1.8.4h-1v5.5h-2V85.8h3.1c.5 0 1 .1 1.5.2.4.2.8.4 1.2.8.1.3.4.8.5 1.3zm-1.8 3v-1.9c0-.3-.1-.5-.2-.8-.1-.2-.3-.4-.5-.5-.3-.1-.6-.2-.9-.2h-1.1v4.8h1c.3 0 .7 0 1-.2.2-.1.4-.3.5-.5.2-.2.2-.5.2-.7zm10.7-5.3 3.2 14.1h-2l-.6-3h-2.8l-.6 3h-2L62 85.8h1.7zm.2 9.1-1-5.1-1 5.1h2zm13-.6-3.1-8.5h-2v14.1h2v-8.5l3.1 8.5h1.9V85.8h-2l.1 8.5zm12.4-8.5-1.6 5.6-1.7-5.6h-2.2l2.8 8.2v6h2v-6l2.8-8.2h-2.1z"/></svg>