<svg xmlns="http://www.w3.org/2000/svg" xml:space="preserve" style="enable-background:new 0 0 100 100" viewBox="0 0 100 100"><path d="M30 72.1h-4.9L3.3 34.6h4.9l19.4 33.3 2.4 4.2zm17.1-4.2-2.4-4.2-2.4-4.2-2.4-4.2-2.4-4.2-9.6-16.5H23l12 20.7 2.4 4.2 2.4 4.2 2.4 4.2 2.4 4.2h4.9l-2.4-4.2zm9.8 0-2.4-4.2-2.5-4.2-2.4-4.2-2.4-4.2-2.4-4.2-2.4-4.2-4.7-8.1h-4.9L40 46.9l4.9 8.4 2.4 4.2 2.4 4.2 2.4 4.2 2.4 4.2h4.9l-2.5-4.2zM67.4 7.7h-4.9L44.7 38.4l2.4 4.2L67.4 7.7zm-35 60.2 2.4 4.2h4.9l-2.4-4.2-2.4-4.2-2.4-4.2L18 34.6h-4.9L30 63.7l2.4 4.2zm17.2-21L52 51 77.2 7.7h-4.9L49.6 46.9zm4.9 8.4 2.4 4.2 30-51.8H82L54.5 55.3zM96.7 7.7h-4.9l-32.5 56 2.4 4.2 35-60.2zM3.3 85.3c.4-.2.8-.3 1.3-.3.7 0 1.3.3 1.9.7l1.3-1.3c-.6-.6-1.5-1-2.3-1.2-.9-.2-1.8-.1-2.6.3-.8.3-1.5.9-2 1.7-.6.8-.9 1.7-.9 2.5 0 .9.3 1.8.8 2.5s1.2 1.3 2 1.7c.8.3 1.7.4 2.6.3.8-.2 1.7-.6 2.3-1.2l-1.3-1.3c-.3.3-.7.5-1.2.6-.4.1-.9.1-1.3 0s-.8-.3-1.2-.6c-.3-.3-.6-.7-.8-1.1-.2-.4-.2-.9-.2-1.3.1-.4.2-.9.5-1.2s.7-.5 1.1-.8zm19.6-.8c.9.8 1.3 2 1.3 3.2 0 .9-.3 1.8-.8 2.5s-1.2 1.3-2 1.7c-.8.3-1.7.4-2.6.3-.9-.2-1.7-.6-2.3-1.2-.6-.6-1.1-1.4-1.2-2.3-.2-.9-.1-1.8.3-2.6.3-.8.9-1.5 1.7-2 .7-.5 1.6-.8 2.5-.8 1.1-.1 2.3.4 3.1 1.2zm-.5 3.2c0-.5-.2-1.1-.5-1.5-.3-.4-.7-.8-1.2-1-.5-.2-1-.3-1.6-.2-.5.1-1 .4-1.4.7-.4.4-.6.9-.7 1.4-.1.5 0 1.1.2 1.6s.6.9 1 1.2c.4.3 1 .5 1.5.5.7 0 1.4-.3 1.9-.8.5-.4.8-1.1.8-1.9zm14.5 2.1-2.7-6.6h-2v9H34v-4.5l1.8 4.5h2l1.8-4.5v4.5h1.8v-9h-2l-2.5 6.6zM54.1 84c.5.5.8 1.2.8 1.9a2.732 2.732 0 0 1-2.7 2.7h-.7v3.6h-1.8v-9h2.5c.7 0 1.4.3 1.9.8zm-1 1.9c0-.1 0-.2-.1-.4 0-.1-.1-.2-.2-.3-.1-.1-.2-.1-.3-.2-.1 0-.2-.1-.4-.1h-.7v1.8h.7c.1 0 .2 0 .4-.1.1 0 .2-.1.3-.2.1-.1.2-.2.2-.3 0 .1.1 0 .1-.2zm13.8-2.7 3.3 9h-1.9l-.9-2.5h-2.8l-.9 2.5h-1.9l3.3-9h1.8zm-.2 4.7-.7-2-.7 2h1.4zm17.1 1.4-3.6-6H78v9h1.8v-6l3.7 6h2.1v-9h-1.8v6zM98 83.2l-1.2 2.5-1.3-2.5h-2l2.4 4.7v4.3h1.8V88l2.4-4.7H98z"/></svg>