<svg xmlns="http://www.w3.org/2000/svg" xml:space="preserve" style="enable-background:new 0 0 100 100" viewBox="0 0 100 100"><path d="M33.3 26.4 59.8 0 49.3 2.9c-11 3-20.2 8.2-27.5 15.4l-8.2 8.1c2.6 2.6 6.2 4.1 9.8 4.1s7.2-1.5 9.9-4.1zm-14-.5 5-5C30.4 14.8 38 10.3 47 7.4L30.6 23.8c-1.4 1.4-3.3 2.4-5.3 2.8-2 .3-4.1.1-6-.7zm22.6 39c0-3.7-1.5-7.2-4.1-9.8L11.3 28.7l2.9 10.5c3 10.9 8.2 20.1 15.5 27.3l8.2 8.1c2.5-2.5 4-6 4-9.7zm-9.6-1c-6.1-6.1-10.7-13.6-13.6-22.5l16.5 16.4c1.4 1.4 2.4 3.3 2.8 5.3.4 2 .2 4.1-.7 5.9l-5-5.1zm44.3-17.3c-1.8 0-3.6.4-5.3 1.1-1.7.7-3.2 1.7-4.5 3L40.2 77.1l10.6-2.9c11-3 20.2-8.2 27.5-15.4l8.2-8.1c-1.3-1.3-2.8-2.3-4.5-3-1.7-.7-3.6-1.1-5.4-1.1zm-1 9.6c-6.1 6.1-13.7 10.6-22.7 13.5l16.5-16.4c1.4-1.4 3.3-2.4 5.3-2.8 2-.4 4.1-.2 6 .7l-5.1 5zM58.1 12.1c0 1.8.4 3.6 1.1 5.3.7 1.7 1.7 3.2 3 4.5l26.6 26.4-2.9-10.5c-3-10.9-8.2-20.1-15.5-27.3l-8.2-8.1c-1.3 1.3-2.3 2.8-3 4.5-.7 1.6-1.1 3.4-1.1 5.2zm4.6-4 5 5c6.1 6.1 10.7 13.6 13.6 22.5L64.8 19.3C63.4 17.9 62.4 16 62 14c-.4-2-.1-4 .7-5.9zM12.4 90.2c.1.3.2.7.2 1.1v.6H11v-.5c0-.3-.1-.6-.3-.8l-.3-.3c-.1-.1-.3-.1-.4-.1-.2 0-.3 0-.5.1-.1.1-.3.2-.3.3-.1.2-.2.6-.2.9v5.8c0 .3.1.6.2.8l.3.3c.1.1.3.1.4.1.1 0 .2 0 .3-.1.1 0 .2-.1.3-.2.1-.1.2-.2.2-.3.1-.2.1-.4.1-.6v-.6h1.6v.7c0 .3-.1.7-.2 1-.1.3-.3.6-.5.8-.2.2-.5.4-.8.6-.3.1-.7.2-1 .2-.3 0-.6 0-.9-.1-.3-.1-.6-.2-.9-.4-.3-.2-.5-.5-.6-.8-.2-.4-.3-.8-.2-1.3v-6.2c0-.4.1-.7.2-1 .1-.3.3-.6.5-.8.2-.2.5-.4.8-.5.3-.1.7-.2 1.1-.2.3 0 .7 0 1 .2.3.1.6.3.9.6.3 0 .5.3.6.7zm12.4-1c-.4-.3-.9-.5-1.4-.6-.5-.1-1 0-1.5.1-.3.1-.6.3-.9.5-.3.2-.5.5-.6.9-.2.4-.2.8-.2 1.2v5.9c0 .4.1.8.2 1.2.1.3.4.6.6.8.3.2.5.4.9.5.6.2 1.3.2 2 0 .3-.1.6-.3.9-.5.3-.2.5-.5.6-.8.2-.4.2-.8.2-1.2v-5.9c0-.4-.1-.8-.2-1.2-.1-.3-.3-.6-.6-.9zm-.7 8c0 .2 0 .3-.1.5-.1.1-.1.3-.3.4-.2.2-.5.3-.8.3-.3 0-.6-.1-.8-.3-.1-.1-.2-.2-.3-.4-.1-.1-.1-.3-.1-.5v-5.9c0-.2 0-.3.1-.5.1-.1.1-.3.3-.4.2-.2.5-.3.8-.3.3 0 .6.1.8.3.1.1.2.2.3.4.1.1.1.3.1.5v5.9zm15.1-8.6h1.6v11.3h-1.6v-6.8l-1.6 4.8h-.8l-1.6-4.8v6.8h-1.6V88.6H35l2.1 6 2.1-6zm14 .8c-.3-.3-.6-.5-.9-.6-.4-.1-.8-.2-1.2-.2h-2.4v11.3h1.6v-4.4h.8c.5 0 1-.1 1.5-.3.4-.2.7-.5.9-.9.2-.3.3-.6.4-1 .1-.4.1-.9.1-1.3 0-.5 0-1.1-.2-1.6-.1-.3-.3-.7-.6-1zm-.8 3.5c0 .2-.1.4-.2.6-.1.2-.2.3-.4.4-.2.1-.4.1-.7.1h-.8v-3.8h.8c.3 0 .5 0 .7.1.2.1.3.2.4.4.1.2.1.4.1.6v.8c.1.3.1.5.1.8zm10.4-4.3-2.5 11.3h1.6l.5-2.4h2.2l.5 2.4h1.6l-2.5-11.3h-1.4zm-.2 7.4.8-4.1.8 4.1h-1.6zm15.2-7.4h1.6v11.3h-1.5l-2.5-6.8v6.8h-1.6V88.6h1.6l2.5 6.8v-6.8zm14.8 0-2.2 6.5v4.8h-1.6v-4.8l-2.2-6.5h1.7l1.3 4.5 1.3-4.5h1.7z"/></svg>