<svg xmlns="http://www.w3.org/2000/svg" xml:space="preserve" style="enable-background:new 0 0 100 100" viewBox="0 0 100 100"><path d="m21.8 61-6.6 6.5V21.1h23v23.6l-6.6 6.5V27.6h-9.9V61zm34.3-7.7h1.5V63H27.3l-6.6 6.5h43.4V46.7H43.7l-6.6 6.5h19zm22.1-26.8v1.4H62.6L56 34.5h28.7V5.9l-6.6 6.5.1 14.1zm-21-19.4h18.9L82.7.6h-32v31.8l6.6-6.5V7.1zM3.8 92.3c.3-.1.6-.2 1-.2.3 0 .7.1 1 .2.3.2.5.4.7.8h2.7c-.3-.9-.9-1.7-1.7-2.2-.8-.5-1.7-.8-2.7-.8-.6 0-1.2.1-1.8.3-.6.2-1.1.6-1.5 1-1 .9-1.5 2.1-1.5 3.4 0 1.2.5 2.4 1.4 3.3.4.4 1 .8 1.5 1s1.2.3 1.8.3c1 0 1.9-.3 2.7-.8.8-.5 1.4-1.3 1.7-2.2H6.4c-.1.3-.4.6-.7.8-.3.2-.6.3-1 .2-.3 0-.7 0-1-.2-.3-.1-.6-.3-.8-.6-.4-.5-.7-1.2-.7-1.9s.2-1.4.7-1.9c.3-.2.5-.4.9-.5zm20.4.7c.2.6.3 1.2.3 1.8 0 .6-.1 1.2-.3 1.8-.2.6-.6 1.1-1 1.5-.9.8-2.1 1.3-3.3 1.3s-2.4-.5-3.3-1.3c-.9-.9-1.4-2.1-1.4-3.3 0-1.2.5-2.4 1.4-3.3.9-.8 2.1-1.3 3.3-1.3 1.2 0 2.4.5 3.3 1.3.5.4.8.9 1 1.5zm-1.9 1.8c0-.7-.2-1.4-.7-1.9-.5-.5-1.1-.7-1.8-.7s-1.3.3-1.8.7c-.4.5-.7 1.2-.7 1.9s.2 1.4.7 1.9c.5.5 1.1.7 1.8.7s1.3-.3 1.8-.7c.5-.6.7-1.2.7-1.9zm14.1 1.7-2.6-6.3h-2.6v9.1h2.2v-5.1l2.1 5.1h1.7l2.1-5.1v5.1h2.2v-9.1H39l-2.6 6.3zM55.5 92c.2.3.2.7.2 1.1 0 .6-.2 1.3-.7 1.8-.3.3-.6.6-1.1.7-.5.2-1.1.3-1.7.3H51v3.5h-2.2v-9.1h3.6c.9-.1 1.8.2 2.5.8.2.2.5.5.6.9zm-2 1.1c0-.1 0-.3-.1-.4-.1-.1-.1-.3-.2-.4-.1-.1-.2-.2-.4-.2-.1-.1-.3-.1-.4-.1H51v2.2h1.4c.1 0 .3 0 .4-.1.1-.1.3-.1.4-.2.1-.1.2-.2.2-.4.1-.2.1-.3.1-.4zm13.9-2.9 3.2 9.1h-2.4l-.5-1.5h-3.3l-.5 1.5h-2.4l3.2-9.1h2.7zm-.3 5.9L66 92.9l-1.1 3.2h2.2zm15.7-.1-3.7-5.7h-2.2v9.1h2.2v-5.7l3.7 5.7H85v-9.1h-2.2V96zm14.7-5.7-1.8 4.1-1.7-4.1h-2.5l3.2 6.2v2.9h2.2v-2.9l3.2-6.2h-2.6z"/></svg>