<svg xmlns="http://www.w3.org/2000/svg" viewBox="0 0 527.01 350.32"><path fill="#c8e0d6" d="M429.25 14.97c-2.4 3.23-5.84 5.36-8.66 8.14l-4.21 4.21c-3.91 4.49-7.8 9-11.63 13.56-5.71 6.96-10.55 14.6-14.41 22.73-5.08 10.36-10.74 20.4-15.87 30.73-1.26 2.55-2.46 5.15-3.75 7.69-.86 1.64-1.85 3.23-2.72 4.86a8.796 8.796 0 0 1-2.57 2.89c-7.96 5.96-15.34 12.63-22.76 19.2-.35.35-.77.63-1.23.81.11-.2.21-.41.34-.59l9.04-13.43c2.09-3.14 4.21-6.29 6.25-9.47 2.41-3.75 4.77-7.55 7.16-11.32a81.363 81.363 0 0 0 9.68-22.65c2.47-9.42 4.1-19.04 4.86-28.75.6-7.12.79-14.24.77-21.37 0-1.4.17-2.81.27-4.21 0-.42 0-.84.1-1.4l-1.04-.39c-.25.22-.48.45-.7.7-9.7 12.81-19.01 25.88-26.66 40.09-3.42 6.48-6.24 13.26-8.42 20.25-1.71 5.43-3.23 10.93-4.6 16.48-2.48 9.99-4.27 20.14-5.36 30.38-.28 2.1-.75 4.16-1.4 6.17-.56 2.09-.99 4.21-1.29 6.36-.38 2.72-1.67 5.24-3.65 7.14-2.02 1.92-3.93 3.94-6.12 5.7a29 29 0 0 0-2.5 2.81c-12.97 13.51-25.95 27.01-38.96 40.5-1.59 1.64-3.28 3.16-4.94 4.74 1.4-2.81 2.81-5.49 4.21-8.24 5.11-10.08 9.73-20.37 13.88-30.87a180.5 180.5 0 0 0 7.21-22.45 117.7 117.7 0 0 0 2.46-13.16c.48-3.68.65-7.4.91-11.11.17-2.29.27-4.57.42-6.86.36-5.14.76-10.26 1.15-15.44 0-.49.11-.98.18-1.56.6-.38 1.23-.77 1.84-1.18 9.95-6.86 19.18-14.52 26.66-24.05C339 55.34 344 47.46 348.11 39.1c3.09-6.36 6.34-12.63 9.53-18.93.11-.21.21-.43.34-.73l-.35-.76c-.27 0-.51-.08-.63 0-.63.38-1.24.8-1.81 1.26-3.93 3.42-8.06 6.61-12.19 9.82-5.92 4.52-11.35 9.61-16.84 14.61-3.45 3.13-6.74 6.43-10.06 9.67a84.44 84.44 0 0 0-7.3 8.18c-3.34 4.21-6.72 8.42-9.73 12.92-.87 1.29-1.88 2.47-2.81 3.66a80.9 80.9 0 0 0-6.65 9.18 74.006 74.006 0 0 1-8.83 11.49c-.28.28-.59.55-.91.79.25-.53.49-1.08.77-1.6 3.44-6.03 6.56-12.23 9.35-18.59 2.28-5.83 4.25-11.77 5.89-17.81 2.86-10.4 4.74-21.06 5.61-31.81.66-6.22.96-12.48.9-18.74-.07-2.48-.24-4.95-.35-7.44 0-1.28-.08-2.57-.13-3.93L301.1 0c-.2.18-.41.27-.46.42-.26.89-.57 1.76-.93 2.61-1.08 2.09-2.12 4.21-3.4 6.19a124.797 124.797 0 0 0-15.44 34.44c-1.21 4.36-2.19 8.78-2.93 13.25-.6 3.61-1.09 7.21-1.4 10.88-.27 5.69-.15 11.4.38 17.08.24 3.7.31 7.42.27 11.14a20 20 0 0 1-2.03 8.06 4.4 4.4 0 0 1-.87 1.18c-3.31 3.61-6.68 7.16-9.95 10.81a62.05 62.05 0 0 0-4 5.14c-4.53 6.34-9.04 12.74-13.56 19.1-.38.53-.83 1-1.25 1.49.2-.62.36-1.25.6-1.85 2.26-5.48 4.17-11.11 5.71-16.84.79-3.12 1.52-6.26 2.06-9.43.72-4.1 1.4-8.2 1.81-12.32.56-5.55.71-11.14.45-16.71-.57-12.27-2.45-24.44-5.61-36.3-.86-3.42-1.57-6.89-2.33-10.33-.15-.67-.21-1.4-1.21-1.5-.14.24-.41.48-.44.73-.69 5.23-2 10.35-3.9 15.27-1.95 5.61-4.21 11.14-6.03 16.84-1.4 4.06-2.34 8.22-3.3 12.39-1.02 4.46-1.95 8.97-2.67 13.49s-1.15 8.98-1.6 13.49c-.29 2.81-.36 5.68-.55 8.53-.36 5.69-.19 11.41.52 17.06.63 5.11 1.22 10.22 1.85 15.32.15 1.29.45 2.55.63 3.85.45 3.18.89 6.37 1.32 9.57a5.79 5.79 0 0 1-.84 3.72 99.027 99.027 0 0 1-5.98 9.19c-1.68 2.36-3.14 4.9-4.6 7.41-3.06 5.32-6.15 10.62-9.07 16.03-3.17 5.89-6.71 11.58-10.2 17.29-1.21 1.98-2.68 3.82-4.04 5.71l1.98-5.74a113.67 113.67 0 0 0 4.81-18.51c.81-4.84 1.66-9.67 2.33-14.51.98-6.32 1.45-12.71 1.4-19.1-.12-5.09-.8-10.15-2.02-15.09a157.262 157.262 0 0 0-13.92-36.4c-2.5-4.79-5.04-9.54-7.58-14.3-.23-.38-.49-.74-.77-1.08a.946.946 0 0 0-.72.36c-.09.11-.15.23-.19.37a.94.94 0 0 0-.02.41v2.6a53.01 53.01 0 0 1-1.4 11.98c-1.19 5.61-2.81 11.23-3.45 16.94-.36 3.02-1 6.01-1.31 9.02-.9 7.45-1.22 14.96-.97 22.45.43 11.22 2.22 22.35 5.32 33.15.72 2.37 1.64 4.69 2.47 7.02 2.15 5.95 4.32 11.89 6.43 17.85.4 1.24.7 2.51.88 3.8.31 1.77.53 3.55.77 5.33.08.6 0 1.22.1 1.8l-10.57 13.84c.02-.43.07-.85.14-1.28 1.09-4.4 1.65-8.91 1.67-13.44.1-9.87-1.02-19.71-3.34-29.3a85.968 85.968 0 0 0-11.23-26.02c-3.38-5.27-7.19-10.27-11.37-14.93-7.58-8.62-15.17-17.22-22.79-25.81-2.11-2.36-4.31-4.63-6.53-6.89-.7-.91-1.69-1.56-2.81-1.84l-.97.63c0 .73 0 1.4.17 2.19.27 1.64.56 3.3.9 4.94 1.64 7.96 3.23 15.91 4.95 23.86 2.59 12.53 6.75 24.68 12.38 36.16a126.554 126.554 0 0 0 20.77 29.83c2.81 2.99 5.5 6.06 8.21 9.14 2.08 2.31 3.91 4.82 5.47 7.51 1.11 1.8 1.82 3.81 2.09 5.91.05.71.05 1.43 0 2.15-3 2.18-5.79 4.63-8.32 7.34-.22.22-.45.43-.7.62a59.036 59.036 0 0 0-10.99 11.56c-.36.5-.76.97-1.21 1.4-3.58 3.34-6.78 7.09-10.58 10.2-.82.67-1.56 1.42-2.23 2.23a35.235 35.235 0 0 1-4.73 4.73c-.28.24-.56.49-.83.76-4.62 4.5-9.62 8.6-14.93 12.25-8.8 6.47-17.94 12.47-27.36 17.98-3.28 1.88-6.61 3.69-10.02 5.35-5.85 2.81-11.76 5.61-17.67 8.31a75.286 75.286 0 0 1-12.63 4.49c-4.8 1.26-9.68 2.16-14.57 3.03-5.31.94-10.57 2.18-15.83 3.33-4.79 1.05-9.54 2.2-14.33 3.24-3.21.7-6.44 1.3-9.67 1.96-.48.11-.94.25-1.4.41-.33.06-.63.22-.88.44s-.43.51-.53.83a1.507 1.507 0 0 0 .83 1.4c1.19.8 2.61 1.19 4.04 1.11h.56c4.83-.81 9.68-1.52 14.48-2.47 5.84-1.15 11.63-2.5 17.46-3.76.97-.21 1.95-.38 2.89-.66 6.47-1.98 13.05-3.55 19.38-5.96 1.56-.59 3.15-1.1 4.77-1.53 7.61-2.12 14.93-5.02 22.34-7.68 5.39-1.92 10.68-4.03 15.87-6.41 5.19-2.39 10.86-4.59 16.14-7.2 9.72-4.83 19.41-9.74 28.82-15.14 1.08-.62 2.19-1.18 3.26-1.81a11.64 11.64 0 0 1 6.92-1.74c4.39.27 8.8.43 13.18.83 9.58.99 18.95 3.45 27.79 7.28 8.59 3.55 17.22 7 25.91 10.33 5.2 1.9 10.65 3 16.18 3.24 3.66.23 7.31.29 10.97.42 5.15.07 10.31-.15 15.44-.65 3.7-.28 7.41-.69 11.1-1.07.95-.1 1.89-.27 2.81-.52.4-.07.77-.24 1.08-.51.3-.27.53-.62.65-1 0-.98-.77-1.4-1.4-1.77-1.56-.88-3.14-1.75-4.74-2.57a868.928 868.928 0 0 1-32.11-17.27 96.564 96.564 0 0 0-15.18-7.44 63.26 63.26 0 0 0-15.44-3.89c-9.43-.85-18.94 0-28.07 2.51-5.66 1.64-11.22 3.59-16.67 5.82-2.88 1.14-5.78 2.23-8.69 3.31-.46.14-.93.24-1.4.28.79-.54 1.61-1.03 2.46-1.47 6.89-3.23 13.05-7.62 19.28-11.93 4.69-3.25 9.25-6.68 14.19-9.56 5.29-3 10.4-6.32 15.28-9.94 1.83-1.38 3.58-2.86 5.26-4.42 1.48-1.42 3.2-2.56 5.08-3.38 3.89-1.8 8.02-3.01 12.27-3.59 2.88-.34 5.73-1 8.6-1.31 2.41-.24 4.82-.33 7.24-.27 3.03 0 6.06.29 9.11.49 7.87.4 15.7 1.4 23.42 2.98 3.27.7 6.55 1.28 9.82 1.74 8.81 1.14 17.76.78 26.45-1.05 4.93-.98 9.82-2.16 14.71-3.26.6-.13 1.26-.18 1.4-1.05-.27-.76-1.01-.77-1.66-.87-2.45-.39-4.85-1.08-7.14-2.05-4.65-1.88-9.28-3.85-13.94-5.73-4.94-1.99-9.82-4.01-14.86-5.89a53.895 53.895 0 0 0-16.07-2.81c-5.89-.34-11.61.87-17.32 1.99-3.59.7-7.16 1.52-10.71 2.4-3.53.97-6.95 2.34-10.17 4.08-4.97 2.53-9.82 5.37-14.54 8.31-.87.49-1.76.93-2.67 1.33 1.96-1.63 3.94-3.24 5.91-4.88 3.86-3.21 7.72-6.41 11.56-9.65 2.53-2.1 5.04-4.21 7.49-6.4 1.54-1.35 3-2.79 4.36-4.31 2.99-3.41 5.88-6.88 8.78-10.36.6-.72 1.4-1.24 2.3-1.49 5.5-1.75 11.21-2.74 16.98-2.92 3.41 0 6.83 0 10.22.28 2.59.27 5.17.7 7.7 1.29 7.96 1.64 15.69 4.21 23.51 6.36a171.27 171.27 0 0 0 18.17 4.03c5.84.85 11.75 1.06 17.63.62 9.11-.52 18.15-1.77 27.06-3.75 1.94-.41 3.89-.76 5.84-1.09 1.46-.31 2.97-.34 4.45-.1.4.04.8.04 1.19 0l.48-1.25c-.41-.3-.85-.56-1.31-.79-8.42-2.81-16.19-7.2-24.54-10.22-2.96-1.07-5.8-2.53-8.69-3.79-3.27-1.5-6.68-2.68-10.19-3.51-3.03-.65-6.09-1.12-9.15-1.68-4.76-.85-9.6-1.23-14.44-1.12-1.73.03-3.47-.05-5.19-.24-4.21-.34-8.44-.27-12.63.21-5.61.61-11.18 1.5-16.7 2.68-.67.12-1.33.28-1.98.48-8.47 2.45-16.64 5.82-24.38 10.05-.32.15-.66.27-1 .36.26-.41.54-.79.84-1.16 1.54-1.7 3.09-3.4 4.67-5.05 4.38-4.56 8.76-9.14 13.18-13.64 4.13-4.11 8.49-7.99 13.06-11.61 2.03-1.73 4.24-3.22 6.6-4.46 2.6-1.34 5.4-2.22 8.29-2.61 5.03-.73 10.11-1.13 15.2-1.19 1.18 0 2.36.08 3.52.21 7.96.8 15.87 1.92 23.86 3.16 5.75.9 11.55 1.59 17.33 2.32 7.91.96 15.93.19 23.51-2.27 5.39-1.7 10.79-3.3 16.14-5.09 2.41-.8 4.7-1.91 7.02-2.92.53-.22 1.14-.51 1.05-1.31-.22-.1-.39-.27-.53-.24-3 .56-5.75-.45-8.56-1.26-7.8-2.46-15.4-5.51-22.73-9.12a41.343 41.343 0 0 0-15.23-3.93c-3.74-.22-7.52-.39-11.33-.53-4.16-.07-8.31.25-12.41.97-2.57.41-5.14.8-7.72 1.12a48.11 48.11 0 0 0-19.65 6.88c-4.44 2.84-8.71 5.93-12.81 9.25-1.66 1.29-3.37 2.51-5.05 3.77l-.39.2.28-.34c1.68-1.98 3.33-3.99 5.08-5.92 2.81-3.13 5.7-6.2 8.57-9.29.51-.55 1.02-1.08 1.56-1.59l9.58-9.09c.17-.18.35-.35.55-.49a46.92 46.92 0 0 0 6.5-5.53c2.13-1.87 4.21-3.89 6.23-5.84.12-.14.25-.27.39-.39l7.13-6.23c.31-.22.6-.45.87-.72 2.31-2.33 4.9-4.37 7.72-6.05 1.52-1.07 2.96-2.25 4.48-3.33a20.1 20.1 0 0 1 6.72-3.47c.6-.15 1.17-.43 1.66-.81.83-.66 1.85-1.05 2.9-1.12 1.91-.17 3.83-.38 5.74-.36 7.15.15 14.24 1.31 21.05 3.47 6.57 2.05 13.24 3.75 20 5.08 4.58.8 9.23 1.14 13.88 1.02 9.74-.22 19.43-1.63 28.82-4.21 1.96-.53 3.89-1.25 5.85-1.84 4.21-1.28 8.56-2.53 12.84-3.78.48-.11.95-.25 1.4-.43.4-.25.77-.54 1.11-.87-.29-.34-.63-.65-1-.91-.33-.17-.7-.27-1.07-.29-3.97-.69-7.89-1.66-11.72-2.9-6.19-1.63-12.1-4.04-18.09-6.26a81 81 0 0 0-15.23-4.1c-1.22-.2-2.44-.46-3.65-.7-4.96-.84-10-1.07-15.02-.7-4.65.17-9.26.84-13.77 1.99a48.8 48.8 0 0 1-5.61 1.11c-4.12.56-8.13 1.76-11.89 3.55-3.87 1.81-7.72 3.7-11.58 5.54-.52.23-1.06.42-1.6.59 3.59-2.57 7.1-5.3 10.82-7.68 8.59-5.47 17.29-10.72 25.9-16.12 3.53-2.09 7.33-3.67 11.31-4.67 7.5-1.96 15.13-3.39 22.83-4.28 5.41-.71 10.8-1.54 16.17-2.5a84.91 84.91 0 0 0 9.04-2.17c10.68-3.25 21.13-7.21 31.28-11.87 4.67-2.18 9.19-4.66 13.54-7.41 2.6-1.59 5.21-3.12 7.82-4.69.38-.2.75-.44 1.1-.7.21-.13.38-.33.46-.57.08-.24.08-.5 0-.73-.41-.66-1.05-.53-1.66-.49-5.44.39-10.9.63-16.32 1.24-5.61.63-11.23 1.61-16.92 2.47-2.95.45-5.88.94-8.81 1.4-9.34 1.38-18.46 3.99-27.11 7.76-7.73 3.23-15.13 7.21-22.09 11.87-3.47 2.41-7.02 4.7-10.46 7.13-1.56 1.11-2.96 2.44-4.46 3.65-.52.43-1.07.82-1.66 1.16-2.09 1.22-4.21 2.36-6.3 3.62-7.57 4.62-15.12 9.27-22.65 13.94-1.4.86-2.71 1.77-4.07 2.64-.45.28-.94.48-1.4.72.41-.51.79-1.05 1.24-1.53 6.72-7.13 13.5-14.22 20.18-21.37a89.102 89.102 0 0 0 15.97-23.44c3.44-7.3 6.1-14.94 7.94-22.79.84-3.75 1.64-7.51 2.46-11.23.11-.53.36-1.08-.07-1.6-.08-.13-.2-.24-.34-.3s-.29-.1-.45-.09c-.15.01-.3.06-.43.15s-.23.21-.29.35Zm53.08 30.76c-.57.27-1.15.5-1.75.69-7.61 2.21-15.11 4.81-22.45 7.79-4.8 2.02-9.46 4.37-13.95 7.02-3.71 2.02-7.51 3.83-11.23 5.71-.32.13-.65.23-.98.31.84-.67 1.67-1.4 2.55-2.01 4.68-3.13 9.57-5.95 14.64-8.42 8.47-4.32 17.42-7.62 26.66-9.82 2.08-.55 4.31-.87 6.51-1.26Zm17.68-1.61c-5.83.82-11.56 2.28-17.07 4.38-4 1.51-8.05 2.81-12.11 4.21-2.05.69-4.13 1.29-6.19 1.98-5 1.66-9.98 3.35-14.97 5.02-.63.17-1.26.31-1.91.41.22-.18.45-.35.69-.5 3.24-1.82 6.6-3.43 10.06-4.8 9.64-3.76 19.52-6.85 29.47-9.82 1.12-.34 2.27-.62 3.42-.86 8.19-1.73 16.49-2.88 24.84-3.44 1.91-.11 3.82-.15 5.73-.22-.26.26-.6.43-.97.48-7.03 1.05-14.01 2.23-20.99 3.17Zm-6.81 8.03c-3.41.9-6.79 1.91-10.22 2.81-12.11 3.16-24.07 6.83-35.98 10.65a72.929 72.929 0 0 1-12.31 2.72l-.76.27v-.35l-.69-.11.73-.24c.12-.14.26-.27.41-.38 4.55-2.78 9.37-5.09 14.38-6.89 5.8-1.83 11.55-3.8 17.32-5.7 1.18-.39 2.36-.76 3.55-1.07 4.78-1.28 9.47-2.88 14.03-4.79 3.43-1.45 7-2.53 10.66-3.21 5.99-1.01 12.01-1.81 18.02-2.68.47-.04.94-.04 1.4 0-.79.25-1.59.52-2.39.73-4.73 1.25-9.49 2.37-14.17 3.75-10.39 3.04-20.74 6.23-31.11 9.36-.58.18-1.11.48-1.67.72.67-.06 1.34-.16 1.99-.31 8.93-2.58 17.88-5.08 26.75-7.83 8.06-2.5 16.29-4.29 24.4-6.58.46-.09.93-.15 1.4-.18-.24.19-.5.37-.77.52-.51.24-1.01.46-1.53.66-7.66 3.15-15.49 5.87-23.45 8.14h-.01Zm-51.12 17.83c.49-.19.99-.35 1.5-.49 1.63-.39 3.27-.73 4.9-1.11 11.73-2.72 23.3-6.02 34.8-9.53 2.61-.79 5.23-1.56 7.77-2.55 5.38-2.08 10.69-4.31 16.04-6.47.48-.2.98-.32 1.49-.48-.53.37-1.04.79-1.6 1.09-6.88 3.8-14.08 7.01-21.51 9.58-6.52 2.32-13.21 4.21-19.86 6.15-7.41 2.12-15.07 2.88-22.69 3.83-.28.02-.56.02-.84-.03Zm-15.66 3.12c1.02-.66 2.09-1.24 3.2-1.74 3.37-1.73 7-2.89 10.75-3.45 2.32-.42 4.6-.99 6.85-1.7 6.17-1.87 12.31-3.83 18.47-5.74.65-.21 1.3-.39 1.96-.58l25.64-7.02a151.76 151.76 0 0 0 15.54-5.11c.49-.17.98-.31 1.49-.42-.47.33-.97.63-1.49.87-6.82 2.81-13.66 5.58-20.5 8.34-.45.18-.93.34-1.4.48-10.1 3-20.14 6.25-30.37 8.77-7.89 1.95-15.79 3.8-23.68 5.71-2.16.48-4.31 1.04-6.46 1.59Zm-15.63 89.98c-.6-.14-1.21-.29-1.81-.41-3.54-.67-7-1.71-10.32-3.1-4.21-1.73-8.53-3.3-12.83-4.91-.99-.38-2.01-.66-3.05-.84-5.32-.86-10.7-1.36-16.1-1.49-3.84-.06-7.68.18-11.48.72-4.82.44-9.58 1.38-14.2 2.81-5.28 1.82-10.51 3.73-15.8 5.5-2.72.9-5.53 1.59-8.29 2.37.45-.36.92-.7 1.4-1.01 3.19-1.82 6.39-3.6 9.58-5.36.7-.4 1.42-.76 2.16-1.08 5.9-2.45 12.05-4.26 18.34-5.39 2.44-.42 4.9-.79 7.35-1.14 5.63-.94 11.37-1.12 17.05-.55 2.24.27 4.5.6 6.75.9-.16-.16-.34-.28-.55-.36-3.86-.88-7.81-1.35-11.77-1.4-4.7.06-9.39.44-14.03 1.14-7.5.97-14.86 2.85-21.91 5.61-.96.37-1.9.8-2.81 1.28-4.56 2.51-9.09 5.07-13.64 7.61-.53.29-1.12.53-1.68.8 4.29-3.5 8.82-6.69 13.57-9.53a45.352 45.352 0 0 1 16.36-5.81c3.37-.49 6.74-1.05 10.1-1.57 5.13-.89 10.35-1.15 15.55-.79 3.77.32 7.52.84 11.23 1.29 3.62.53 7.15 1.59 10.47 3.14 4.7 2.06 9.35 4.28 14.03 6.22 4.31 1.92 8.84 3.29 13.49 4.08.22.05.43.13.63.24 0 .15 0 .24-.08.25a11.406 11.406 0 0 1-7.73.79Zm-19.44 6.81c-3.03-.08-6.06-.08-9.09-.11-2.23 0-4.46.08-6.69 0-4.01-.18-8.03-.46-12.06-.72-.8 0-1.58-.21-2.38-.32-1.71-.27-3.42-.59-5.14-.81-1.24-.17-2.47-.17-3.71-.31-5.24-.6-10.47-1.25-15.7-1.87-1.11-.13-2.22-.17-3.34-.22-2.09-.1-4.21-.17-6.29-.24.21-.21.49-.34.79-.38 4.68-.59 9.39-.8 14.1-.62 6.61.32 13.23.81 19.84 1.22 1.92.11 3.85.15 5.75.25l9.09.46c.74 0 1.49.14 2.22.18 3.72.24 7.42.51 11.13.7 1.67.11 3.34.11 5.01 0 2.47-.18 4.93-.56 7.38-.87 2.45-.31 4.6-.59 6.89-.88-.24.14-.49.27-.74.36l-11.23 3.47c-1.89.56-3.87.8-5.84.7Zm-29.65-.4-1.61-.2c2.81 0 5.61.21 8.42.46 5.24.5 10.5.69 15.76.55 2.04 0 4.08.1 6.12.15v.35c-.35.08-.7.17-1.07.22-4.18.69-8.43.79-12.63.31-5.04-.46-10.01-1.22-14.99-1.87Zm-48.56-2.8.41-.66.79-.28c1.12-.32 2.26-.62 3.35-1.01 6.92-2.54 14.06-4.42 21.33-5.61 5.15-.79 10.33-1.22 15.51-1.64 4.75-.43 9.54-.33 14.27.28l6.62.9c.46 0 .93 0 1.4.1a2.36 2.36 0 0 0-1.22-.45c-2.51-.34-5.04-.6-7.55-1-3.68-.56-7.4-.72-11.11-.48a163.6 163.6 0 0 0-21.41 2.25c-.87.17-1.78.21-2.68.31.17-.15.36-.28.56-.36 4.9-1.95 9.97-3.43 15.16-4.41 4.11-.59 8.24-1.12 12.36-1.4 7.01-.4 14.03-.06 20.97 1.02.61.09 1.21.23 1.8.42 4.98 1.55 9.86 3.39 14.61 5.53 2.69 1.26 5.51 2.2 8.42 2.81 1.26.25 2.48.69 3.73 1.02-.8.33-1.66.53-2.53.58-3.76.46-7.55.59-11.33.41-3.76-.34-7.54-.53-11.31-.84-1.73-.13-3.46-.36-5.16-.67-4.06-.89-8.16-1.56-12.29-2.01l-12.04-1.12c-.47.01-.94.08-1.4.2 2.47.24 4.93.59 7.39.69 3.65.2 7.28.67 10.86 1.4 4.71 1.07 9.48 1.85 14.29 2.33 4.38.29 8.76.66 13.4 1.02l-1.64.34c-2.82.45-5.68.56-8.52.35-4.51-.24-9.01-.6-13.51-.88-4.76-.31-9.51-.58-14.27-.86-5.01-.29-10.02-.48-15.02-.94-4.8-.47-9.64-.55-14.45-.25-1.7.11-3.4.17-5.08.25l2.26-.84c-.86.02-1.71.09-2.55.22-3.73.87-7.44 1.81-11.23 2.69-1.02.18-2.1.35-3.17.59ZM2.79 347.7l.1.2-.49.46-.2-.27v-.22l.59-.17Zm4.85-.33c-.99.62-2.17.85-3.33.67 1.05-.48 2.2-.71 3.35-.66h-.03Zm24.68-3.76c2.08-.75 4.24-1.27 6.43-1.56.21-.03.43-.03.65 0-.25.15-.38.29-.52.32l-6.55 1.24Zm12.63-4.56c-.6.26-1.23.46-1.87.6l-25.13 5.78c-.69.15-1.4.2-2.11.29.24-.14.49-.26.76-.35 4.21-1.11 8.42-2.23 12.56-3.27 3.24-.8 6.51-1.4 9.82-2.24 1.96-.5 3.98-.76 6.01-.8h-.04Zm127.3-110.63c-2.81-4.34-5.5-8.7-7.83-13.29-.9-1.77-1.85-3.51-2.81-5.21-2.09-3.52-3.9-7.19-5.43-10.99-.69-1.66-1.4-3.33-2.12-4.95-3.37-7.26-6.67-14.52-9.71-21.92-4.14-10.02-8.42-19.97-12.2-30.14-.24-.66-.38-1.4-.56-2.03.18.2.35.43.49.66 2.95 5.94 5.75 11.95 8.42 18.03.69 1.53 1.4 3.06 1.96 4.62 1.08 2.71 2.35 5.34 3.82 7.86 1.32 2.32 2.55 4.69 3.7 7.09 2.68 5.61 5.77 11.13 7.87 17.04.33.87.73 1.71 1.19 2.53 2.16 4.19 4.04 8.51 5.61 12.95a40.01 40.01 0 0 0 1.77 3.89c.88 1.84 1.81 3.68 2.81 5.49.22.35.47.69.74 1.01-.25-.88-.56-1.73-.93-2.57-2.16-4.17-4.04-8.48-5.61-12.9-.69-1.79-1.47-3.54-2.34-5.25-1.63-3.33-3.24-6.65-4.57-10.13-.81-2.12-1.94-4.14-2.93-6.19-1.56-3.23-3.13-6.44-4.69-9.67-.06-.18-.09-.36-.1-.55-.1 0-.22-.13-.28-.22a57.909 57.909 0 0 1-5.44-10.52 7.8 7.8 0 0 1-.27-1.16c.22.26.41.53.59.81 1.68 3.29 3.35 6.59 5.01 9.89.17.39.3.79.41 1.21.31.37.59.77.84 1.18 4.68 9.07 9.36 18.16 14.03 27.25 1.25 2.41 2.34 4.93 3.44 7.41 1.91 4.31 3.75 8.64 5.61 12.95.27.54.59 1.05.94 1.54-.17-.71-.38-1.41-.63-2.09-1.82-4.28-3.65-8.55-5.51-12.8-1.16-2.67-2.34-5.33-3.65-7.93-2.62-5.28-5.3-10.51-7.98-15.75-6.17-12.01-12.35-24.02-18.52-36.02-.82-1.43-1.35-3.01-1.57-4.64.32.49.7.95.98 1.4 2.26 4 4.42 8.04 6.75 12 4.21 7.24 8.13 14.64 11.86 22.13 4.52 9.05 9.03 18.1 13.53 27.15 1.04 2.11 1.96 4.28 2.81 6.46 1.7 4.21 3.37 8.42 4.97 12.63 1 2.61 1.87 5.26 2.71 7.91.43 1.46.61 2.97.55 4.49-.25-.32-.49-.66-.7-1.01l-2.32-4.62c-.07.1-.14.21-.25.35l-.1-.39c-.08-.27-.17-.52-.27-.79l-.7-.45h-.38a41.75 41.75 0 0 1-3-3.75Zm-36.88-86.22a103.5 103.5 0 0 1 6.72 9.53c2.13 3.34 4.41 6.6 6.58 9.91 2.03 3.1 4.21 6.16 6.03 9.36 2.81 4.76 5.42 9.6 8.06 14.44a97.46 97.46 0 0 1 3.48 7.02c3.1 6.76 5.61 13.77 8.21 20.71a85.03 85.03 0 0 1 3.89 13.74c.15.77.2 1.54.29 2.32a3.28 3.28 0 0 1-.48-.69c-1.8-4.49-3.54-9-5.35-13.47-1.16-2.81-2.34-5.74-3.68-8.53-2.29-4.81-4.69-9.57-7.02-14.34-4.63-9.32-9.16-18.69-14.27-27.77-3.72-6.65-7.56-13.25-11.33-19.87-.48-.77-.8-1.57-1.15-2.34Zm-.99 1.26c-1.08-1.64-1.97-3.4-2.67-5.23-.11-.31-.19-.64-.21-.97.69 1.12 1.4 2.2 2.01 3.37.36.92.64 1.87.86 2.83h.01Zm-4.85-12.63a2.076 2.076 0 0 1-1.21-1.11l1.21 1.11Zm-2.12-.15c.29.79.58 1.57.9 2.34.24.53.55 1.05.81 1.57l.28.79.29.8h.36c.1.25.18.52.27.77l.25.77h-.35c.09.47.21.94.35 1.4.84 2.34 1.64 4.69 2.57 7.02 3.3 8.22 6.59 16.45 9.99 24.64 2.32 5.61 4.74 11.23 7.17 16.76 1.4 3.19 2.81 6.33 4.21 9.5s2.71 6.26 4.06 9.39c1.4 2.47 2.9 4.95 4.34 7.44.1.22.16.45.2.69l.34.42.25.74h-.35c.26.6.55 1.19.87 1.75 1.31 1.99 2.65 3.96 3.96 5.95.28.49.52 1 .72 1.53-2.27-2.44-4.57-4.87-6.82-7.35a29.7 29.7 0 0 1-1.96-2.65c-.5-.38-.97-.8-1.4-1.25-3.42-4.24-6.61-8.66-9.56-13.25a117.89 117.89 0 0 1-12.5-27.27c-.1-.39-.17-.78-.2-1.18.16.22.31.46.42.72 2.72 7.09 6.29 13.77 9.67 20.53a48.05 48.05 0 0 0 4.45 7.02c1.24 1.63 2.37 3.34 3.48 5.05 1.11 1.71 2.16 3.62 3.27 5.42.35.49.73.96 1.14 1.4-.02-.3-.09-.6-.2-.88a90.54 90.54 0 0 0-7.02-11.23 44.55 44.55 0 0 1-4.66-7.38c-1.56-3.09-3.07-6.22-4.65-9.3-3.93-8.02-7.21-16.33-9.82-24.87-.61-1.66-.95-3.4-1-5.16.21.41.41.82.58 1.25 1.15 3.13 2.24 6.3 3.44 9.42 2.62 7.02 5.68 13.86 9.18 20.49 4.98 9.28 10.54 18.24 15.8 27.32.35.49.73.96 1.14 1.4-.24-.56-.42-1.14-.7-1.67-.87-1.7-1.78-3.38-2.68-5.08-.93-1.4-1.84-2.93-2.81-4.39-4.38-6.83-8.06-14.03-11.91-21.22-3.02-5.97-5.67-12.13-7.92-18.44-1.66-4.2-3.07-8.5-4.21-12.87-.84-3.31-1.81-6.57-2.64-9.82-.59-2.34-1.07-4.7-1.53-7.02-.02-.65.02-1.31.13-1.95v-.06Zm54.84 93.15c-.34-1.19-.55-2.42-.62-3.66a54.764 54.764 0 0 0-3.55-16.43c-1.18-2.93-2.03-5.98-2.92-9.02-.76-2.68-1.75-5.29-2.97-7.79-2.63-5.28-5.24-10.55-7.84-15.82-.09-.21-.15-.42-.2-.65.46.47.89.96 1.28 1.49 1.4 2.05 2.81 4.11 4.08 6.22a77.787 77.787 0 0 1 9.82 23.2c1.53 6.58 2.51 13.27 2.9 20.01-.03.88-.03 1.7 0 2.51v-.06Zm-1.09 15.44c-.42-2.06-.88-3.93-1.15-5.81-1.11-8.05-3.16-15.94-6.1-23.51-1.63-4.21-3.19-8.34-4.84-12.49a121.32 121.32 0 0 0-6.9-14.41c-1.67-2.96-3.3-5.95-4.93-8.95-2.3-4.32-4.86-8.5-7.68-12.5-1.98-2.81-3.94-5.61-5.73-8.42-2.67-4.33-5.57-8.51-8.69-12.52-1.6-2.05-2.99-4.21-4.45-6.41-.23-.42-.42-.85-.58-1.31.34.24.66.52.95.81 2.46 2.81 4.98 5.61 7.3 8.42 5.29 6.64 10.48 13.37 15.72 20.05.36.4.75.78 1.16 1.14-.31-.65-.66-1.28-1.07-1.88-4.2-5.44-8.41-10.86-12.63-16.28-.38-.49-.7-1.05-1.05-1.59.45.34.88.72 1.28 1.12 4.6 5.12 9.14 10.31 13.81 15.37a64.6 64.6 0 0 1 10.05 14.92c2.09 4.08 4.08 8.21 6.05 12.36.93 1.96 1.75 3.97 2.46 6.02 1.63 4.69 3.12 9.42 4.7 14.12.77 2.16 1.32 4.39 1.61 6.67.55 4.93 1.09 9.82 1.61 14.78.13 1.28.18 2.57.28 3.86-.33-.45-.54-.98-.59-1.53-.41-2.69-.8-5.39-1.24-8.08a11.1 11.1 0 0 0-.58-1.71c0 .73 0 1.47.17 2.2.55 3.8 1.12 7.59 1.66 11.4.23 1.43 0 2.91-.63 4.21v-.04Zm199.5-31.37c-2.58-.77-5.14-1.56-7.73-2.29-1.4-.39-2.81-.58-4.21-.97-6.75-1.87-13.38-4.17-19.84-6.88l-4.97-2.08c2.35.16 4.7.45 7.02.88 1.53.27 3.04.61 4.53 1.04 3.86 1.13 7.64 2.54 11.3 4.21 2.81 1.22 5.61 2.37 8.42 3.54 1.32.55 2.65 1.05 3.96 1.63.52.29 1.03.61 1.51.95v-.04Zm5.61 2.59a4.21 4.21 0 0 1-2.44-1.4l2.44 1.4Zm-23.16 0a106.25 106.25 0 0 1-15.28-3.16c-4.42-1.26-8.85-2.4-13.29-3.62a66.31 66.31 0 0 0-8.06-2.22c-3.31-.49-6.61-1.09-9.92-1.52-4.96-.8-9.97-1.27-14.99-1.4h-2.39v-.15c.52-.13 1.05-.24 1.59-.32 2.6-.25 5.19-.48 7.77-.74 4.32-.37 8.67-.37 12.99 0 6.3.63 12.5 1.95 18.51 3.94 4.46 1.31 8.84 2.81 13.28 4.21 4.12 1.55 8.34 2.82 12.63 3.8 2.37.41 4.73.97 7.1 1.4.65.13 1.31.17 1.96.25-.62.11-1.25.13-1.88.07-3.31-.07-6.68-.07-9.98-.52l-.06-.03Zm26.49 3.64c-8.05.89-16.16.94-24.22.15-8.12-.73-16.24-1.78-24.32-2.9-7.96-1.09-15.87-2.6-23.67-4.5-7.59-1.85-15.11-3.37-22.97-2.95-6.95.55-13.84 1.69-20.6 3.4a.489.489 0 0 1-.18-.14l.83-.29h.22l10.58-2.51c.81-.2 1.68-.27 2.47-.53.5-.23 1.01-.42 1.53-.58 1.8-.32 3.63-.5 5.46-.55 3.64-.25 7.3-.25 10.95 0 5.5.39 11.02.67 16.48 1.49.98.12 1.96.32 2.9.6 3.19 1.04 6.33 2.16 9.5 3.24 1.11.38 2.22.79 3.35 1.05 3.76.82 7.56 1.41 11.4 1.74 3.02.28 6.03.74 9.05 1 3.83.34 7.66.55 11.49.83 2.65.2 5.3.39 7.96.66 1.23.11 2.44.39 3.65.59.37.07.74.11 1.11.13 1.74 0 3.47-.13 5.21-.17h2.16c-.07.11-.16.2-.27.28l-.06-.03Zm-10.17-1.31c-3.64.03-7.27-.27-10.85-.91 3.66.38 7.34.07 10.96.94l-.11-.03Zm-78.76-4.05c-3.43-.84-6.94-1.35-10.47-1.54-.8-.05-1.61-.15-2.4-.28.41-.17.85-.27 1.29-.29 4.23-.35 8.48-.09 12.63.77 4.07.87 8.14 1.67 12.11 2.92 4.6 1.4 9.3 2.62 13.92 4.03 5.35 1.6 10.82 2.78 16.35 3.52 6.29.66 12.63.7 18.93.11 5.32-.31 10.61-1.09 15.9-1.67l2.99-.27c-.42.15-.85.28-1.29.38-6.44 1.3-12.97 2.15-19.53 2.55-5.88.48-11.78.39-17.64-.28-5.28-.75-10.51-1.82-15.66-3.2-9.07-2.39-18-4.94-27.13-6.75Zm-22.01-1.71a90.185 90.185 0 0 1 19.49-2.5c8 0 15.68 2.23 23.41 4.01 7.73 1.78 15.83 3 23.86 4.03 8.03 1.02 15.69 2.05 23.56 2.58 4.51.29 9.03.29 13.54 0-6.08.7-12.14 1.4-18.24 1.98-4 .35-8.04.27-12.07.34-3.23.13-6.46-.06-9.64-.59-3.78-.69-7.54-1.52-11.23-2.36-1.56-.36-3.09-.93-4.63-1.4-4.41-1.26-8.84-2.44-13.22-3.8-4.47-1.28-9-2.32-13.57-3.13-4.6-.74-9.28-.78-13.89-.11-2.54.34-4.95.62-7.37.9v.06Zm-9.19 1.11c.55-.4 1.14-.75 1.75-1.05 2.02-.87 4.1-1.64 6.13-2.48.54-.26 1.07-.56 1.57-.88l-.7-.1.74-.25c.57-.34 1.17-.65 1.78-.93 2.61-.97 5.22-1.98 7.86-2.81 6.72-2.21 13.63-3.77 20.64-4.66 3.98-.66 8.01-.92 12.04-.77 5.08.39 10.16.32 15.24.49.87.02 1.72.16 2.55.41 2.25.72 4.5 1.4 6.68 2.3 5.83 2.59 11.83 4.8 17.95 6.61 2.62.73 5.23 1.54 7.89 2.13 4.13.83 8.14 2.19 11.93 4.06 1.49.76 3.07 1.33 4.7 1.71l1.52.36c-.17.12-.37.17-.57.15-7.1-1.04-14.31-1.4-21.33-3.07-2.65-.63-5.31-1.28-7.92-2.05-2.61-.77-5.53-1.81-8.28-2.74-5.22-1.75-10.41-3.63-15.77-4.94-2.71-.66-5.39-1.4-8.14-1.91a80.43 80.43 0 0 0-20.38-.86c-3.71.19-7.4.69-11.03 1.5-3.9 1.02-7.77 2.1-11.65 3.2-.87.11-1.67.51-2.27 1.14.66-.14 1.4-.25 1.98-.44l3.76-1.04s.08.04.12.04.09-.01.12-.04l2.29-.62a42.79 42.79 0 0 1 16.21-1.11c4.86.63 9.68 1.4 14.54 2.03 4 .52 7.94 1.39 11.77 2.62 4.13 1.32 8.42 2.27 12.52 3.54 5.95 1.73 12.02 3.06 18.15 3.99.46.07.93.17 1.4.27-2.67-.1-5.33-.2-7.97-.46-3.65-.36-7.28-.74-10.89-1.33-3.43-.52-6.83-1.22-10.19-2.09-2.81-.77-5.61-2.02-8.42-2.96-1.51-.55-3.07-.95-4.66-1.22-2.98-.46-6-.82-9.04-1.09-4.21-.35-8.42-.59-12.63-.81-8.42-.46-16.36 1.52-24.31 3.75l-.28.1c-1.7.46-3.35 1.08-4.94 1.85l-.48.11-1.99.35Zm53.44 36.25c-2.39-.51-4.8-.88-7.14-1.57-3.68-1.08-7.28-2.4-10.95-3.56-3.66-1.16-7.02-2.9-10.75-3.55-.86-.15-1.68-.38-2.53-.6a43.183 43.183 0 0 0-12.12-1.61c-7.08.11-14.13.92-21.05 2.41-4.77 1.08-9.54 2.19-14.3 3.28l-.66.14a.518.518 0 0 1 .37-.51 52.14 52.14 0 0 1 10.12-3.68c5.15-1.07 10.3-2.16 15.44-3.27 5-.96 10.1-1.21 15.17-.74a48.85 48.85 0 0 1 14.96 3.54c7.13 2.81 14.23 5.8 21.33 8.71.76.24 1.43.6 2.12.95v.06Zm-2.36 1.02c-5.61-1.23-11.37-2.55-17.05-3.85-3.44-.77-6.89-1.57-10.34-2.3-3.45-.73-6.54-1.4-9.82-1.92-4.81-.56-9.65-.7-14.48-.41a74.31 74.31 0 0 0-19.09 2.81c-1.25.38-2.54.62-3.79.98-2.67.77-5.33 1.6-8.01 2.4-1.08.32-2.19.6-3.28.91 1.75-1.54 3.83-2.66 6.09-3.26 4.57-1.12 9.19-2.05 13.75-3.23 5.66-1.41 11.41-2.39 17.22-2.93 6.41-.83 12.92-.48 19.2 1.04 3.58.78 7.08 1.86 10.47 3.24 1.03.44 2.08.82 3.14 1.14l7.62 2.4c1.84.58 3.66 1.19 5.52 1.68 1.85.49 3.4.72 5.08 1.11.83.18 1.64.45 2.46.69-1.55-.06-3.1-.25-4.62-.56l-.06.06Zm-10.36 2.67c-6.39-.91-12.77-1.78-19.16-2.72-8.94-1.41-17.99-2.07-27.04-1.95-5.19.11-10.4 0-15.59.62-4.49.51-8.97 1.12-13.46 1.7l-1.95.24c.45-.45 1-.79 1.6-1.01a40.12 40.12 0 0 1 7.68-2.2c.65-.15 1.29-.32 1.92-.53l-.29-.22.34-.14c2.32-.63 4.63-1.33 7.02-1.87 2.65-.62 5.33-1.18 8.01-1.57 4.92-.63 9.88-.91 14.83-.83 5.71-.04 11.4.61 16.95 1.92 5.91 1.4 11.83 2.71 17.77 4.01 3.2.72 6.46 1.24 9.64 1.99 3.08.75 6.22 1.15 9.39 1.19.51 0 1.01.13 1.52.18-.64.41-1.38.63-2.13.63-5.46 0-10.91-.4-16.31-1.18-1.73-.19-3.44-.47-5.14-.86-3.48-.87-6.93-1.85-10.38-2.81a52.32 52.32 0 0 0-9.26-1.99c-1.4-.14-2.72-.13-4.07-.24-3.21-.24-6.43-.55-9.64-.77-1.55-.11-3.1-.11-4.65 0-6.79.52-13.58 1.01-20.33 1.96-.59.13-1.17.3-1.74.51.55.03 1.1.03 1.66 0 4.56-.45 9.12-.93 13.68-1.4 4-.51 8.03-.68 12.05-.49 3.1.24 6.17.58 9.28.74 5.63.38 11.19 1.5 16.53 3.33a74.207 74.207 0 0 0 20.25 3.58c.74 0 1.49.1 2.23.17s1.4.15 2.02.24c-4.4.36-8.83.27-13.22-.27v.04Zm-9.33 2.4c-3.21-.67-6.37-1.61-9.56-2.37-3.19-.76-6.03-1.4-9.07-2.01-3.97-.68-7.98-1.15-12-1.4-1.73-.14-3.46-.19-5.19-.15-3.1.08-6.19.35-9.28.41h-8.34c1.47-.18 2.93-.45 4.39-.51 4.08-.15 8.17-.25 12.24-.32s8.17 0 12.24.36c9.7.77 19.27 2.58 28.91 3.79 3.18.51 6.38.84 9.6.97 1.77 0 3.55.11 5.32.18-4.44 1.35-9.09 1.9-13.72 1.63-1.86-.08-3.71-.29-5.54-.63v.06Zm-75.32-1.33a9.308 9.308 0 0 1 4-1.89c2.59-.61 5.24-.98 7.9-1.09 4.21-.2 8.42-.45 12.63-.62 3.09-.13 6.19-.1 9.28-.25 3.77-.27 7.55-.29 11.32-.07 6.49.52 12.93 1.57 19.25 3.13 4.74 1.14 9.4 2.72 14.26 3.31-5.59.35-11.2 0-16.7-1.04-4.21-.84-8.27-1.68-12.42-2.4-6.86-1.07-13.78-1.78-20.71-2.12-7.43-.44-14.89.2-22.14 1.89-2.11.42-4.22.69-6.67 1.09v.06Zm-27.51 18.07c.1-.12.2-.23.32-.32 3.65-2.67 7.28-5.35 10.96-7.96 1.09-.68 2.23-1.3 3.4-1.85l.15-.1-.14.11c-.37.47-.79.91-1.25 1.31-2.81 2.05-5.53 4.11-8.42 6.02-1.63 1-3.3 1.91-5.02 2.74v.06Zm-2.49 21.72c-5.32-.26-10.66-.18-15.97.24-1.21.1-2.41.08-3.62.13 3.7-.89 7.45-1.53 11.23-1.91 6.12-.47 12.27-.43 18.38.1 8.61.58 17.15 1.9 25.54 3.93 6.37 1.6 12.5 4.02 18.24 7.21 4.9 2.65 9.58 5.7 14.41 8.5 2.25 1.31 4.59 2.46 6.88 3.69l2.36 1.29c-.94-.12-1.88-.29-2.81-.52-2.61-.76-5.22-1.56-7.82-2.4a51.95 51.95 0 0 1-12.63-5.73c-2.52-1.6-5.15-3.01-7.89-4.21a72.977 72.977 0 0 0-8.73-3.21c-5.63-1.93-11.38-3.49-17.2-4.69-6.73-1.26-13.54-2.09-20.38-2.48v.06Zm32.18-3.17c-11.77-.93-23.56-1.4-35.36-1.66.31-.21.66-.34 1.02-.39 4.99-.94 10.05-1.41 15.13-1.4 6.57-.18 13.1.97 19.21 3.4v.06Zm40.7 20.94c-2.5-.86-4.89-2.01-7.12-3.44-.94-.55-1.82-1.21-2.72-1.82.12-.05.25-.07.38-.06.13.01.25.06.36.13 2.71 1.4 5.42 2.92 8.11 4.41.37.21.73.45 1.05.73l-.07.06Zm1.65.94-1.64-.94c.32.01.64.1.93.26s.54.37.73.63v.06Zm10.79 6.09c-1.69-.38-3.36-.85-5-1.4a66.49 66.49 0 0 1-11.55-5.51c-2.81-1.82-5.84-3.51-8.7-5.36a88.084 88.084 0 0 0-16.6-8.28c-3.58-1.4-7.28-2.46-11.06-3.17-2.81-.49-5.47-1.08-8.22-1.5-3.62-.55-7.24-1.08-10.88-1.4-3.96-.34-7.91-.41-11.89-.56-5.2-.3-10.41 0-15.53.93-.95.14-1.91.22-2.88.24.3-.18.61-.33.93-.46 1.78-.53 3.58-1 5.36-1.54 2.33-.66 4.76-.91 7.17-.76 2.16 0 4.34.14 6.5.18 3.59-.12 7.19-.02 10.76.29 1.48.21 2.97.28 4.46.21 3.03-.11 6.07.03 9.08.41l6.47.74c1.79.15 3.54.63 5.16 1.4 3.52 1.81 7.02 3.57 10.55 5.46 2.12 1.15 4.21 2.48 6.17 3.78 3.56 2.26 7.1 4.56 10.65 6.82.58.36 1.18.68 1.8.96l15.02 6.93c.9.28 1.7.82 2.29 1.56l-.07.06Zm-19.38-2.3c-4.1-1.24-8.21-2.4-12.19-3.97-5.88-2.32-11.79-4.55-17.86-6.34-6.71-1.99-13.36-4.21-20.08-6.09-3.03-.89-6.12-1.59-9.25-2.08-5.14-.8-10.31-1.4-15.44-1.98-2.28-.26-4.57-.36-6.86-.31-3.59.1-7.17.39-10.75.6 1.3-.67 2.74-1.03 4.21-1.05 2.41-.18 4.83-.25 7.24-.45 6.74-.58 13.51-.53 20.24.14 5.61.56 11.23 1.56 16.74 2.41 1.59.27 3.17.63 4.72 1.1 3.86 1.14 7.7 2.33 11.55 3.54 5.8 1.82 11.34 4.38 16.49 7.62 1.84 1.15 3.77 2.14 5.78 2.96 5.95 2.5 12.14 4.38 18.47 5.61 1.25.23 2.47.56 3.72.86-.23.12-.5.16-.76.13a88.361 88.361 0 0 1-15.89-2.75l-.07.06Zm1.32 2.34c-.38 0-.74-.1-1.11-.17-1.53-.27-3.06-.53-4.57-.84-2.81-.6-5.73-1.08-8.52-1.89-10.27-3.08-20.37-6.7-30.26-10.83a75.868 75.868 0 0 0-16.84-4.67c-2.5-.41-5.04-.63-7.55-.94-6.09-.78-12.22-1.25-18.36-1.4-2.78-.16-5.57-.05-8.34.31-1.44.14-2.88.19-4.32.15 1.27-.8 2.72-1.28 4.21-1.4 2.81-.28 5.61-.57 8.52-.73 3.45-.31 6.93-.31 10.38 0 4.74.57 9.49 1.18 14.23 1.74 3.56.48 7.08 1.24 10.53 2.27 3.82 1.05 7.61 2.23 11.37 3.45 6.37 2.06 12.76 4.06 19.04 6.36 6.29 2.3 12.28 4.67 18.64 6.34 3.38 1.01 6.84 1.78 10.33 2.3 1.4.15 2.67.48 4.01.72v.29l-1.4-.08-9.99-.97Zm-7.52 1.07a77.69 77.69 0 0 1-13.22-3.03c-4.21-1.22-8.22-2.81-12.32-4.21-4.34-1.49-8.64-3.04-12.98-4.52-3.12-1.05-6.32-1.84-9.36-3.03a91.627 91.627 0 0 0-22.12-5.54c-1.91-.25-3.8-.48-5.71-.7 2.6.07 5.21.13 7.77.39 6.31.44 12.58 1.32 18.76 2.64 2.71.66 5.42 1.32 8.07 2.16 2.06.66 4 1.66 6.03 2.4 7.1 2.58 14.03 5.61 21.29 7.8 3.78 1.38 7.67 2.45 11.62 3.21 2.02.29 4.03.71 6.02 1.16 1.99.45 4.02.7 6.06.76 1.53 0 3.05.35 4.57.53v.25c-.24.06-.47.1-.72.13-4.57.28-9.17.13-13.71-.46l-.07.06Zm-13.26.55c-2.81-.77-5.49-1.52-8.21-2.36-2.89-.77-5.71-1.79-8.42-3.04-7.77-4.02-16.01-7.07-24.52-9.11l-16.66-3.89c-1.02-.24-2.03-.57-3.07-.74-3.42-.56-6.86-1.07-10.29-1.58-.8-.13-1.6-.21-2.4-.31v-.21c3.47.13 7.02.13 10.4.42 3.82.34 7.65.83 11.44 1.4 3.86.6 7.67 1.54 11.37 2.81 2.4.84 4.79 1.73 7.2 2.51 4.66 1.5 9.35 2.92 13.92 4.69 4.21 1.64 8.64 3.06 12.97 4.6 6.88 2.5 14.01 4.25 21.27 5.21.24 0 .48.1.73.14-1.85.32-3.73.49-5.61.52-3.41.15-6.81-.21-10.12-1.05Zm-69.66-19.65-9.42-.59c3.16-.81 6.23.27 9.36.59h.06Zm32.72 9.5c1.34.24 2.61.77 3.72 1.56a9.952 9.952 0 0 1-3.77-1.57h.06Zm-19.21-7.02c.8.05 1.59.17 2.37.35 2.81.66 5.54 1.31 8.31 2.01 4.01 1.04 8.07 1.96 12.01 3.21 5.59 1.86 11.03 4.12 16.28 6.78 1.32.7 2.68 1.29 4.08 1.78 3.66 1.16 7.35 2.22 11.03 3.32.44.13.84.34 1.57.62a40.26 40.26 0 0 1-13.08-2.46c-3.97-1.4-7.9-2.92-11.83-4.42-1.78-.69-3.52-1.5-5.3-2.23-3.11-1.24-6.21-2.47-9.32-3.69-.41-.12-.84-.2-1.26-.25-.84-.29-1.68-.62-2.54-.9l-12.32-4.13Zm-86.86 22.96a9.603 9.603 0 0 1-3.8 1.77c-3 1.49-6.13 2.69-9.35 3.61.96-.57 1.94-1.08 2.96-1.53 2.08-.8 4.21-1.4 6.32-2.18l3.87-1.67Zm51.19-43.26a7.86 7.86 0 0 1-2.92 2.6 7.205 7.205 0 0 1 2.86-2.67l.06.07Zm1.66-1.62c-.07.3-.22.58-.43.81s-.49.39-.79.47l1.22-1.28Zm19.35-20.13c-.05.15-.12.3-.21.44l-6.5 6.1c.14-.3.31-.58.51-.84 1.75-2.22 3.82-4.16 6.15-5.77l.06.07Zm20.49-22.98a19.309 19.309 0 0 1-4.9 6.47l-.86.94c.04-.22.14-.43.28-.6s.33-.3.55-.37c1.54-2.09 3.09-4.21 4.64-6.29.05-.1.13-.17.22-.22l.06.07Zm9.33-5.4c1.2-1.35 2.62-2.48 4.21-3.34 2.06-1.14 4.08-2.36 6.15-3.48 1.82-1.03 3.69-1.97 5.61-2.81 5.35-2.3 10.83-4.3 16.4-5.98a48.32 48.32 0 0 0 13.65-6.22c1.53-1.04 3.12-2.03 4.67-3.05l.98-.62c-.22.47-.56.88-.98 1.18a82.565 82.565 0 0 1-22.99 12.74c-4.76 1.8-9.47 3.68-14.03 5.87-.52.3-1.02.63-1.49 1 .7-.2 1.39-.43 2.06-.7a98.92 98.92 0 0 1 11.31-4.73c4.26-1.35 8.38-3.1 12.29-5.25 1.91-1.04 3.86-1.99 5.8-2.98.31-.14.63-.24.95-.32-.53.48-1.05.97-1.63 1.4a69.801 69.801 0 0 1-8.97 5.61c-4.89 2.55-9.96 4.73-15.17 6.54-4.49 1.59-8.97 3.24-13.44 4.87-.28.09-.56.15-.84.2l1.25-1.33c-.56.22-1.12.47-1.66.74-2.05 1.26-4.08 2.57-6.15 3.83-.45.25-.92.46-1.4.63 1.05-1.38 2.29-2.61 3.34-3.89l.06.07Zm55.42-33.19c.33-.01.64-.11.93-.27s.52-.39.7-.66l1.14-.24c-.28.38-.59.74-.93 1.08-2 1.67-4.16 3.14-6.44 4.39-1.7 1.01-3.35 2.09-4.97 3.21a37.58 37.58 0 0 1-7.96 4.31c-1.96.76-3.89 1.6-5.82 2.4-2.23.91-4.45 1.84-6.69 2.72-.55.19-1.11.34-1.68.45.25-.23.52-.43.81-.6 3.63-1.85 7.28-3.66 10.93-5.52 1.81-.93 3.63-1.85 5.42-2.81 2.81-1.54 5.61-3.14 8.42-4.74.46-.29.89-.62 1.31-.97-.41.1-.82.23-1.21.39-1.94 1-3.85 2.01-5.77 3.03-3.51 1.84-7.02 3.73-10.52 5.53-4.57 2.34-9.18 4.63-13.79 6.92-.58.25-1.18.46-1.8.63.42-.31.83-.65 1.26-.93 5.05-3.26 10.08-6.55 15.16-9.75 1.71-1.12 3.5-2.1 5.37-2.92 5.19-2.19 10.45-4.21 15.68-6.3.38-.12.76-.21 1.15-.27l-.69.9Zm2.96 0a17.322 17.322 0 0 1-4.63 5.16c-2.95 2.06-5.95 4.04-8.95 6.03-3.63 2.39-7.6 4.22-11.77 5.43-5.3 1.56-10.45 3.54-15.59 5.54-.6.24-1.23.39-1.87.59.23-.25.49-.48.76-.69 2.39-1.54 4.92-2.84 7.56-3.89 2.81-1.07 5.51-2.2 8.27-3.31 1.88-.76 3.75-1.6 5.61-2.29 3-1.12 5.83-2.64 8.42-4.52 1.52-1.07 3.07-2.08 4.66-3.03 2.33-1.29 4.52-2.8 6.55-4.52.29-.22.6-.4.93-.55l.06.03Zm-48.53 25.26c-.2.09-.42.14-.65.14.09-.14.19-.27.31-.39 2.84-2.16 5.94-3.97 9.22-5.39.16-.03.32-.03.48 0l-9.36 5.64Zm-27.93-103.38c.13 3.3.1 6.57.07 9.82 0 3.65-.2 7.31-.1 10.96.14 5.19.45 10.38.73 15.59.6 11.13 1.89 22.2 3.2 33.27.74 6.34 2.02 12.63 2.53 18.97.53 4.18 1.36 8.32 2.48 12.38.14.67.22 1.4.34 2.03-1.7-3.95-3.08-8.04-4.13-12.21-.14-.46-.31-.9-.52-1.33.03-.3.03-.61 0-.91-.48-2.46-.97-4.93-1.4-7.37-.12-.34-.27-.66-.46-.97.11.73.2 1.4.32 2.19.31 1.94.62 3.86.94 5.78-.18-.21-.34-.45-.46-.7-1.07-2.81-2.22-5.53-3.16-8.35-2.08-6.43-3.52-13.06-4.29-19.77a135.92 135.92 0 0 1-1.26-22.99c.28-6.51.93-13 1.96-19.44l.11-.17c0 3.54 0 7.02.1 10.47.22 5.94.42 11.89.39 17.84.09 7.05.7 14.09 1.85 21.05.14.59.32 1.17.55 1.73 0-.6 0-1.22-.1-1.84-.46-4.55-.97-9.11-1.4-13.67-.34-3.52-.22-7.02-.22-10.58 0-3.9-.21-7.8-.28-11.7-.1-4.52-.21-9.04-.15-13.56.01-2.85.22-5.7.63-8.52.31-2.76 1.08-5.39 1.68-8.08l.06.07Zm2.14-10.93c.11.93.2 1.59.25 2.25.38 4.32.41 8.66.97 12.97.69 5.28 1.04 10.61 1.4 15.91.34 4.45.59 8.9.81 13.36.15 3.27.2 6.55.29 9.82.17 5.21.39 10.4.53 15.61.14 5.21.42 10.02.9 15.02.65 6.67 1.21 13.33 1.78 20 .08 1.14 0 2.27 0 3.41a.864.864 0 0 1-.31-.26.982.982 0 0 1-.18-.37 74.39 74.39 0 0 1-1.84-10.79c-.18-2.41-.51-4.81-.84-7.2-.39-2.81-.95-5.5-1.31-8.27-.65-5.35-1.28-10.71-1.77-16.08-.65-7.48-1.24-14.97-1.74-22.45-.29-4.7-.41-9.42-.48-14.12 0-3.85.13-7.69.08-11.54-.16-5.81.3-11.62 1.38-17.33l.06.07Zm7.66 107.51c-.31-4.45-.52-8.9-.88-13.35-.69-8.08-1.68-16.12-1.8-24.26-.13-8.73-.45-17.46-.91-26.17-.41-7.97-1.07-15.93-1.71-23.86-.28-3.63-.79-7.26-1.18-10.89-.03-.49-.03-.98 0-1.47.25.24.41.56.46.9 1.74 10.19 3.59 20.36 4.48 30.69.46 5.36 1.11 10.71 1.52 16.08.34 4.5.38 9.04.67 13.54.44 6.8.44 13.62 0 20.42-.18 2.81-.11 5.61-.18 8.42-.1 3.67-.21 7.34-.32 11.02-.11-.39-.17-.78-.2-1.18l.06.11Zm14.83-46.48c-.49-6.39-1.32-12.76-2.51-19.06a59.499 59.499 0 0 1 2.46 18.99l.06.07Zm-6.26 42.63c-.17-.29-.22-.63-.14-.95.66-5.04.93-10.12.81-15.2v-9.29c0-4.72.25-9.42-.14-14.12-.39-4.7-.62-9.39-1.02-14.03-.6-5.22-1.64-10.39-3.12-15.44-2.05-7.86-4.21-15.66-6.37-23.49-.2-.72-.27-1.4-.39-2.18l-.28-.8c-.21-.26-.36-.56-.45-.87-.09-.32-.11-.65-.07-.98l.66.79.39-.52c1.81 3.21 3.42 6.54 4.81 9.95 1.87 4.94 3.69 9.88 5.46 14.82.46 1.28.86 2.6 1.19 3.92 2.04 8.11 3.41 16.37 4.1 24.7.59 5.98.44 12.02-.45 17.96-.32 2.08-.65 4.21-1.01 6.23-.85 4.75-1.73 9.51-2.64 14.26-.08.3-.2.58-.35.84l-1 4.41Zm-4.75 13.37-.22-.08c.28-3.62.56-7.26.83-10.88-.57 2.73-.88 5.51-.93 8.29.05 2.12-.36 4.22-1.21 6.16l-.41-.13c.04-1.41-.04-2.82-.24-4.21a.487.487 0 0 0-.1-.22.39.39 0 0 0-.2-.13c0-1.4-.15-2.72-.27-4.08.07-4.32.15-8.64.27-12.95.11-5.21.27-10.4.41-15.61 0-1.4.18-2.98.13-4.45-.21-6.32-.32-12.63-.79-18.92-.65-8.71-1.52-17.4-2.4-26.07-.94-9.19-2.81-18.24-4.45-27.29-.44-2.34-.84-4.67-1.26-7.02.17.28.3.59.41.9.43 1.8.87 3.61 1.26 5.42 1.4 6.71 2.81 13.43 4.31 20.14 1.07 4.01 1.93 8.07 2.6 12.17.51 4.42 1.04 8.84 1.4 13.28.95 10.22 1.4 20.46 1.6 30.73 0 1 .2 1.99.31 2.98.1-.63.15-1.27.17-1.91-.08-4.21-.13-8.53-.31-12.8-.35-8.35-.81-16.7-1.74-25.01-.36-4.38-.96-8.75-1.8-13.07-1.57-7.02-3.19-14.03-4.73-21.05-.7-3.21-1.28-6.47-1.89-9.71.33.53.61 1.09.84 1.67 1.4 4.57 2.81 9.15 4.08 13.72 2.33 8.11 4.59 16.24 6.26 24.5.66 3.28 1.22 6.58 1.57 9.91.44 4.13.58 8.28.9 12.42.27 3.54.34 7.02.25 10.6-.08 3.58 0 7.02 0 10.6.14 5.52-.11 11.04-.76 16.52-.18 1.4-.44 2.81-.56 4.21-.38 3.52-1.33 6.96-2.81 10.19-.14.38-.38.79-.58 1.19h.04Zm4.54-2.18c-.08.28-.18.55-.32.8-1.63 2.41-3.27 4.82-4.91 7.21-.18.2-.39.37-.63.51 1.09-1.82 2.13-3.69 3.31-5.46.78-1.07 1.62-2.09 2.51-3.06h.04Zm21.26-35.99-.87 1.57c.08-.62.39-1.18.87-1.57Zm4.34-7.36a76.511 76.511 0 0 1-3.66 6.64c-.16.22-.35.41-.56.58 1.17-2.11 2.34-4.23 3.51-6.34.21-.31.44-.6.69-.87h.03Zm7.82-16.98c.22.36.39.51.39.65-.04.19-.11.37-.21.53l-.27-.07c-.01-.29.01-.58.06-1.11h.03Zm-2.64-21.71c0-2.81.22-5.71.15-8.55-.04-3.97.21-7.93.76-11.86.69-5.29 1.23-10.6 1.73-15.9.28-3.59.75-7.16 1.4-10.69.58-2.81 1.12-5.61 1.67-8.42.42-2.18.8-4.38 1.21-6.55h.25c-.55 5.49-1.04 10.97-1.67 16.45-.29 2.71-.86 5.39-1.25 8.08-.77 5.28-1.4 10.57-1.71 15.9-.38 5.61-1.49 11.23-1.66 16.84-.08 2.9-.22 5.81-.35 8.71 0 .42-.1.84-.15 1.28-.36-1.74-.5-3.52-.41-5.29h.03Zm9.12-77c-.49 3.66-1.28 7.23-2.03 10.81-.76 3.58-1.56 7.4-2.29 11.1-.38 1.88-.66 3.79-1.01 5.61-.31 1.64-.77 3.27-.97 4.93-.34 2.81-.48 5.61-.79 8.32-.56 5.12-1.09 10.24-1.8 15.34a73.58 73.58 0 0 0-.81 11.68c0 1.94-.11 3.89-.2 5.84-.19-.62-.33-1.25-.41-1.89-.22-3.54-.63-7.02-.53-10.58.14-5.75.53-11.52 1-17.26.75-7.59 2-15.12 3.72-22.55.99-4.93 2.25-9.79 3.77-14.58.73-2.22 1.53-4.48 2.32-6.72l.03-.03Zm4.55-10.78c-.21 1.92-.51 3.82-.83 5.71-.77 4.52-1.87 8.98-2.22 13.57-.45 5.61-.9 11.23-1.49 16.84-.63 5.87-1.4 11.7-2.15 17.54-.6 4.56-1.4 9.08-1.98 13.63-.35 2.58-.59 5.18-.86 7.77-.35 3.51-.72 7.02-1 10.54-.22 2.1-.3 4.21-.24 6.31.06 4.59-.27 9.18-1.01 13.71-.32-2.08-.73-4.14-.94-6.22-.12-1.55-.15-3.1-.1-4.65 0-3.21 0-6.44.24-9.65.45-5.61 1.11-11.35 1.68-17.02.22-2.34.42-4.69.67-7.02.25-2.33.51-5.07.86-7.58.72-5.28 1.56-10.55 2.25-15.84.94-7.26 1.78-14.51 2.69-21.78.07-.55.17-1.1.32-1.64.86-3.23 1.67-6.47 2.58-9.7.33-1.56.82-3.08 1.47-4.53h.03Zm3.01 5.85c.08.41.22.81.27 1.22.38 3.56.83 7.14 1.11 10.72.46 5 .56 10.02.31 15.03-.15 2.34-.28 4.7-.45 7.02-.35 4.63-.65 9.28-1.11 13.89-.28 2.71-.87 5.39-1.32 8.07-.13.8-.22 1.6-.38 2.39-.84 4.07-1.67 8.14-2.57 12.18-.59 2.67-1.23 5.3-1.98 7.93-.88 3.16-1.92 6.27-2.81 9.42-.86 2.81-1.61 5.73-2.48 8.56-.22 1.08-.7 2.1-1.4 2.95.36-1.6.72-2.81.91-4 .81-5.08 1.94-10.1 2.95-15.14 1.22-6.08 2.3-12.19 3.07-18.34 1.66-13.09 3.65-26.16 4.52-39.29.25-3.7.63-7.41.88-11.13.14-2.09.14-4.21.21-6.32l.13-5.11.14-.04Zm-1.09.81c-.13 3.83-.18 7.68-.39 11.51-.18 3.47-.49 6.92-.8 10.38-.46 5-.96 9.99-1.5 14.97-.28 2.6-.74 5.16-1 7.75-.97 10.08-2.5 20.05-4.21 30.03-.08.48-.2.97-.29 1.4-.87 4.32-1.74 8.64-2.6 12.94-.36 1.88-.72 3.78-1.08 5.61h-.1V148c.39-6.82 1.09-13.6 2.01-20.36 1.7-12.41 3.39-24.81 5.07-37.22.15-1.16.34-2.33.51-3.51 1.23-9.02 2.44-18.05 3.65-27.08.2-1.53.38-3.06.56-4.59.13.67.18 1.35.15 2.03h.03Zm-.59-9.82c.25.78.33 1.6.22 2.41-.27 2.81-.66 5.61-.86 8.32-.27 3.83-.83 7.63-1.4 11.44-1.28 8.59-2.43 17.19-3.61 25.78-1.46 10.56-2.9 21.12-4.34 31.69 0 .31-.11.62-.17.91h-.18c.29-3.14.49-6.3.91-9.43.88-6.51 1.94-13.01 2.81-19.52.56-4.11.95-8.25 1.4-12.38.52-5.3.93-10.62 1.49-15.91.35-3.33.81-6.65 1.4-9.95.65-4.04 1.4-8.06 2.16-12.07-.03-.46.06-.87.13-1.29h.03Zm3.79 7.2a150.18 150.18 0 0 1 1.4 28.35l-.17 6.32c-.08 2.9 0 5.84-.28 8.73-.61 6.79-1.66 13.54-3.14 20.19-.76 3.13-1.26 6.33-2.08 9.44a329.24 329.24 0 0 1-3.8 13.4c-1.53 5.36-3.4 10.62-5.61 15.73-.34.77-.72 1.53-1.08 2.29-.15-.17-.25-.38-.31-.59-.06-.22-.07-.45-.04-.67.13-.49.31-.96.55-1.4 1.13-2.48 2.04-5.05 2.72-7.69.94-3.4 2.03-6.75 3-10.15.97-3.4 2.01-6.9 2.81-10.4s1.4-7.17 2.18-10.74c1.25-5.55 2.14-11.18 2.67-16.84.15-1.73.18-3.47.38-5.19.91-7.57 1.22-15.2.93-22.82-.17-6.26-.85-12.5-2.02-18.65-.54-2.77-.65-5.61-.32-8.42.1.13.19.28.25.43.69 2.81 1.49 5.74 1.95 8.67h.03Zm-8.42 92.38c-.51 1.22-1.18 2.37-1.98 3.42.8-2.68 1.7-5.3 2.53-7.96 1.22-3.96 2.46-7.93 3.55-11.93.79-2.81 1.4-5.78 2.01-8.69 1.11-4.32 1.97-8.7 2.57-13.12.21-1.98.6-3.93.81-5.89.32-2.89.72-5.8.81-8.69.2-5.61.27-11.23.27-16.73 0-4.01-.2-8.04-.31-12.07 0-.95 0-1.89-.1-2.81.18.46.33.93.45 1.4 2.36 12.75 2.96 25.77 1.78 38.69a130.49 130.49 0 0 1-4.13 22.09c-2.23 7.6-5 15.04-8.28 22.26h.01Zm26.3-33.41c-1.12 1.5-2.22 3.05-3.4 4.49-7.8 9.61-15.06 19.65-21.74 30.07-.26.37-.55.72-.86 1.05.4-1.07.87-2.11 1.4-3.12.9-1.54 1.92-3.03 2.96-4.49 4.69-6.55 9.43-13.07 14.03-19.65 2.03-2.81 4.31-5.43 6.82-7.83.24-.2.49-.38.76-.53h.01Zm10.56-27.11c.43 2.32.43 4.7 0 7.02v-7.02Zm1.69.63c.38-3.51.84-7.02 1.14-10.54.46-5.82 1.5-11.56 2.53-17.3.74-4.08 1.66-8.14 2.54-12.19.66-3.03 1.28-6.06 2.11-9.05 1.31-4.66 2.81-9.25 4.21-13.89 1.05-3.83 2.35-7.58 3.9-11.23.17-.38.38-.73.56-1.09.05 1.05-.06 2.11-.34 3.13-.56 2.29-1.16 4.57-1.71 6.86-.98 3.97-1.92 7.94-2.89 11.91-.84 3.49-1.74 7.02-2.3 10.54-.67 4.16-1.57 8.28-2.69 12.34-1.48 5.19-2.59 10.47-3.33 15.82-.13.98-.24 1.98-.45 2.95-1.25 6.19-2.53 12.39-3.79 18.58h-.2c.18-2.27.45-4.48.7-6.82h.01ZM291.85 19c-.04.4-.13.79-.25 1.16-1.4 3.68-2.93 7.37-4.48 11.02-.94 1.96-1.66 4.01-2.16 6.12-.24 1.47-.56 2.92-.97 4.35a48.31 48.31 0 0 0-1.75 8.93c-.36 3.4-.77 6.78-1.12 10.17-.48 4.81-.95 9.63-1.33 14.44-.29 3.68-.46 7.37-.67 11.06a1.5 1.5 0 0 1-.17-.46 96.698 96.698 0 0 1-.11-23.86c.34-2.46.74-4.91 1.21-7.34.69-3.59 1.4-7.2 2.2-10.75 1.87-7.39 4.48-14.58 7.8-21.44.52-1.21 1.19-2.29 1.8-3.4h.01Zm6.54-10.44c-.25.66-.51 1.32-.77 1.98-1.22 3.12-2.58 6.17-3.63 9.35-1.74 5.23-3.31 10.52-4.87 15.82-.86 2.9-1.6 5.85-2.27 8.81-.8 3.56-1.4 7.18-2.23 10.74-1.31 5.43-1.95 10.97-2.9 16.47-.08.49-.1.98-.15 1.47-.35 3.74-.7 7.45-1.07 11.11-.07.6-.2 1.21-.28 1.81-.2-1.61-.23-3.24-.08-4.86.32-4.7.59-9.42 1.05-14.1.59-5.92 1.33-11.83 2.05-17.74.2-1.6.49-3.19.83-4.76.42-2.01.97-3.97 1.4-5.98.56-2.6 1.4-5.14 2.5-7.56 1.11-2.43 2.08-4.91 3.07-7.38 1.26-3.16 2.47-6.36 3.76-9.5.85-2.1 2.06-4.02 3.59-5.68h.01ZM301 4.88c0 1.17-.07 2.35-.24 3.51-1.07 7.49-2.15 14.97-3.24 22.45-.15 1.09-.31 2.2-.55 3.3-.74 3.51-1.53 7.02-2.27 10.54-1.31 6.06-3.14 11.99-5.49 17.72-.73 1.78-1.4 3.59-1.95 5.42-.72 2.3-1.32 4.64-1.98 7.02h-.21c-.01-.18-.01-.36 0-.53.58-4.93 1.48-9.81 2.71-14.62.35-1.32.8-2.61 1.14-3.93 1.27-4.92 2.27-9.91 2.99-14.95.11-.73.31-1.4.49-2.18.83-3.31 1.7-6.61 2.5-9.92.69-2.81 1.28-5.61 1.95-8.32.98-3.46 1.76-6.97 2.34-10.52.19-1.78.79-3.48 1.77-4.98h.04Zm-19.64 90.28.83-3.58-.88 1.08c.53-2.51.91-4.74 1.49-6.93 1.18-4.42 2.53-8.81 3.7-13.23 1.02-4.02 2.38-7.95 4.07-11.75.4-.92.76-1.85 1.07-2.81 1.69-4.93 3.1-9.94 4.21-15.03 1.26-5.75 2.37-11.54 3.1-17.39.66-5.22 1.25-10.46 1.88-15.69 0-.65.18-1.29.28-1.94.35 2.08.46 4.2.32 6.3-.39 5.26-1.52 10.41-2.33 15.62 0 .18-.08.37-.13.55-.57 2.81-1.14 5.65-1.71 8.55-.08.43-.15.86-.24 1.29-.51 2.29-.98 4.59-1.5 6.89-.39 1.75-.83 3.49-1.24 5.24-.59 2.47-1.16 4.94-1.77 7.41-.6 2.47-1.07 5.1-1.89 7.55-2.16 6.46-4.49 12.85-6.75 19.28-.21.58-.36 1.18-.53 1.77.38-.62.71-1.27 1.01-1.94 1.4-3.72 2.67-7.47 4.04-11.23 1.96-4.89 3.47-9.94 4.52-15.1.23-1.53.56-3.05.98-4.55 1.4-4.93 2.46-9.98 3.52-15 .91-4.31 1.66-8.64 2.48-12.97.39-2.05.81-4.1 1.23-6.15.03 1.64-.02 3.29-.17 4.93-.25 2.9-.59 5.8-.88 8.7-1 9.69-2.81 19.27-5.42 28.66a133.829 133.829 0 0 1-12.63 30.69c-.2.25-.41.49-.65.72l-.03.06Zm-3.48 5.98c.41-1.88.86-3.86 1.29-5.84-.06 4.27-.15 4.62-1.26 5.84h-.03Zm13.1-7.38c2.6-2.4 5.19-4.77 7.8-7.14 1.04-.94 2.1-1.84 3.19-2.81.1.18.15.25.14.28-.97 1.93-2.16 3.73-3.56 5.36 0 .29 0 .66-.1.84-.44.59-.96 1.11-1.54 1.56-4.34 2.89-8.69 5.73-13.04 8.56-.43.24-.87.45-1.33.62l-1.96 1.14c.48-.61 1.14-1.05 1.89-1.23 3.06-2.16 6.13-4.31 9.18-6.5 1.25-.88 2.44-1.84 3.65-2.81-.45.16-.88.35-1.3.56-1.18.72-2.34 1.4-3.51 2.22.15-.25.33-.49.53-.7l-.03.06Zm10.72-3.95c.03.22.03.45 0 .67-.51 3.13-1 6.24-1.49 9.37-.17 1.04-.27 2.09-.49 3.12-1.65 6.75-3.64 13.4-5.98 19.94-2.02 5.92-4.42 11.72-6.62 17.57-2.8 7.16-4.92 14.57-6.32 22.13-.46 2.69-1.15 5.33-1.82 7.98-.95 3.77-1.99 7.54-3.03 11.45 0-.56 0-1.05.11-1.54.42-4.07.79-8.15 1.29-12.21.35-2.81.88-5.61 1.4-8.42.67-3.91 1.61-7.78 2.81-11.56 1.4-4.57 3.31-8.94 4.7-13.51 1.66-5.44 3.75-10.76 5.33-16.25 1.09-3.73 2.65-7.34 3.78-11.09 1.75-6.02 4.18-11.8 6.36-17.65h-.03Zm-8.94-.78c2.1-2.44 4.21-4.84 6.31-7.31 4.57-5.47 8.94-11.11 13.95-16.21 2.18-2.2 4.32-4.45 6.39-6.76 7.45-8.32 15.25-16.31 23.13-24.21.9-.9 1.84-1.73 2.81-2.6-.29.57-.63 1.11-1.01 1.61-2.63 3.13-5.27 6.25-7.93 9.36-4.64 5.42-9.44 10.69-14.03 16.21-4.98 6.15-10.19 12.12-15.8 17.74-3.34 3.4-6.92 6.58-10.37 9.82-.45.48-.86 1-1.25 1.53-.53.36-1.09.7-1.6 1.11-.95.76-1.88 1.54-2.81 2.32.74-.74 1.49-1.73 2.25-2.61h-.03Zm11.88-7.9c8.35-7.31 16.17-15.2 23.41-23.62 7.37-8.42 14.27-17.14 21.32-25.82l-.91 1.51c-1.68 2.68-3.47 5.29-5.01 8.04-3.12 5.51-6.64 10.78-10.53 15.77-2.98 3.8-6.2 7.41-9.42 11.03-1.69 1.9-3.5 3.69-5.42 5.36-3.75 3.24-7.62 6.36-11.45 9.51-.32.25-.66.48-1.01.69-.29-.8-.58-1.5-.95-2.54l-.03.06Zm45.63-55.42c-.44.5-.9.97-1.4 1.4-.88.74-1.87 1.4-2.81 2.13-.35.32-.67.68-.95 1.05.27.8-.44 1.09-.83 1.49-9.11 8.94-17.85 18.24-26.57 27.53C310.27 67.28 303 75.38 296.32 84c-.69.88-1.4 1.7-2.22 2.51-.32.28-.66.53-1.02.74l-.45.7-.44.34s-.08.08-.11.08l-.22-.14a.442.442 0 0 0-.32 0l.42-.67.41-.74c1.32-1.87 2.62-3.75 3.97-5.61 1.89-2.6 3.83-5.18 5.73-7.79 4.19-6.08 8.82-11.85 13.85-17.25a447.26 447.26 0 0 1 16.97-16.45c4.96-4.69 10.22-9.05 15.75-13.05.51-.35 1.04-.66 1.56-.98h.08Zm.44 2.4c-5.02 6.44-10.01 12.94-15.16 19.28A263.938 263.938 0 0 1 307.2 77.8c-.03-.07-.08-.13-.14-.18s-.14-.07-.21-.07c.11-.14.23-.28.35-.41 5.02-5.3 10.02-10.64 14.62-16.32 2.5-3.09 5.11-6.06 7.69-9.08 5.52-6.46 11.02-12.91 16.59-19.31 1.91-2.22 3.99-4.31 5.98-6.44-.4.74-.85 1.44-1.35 2.12h-.03Zm-45.26 58.01c0-.56-.1-1.02-.13-1.4 4.13-3.33 8.2-6.48 12.11-9.82 2.4-2.03 4.6-4.32 6.83-6.55 1.23-1.22 2.3-2.6 3.48-3.87 5.48-6.08 10.32-12.7 14.44-19.77 3.01-5 6.03-9.98 9.05-14.95.13-.18.27-.35.44-.49-.08.34-.19.67-.32.98-1.75 3.56-3.49 7.11-5.26 10.67a112.001 112.001 0 0 1-22.68 31.11 168.38 168.38 0 0 1-17.11 13.71c-.27.15-.54.28-.83.39h-.03Zm-24.75 95.43c5.22-15.94 10.47-31.86 17.84-47.19.02.26.02.51 0 .77-.2.79-.41 1.56-.6 2.34-2.16 8.41-4.97 16.63-8.42 24.6-2.61 6.15-5.07 12.38-8.17 18.33-.15.44-.39.81-.62 1.19l-.03-.04Zm-1.27 1.01h-.24c.44-1.92.83-3.85 1.4-5.75 1.04-3.94 2.13-7.89 3.23-11.83 1.01-3.57 2.35-7.05 3.99-10.38 1.89-3.9 3.77-7.82 5.42-11.82a170.91 170.91 0 0 0 7.68-25.41c.11-.46.29-.9.45-1.4.15.32.19.69.13 1.04-.34 2.9-.72 5.8-1.01 8.69-.24 2.1-.77 4.15-1.56 6.1-.42 1.04-.83 2.08-1.29 3.09-3.37 7.45-6.64 14.93-9.43 22.62-2.13 5.88-4.13 11.82-6.17 17.72-.9 2.48-1.71 4.94-2.55 7.38l-.03-.04Zm-4.21 9.99c.34-2.23.76-4.42 1.01-6.62.44-3.63 1.17-7.22 2.2-10.74 1.4-4.72 2.51-9.47 3.42-14.29a99.886 99.886 0 0 1 4.66-16.63c1.98-5.28 3.99-10.55 6.08-15.79 2.09-5.23 3.72-10.9 5.47-16.39a82.504 82.504 0 0 0 3.51-16.15c.1-.93.31-1.84.42-2.81.28-2.09.53-4.21.8-6.27 0-.34.13-.67.2-1.01h.39v.9c-.21 3.34-.39 6.68-.63 10.02-.13 1.85-.45 3.7-.49 5.61a68.53 68.53 0 0 1-2.12 15.27c-1.4 5.77-3.16 11.47-4.87 17.16-1.7 5.38-3.86 10.61-6.44 15.63-.77 1.54-1.53 3.12-2.32 4.66a51.443 51.443 0 0 0-3.85 10.64c-.88 3.49-1.85 6.95-2.69 10.44-.94 3.86-1.78 7.73-2.69 11.59a13.64 13.64 0 0 1-2.03 4.81l-.03-.04Zm0-5.71-.49 3.97h-.15c.13-1.07.25-2.13.39-3.2 0-.27.1-.52.14-.77h.11Zm-1.95 7.13c-.13-.91 0-1.78 0-2.64-.1-4.53.14-9.05.7-13.54.41-5.18 1.22-10.34 1.84-15.51.42-3.51.77-7.02 1.22-10.54.43-4.19 1.22-8.34 2.36-12.41.93-3.02 2.01-5.99 2.88-9.04.75-2.62 1.78-5.15 3.07-7.55 1.37-2.65 2.59-5.36 3.66-8.14 1.26-3.16 2.81-6.2 4.11-9.35 1.27-3.1 2.79-6.09 4.56-8.94.46-.76.97-1.4 1.4-2.22-.07.45-.18.9-.34 1.33-1.63 3.76-2.81 7.68-4.1 11.55-1.73 5.25-3.52 10.45-5.3 15.68-1.4 3.93-2.72 7.84-4.07 11.76-.93 2.69-1.74 5.43-2.72 8.1a92.296 92.296 0 0 0-3.94 13.56c-.43 2.19-.88 4.38-1.22 6.58-.45 2.88-.83 5.75-1.18 8.64-.24 1.98-.35 3.96-.6 5.92-.63 4.8-1.31 9.58-1.96 14.37-.07.84-.21 1.63-.34 2.41l-.03-.04Zm19.27-89.25c-.6 1.28-1.22 2.55-1.8 3.86-.95 2.15-1.87 4.31-2.81 6.48-.81 1.88-1.52 3.8-2.43 5.61a65.217 65.217 0 0 0-4.35 10.65c-1.51 4.52-2.78 9.12-3.8 13.78a156.23 156.23 0 0 0-2.19 16.97c-.23 3.59-.66 7.16-1.29 10.69-.29 1.71-.42 3.45-.56 5.18-.18 2.37-.31 4.74-.46 7.11-.19-.44-.3-.92-.32-1.4-.13-3.16-.27-6.32-.31-9.47-.08-2.66-.03-5.33.17-7.98.52-6.18 1.43-12.33 2.71-18.4.59-3.04 1.37-6.04 2.32-9 3.1-9.16 6.75-18.13 10.92-26.86 1.22-2.5 2.54-4.95 3.8-7.44l.41.21Zm-21.27 94.34a5.682 5.682 0 0 1-1.88 3.7c-5.15 5.12-10.22 10.31-15.44 15.44a631.76 631.76 0 0 1-13.19 12.63c-2.68 2.48-5.53 4.79-8.28 7.2-5.5 4.83-11.07 9.58-16.97 13.92-7.78 5.73-15.61 11.42-23.48 17.06-9.04 6.47-18.34 12.52-27.8 18.34-7.8 4.83-15.84 9.26-23.86 13.7-6.2 3.53-12.68 6.55-19.37 9.04a57.431 57.431 0 0 0-8.9 4.21 69.919 69.919 0 0 1-10.33 4.66c-2.1.76-4.21 1.56-6.29 2.29-.79.27-1.6.43-2.4.65.24-.24.51-.46.79-.66 2.64-1.61 5.28-3.24 7.94-4.83 8.11-4.81 16.04-9.82 23.65-15.44a358.73 358.73 0 0 0 31.63-25.93 247.91 247.91 0 0 0 19.97-20.26c.65-.76 1.4-1.4 2.08-2.13 1.49-1.81 2.81-3.72 4.41-5.5 3.78-4.69 8.25-8.79 13.25-12.15.71-.5 1.38-1.06 2.01-1.66.47-.48.98-.91 1.53-1.29 1.65-.98 3.37-1.85 5.14-2.6 3.86-1.52 7.77-2.93 11.7-4.21 6.68-2.14 13.16-4.85 19.37-8.11 4.75-2.57 9.19-5.67 13.22-9.26a109.6 109.6 0 0 0 14.29-16.14c.11-.15.21-.3.29-.46.21-.48.11-.84-.49-1.12l-1.11.42c-1.15.48-2.27 1.01-3.42 1.4-5.52 2.08-11.04 4.11-16.55 6.19a50.885 50.885 0 0 0-9.47 4.76l-10.03 6.39c-5.14 3.27-10.09 6.79-14.88 10.55a63.982 63.982 0 0 0-9.37 8.42c-.5.5-1.03.97-1.59 1.4.15-.37.33-.73.53-1.08 5.18-8.01 10.36-16.03 15.53-24.05 1.68-2.61 3.37-5.22 4.9-7.91 5.47-9.58 10.99-19.14 16.28-28.82 6.16-11.4 12.93-22.47 20.28-33.15 5.29-7.65 10.67-15.24 16.48-22.45 1.4-1.74 2.81-3.44 4.31-5.12.28-.33.61-.63.97-.87 1.56-1.01 3.12-2.03 4.7-3.02l13.04-7.9c.73-.45 1.4-.95 2.12-1.4-.99 2.61-2.14 5.15-3.44 7.62-5.28 9.9-10.03 20.07-14.23 30.48-1.4 3.4-2.65 6.82-3.7 10.31-1.21 4.15-2.14 8.36-2.81 12.63-1.08 5.6-1.62 11.3-1.61 17.01 0 5.63.38 11.26 1.11 16.84.28 2.28.28 4.58 0 6.86-.11 1.14-.58 2.26-.67 3.42h.06ZM358.5 47.05c-.11.39-.25.78-.41 1.15-1.02 2.33-2.12 4.63-3.09 7.02-2.34 5.74-4.72 11.46-6.89 17.26-.93 2.76-1.71 5.57-2.33 8.42-.93 3.66-1.75 7.35-2.64 11.03-.36 1.5-.72 3.02-1.15 4.5-1.4 4.88-2.81 9.82-4.21 14.64-.46 1.94-1.12 3.82-1.98 5.61.6-4.21 1.18-8.42 2.06-12.48 1.32-6.05 2.81-12.05 4.29-18.09 1.55-6.45 3.52-12.79 5.91-18.97 2.8-6.83 6.18-13.4 10.12-19.65.09-.16.19-.31.31-.45Zm-18.49 58.83.55-1.32-.28 1.4-.27-.08Zm26.67-70.57c-.02.16-.06.32-.11.48-1.5 3.59-2.98 7.21-4.55 10.78-2.2 5-4.34 10.01-6.19 15.14-2.53 7.02-5.05 14.03-7.41 21.05-1.75 5.22-3.68 10.4-5.61 15.58-.5 1.4-1.09 2.74-1.66 4.11.15-.73.29-1.4.49-2.18.58-2.09 1.22-4.21 1.75-6.24.46-1.8.79-3.63 1.24-5.43.55-2.22 1.15-4.43 1.74-6.64.79-2.99 1.4-6.05 2.43-8.95 1.99-5.53 4.21-10.99 6.39-16.43 2.69-6.92 6.12-13.54 10.23-19.73.48-.55.91-1.02 1.32-1.53h-.06Zm7.31-10.75c-.06.47-.15.94-.27 1.4-2.89 8.42-5.68 16.84-8.72 25.26-3.38 9.37-7.02 18.69-10.54 28-1.4 3.75-3.16 7.41-4.74 11.1-3.31 7.68-6.65 15.34-9.94 23.03-1.23 2.91-2.41 5.84-3.52 8.78-.65 1.73-1.14 3.52-1.68 5.28-.1-1.29.06-2.59.48-3.82 1.78-5.35 3.54-10.69 5.36-16.03 2.34-6.79 4.74-13.56 7.12-20.33 2.16-6.2 4.21-12.42 6.51-18.59 1.98-5.47 4.03-10.92 6.19-16.32 1.87-4.72 3.89-9.39 5.94-14.03 1.4-3.05 2.81-6.06 4.36-9.02.87-1.77 2.06-3.36 3.51-4.7h-.06Zm.9-.07c-.24 3.75-.73 7.44-1.29 11.1-.23 1.97-.6 3.93-1.11 5.85-1.6 5.4-3.16 10.83-5.11 16.11-3.99 10.75-8.27 21.39-13.15 31.77-.35.77-.57 1.61-.87 2.43.26-.33.5-.68.72-1.05 2.89-6.02 5.74-12.07 8.18-18.24 2.27-5.77 4.55-11.52 6.75-17.3.8-2.09 1.4-4.21 2.15-6.36.15.3.18.64.08.96-.74 2.68-1.4 5.37-2.27 8.03-1.32 4.21-2.72 8.49-4.11 12.73-1.26 3.87-2.39 7.82-3.89 11.61-2.51 6.34-5.18 12.63-7.93 18.83-3.27 7.37-7.26 14.37-11.14 21.41-1.08 1.95-2.39 3.77-3.62 5.61-.32.39-.69.76-1.08 1.08 2.09-4.04 3.93-8.21 5.51-12.48.5-1.4.94-2.81 1.4-4.21-.39.62-.73 1.27-1.02 1.94-2.29 6.3-5.11 12.41-8.42 18.24-.35.63-.73 1.25-1.11 1.88-.14-.36-.14-.76 0-1.12.55-1.77 1.12-3.54 1.64-5.32 1.44-4.94 3.2-9.78 5.26-14.5 4.52-10.19 9.15-20.35 13.36-30.68 4.5-11.07 8.64-22.3 12.77-33.53 2.36-6.39 4.36-12.91 6.54-19.37.57-1.9 1.21-3.66 1.81-5.43h-.06Zm-11.66 69.55v-.15c2.86-5.69 5.29-11.59 7.28-17.64.02-.03.04-.07.04-.11s-.01-.08-.04-.11c.21-.66.41-1.32.6-1.99 1.6-5.53 2.85-11.15 3.75-16.84.6-3.66 1.29-7.32 1.94-10.97.07.6.07 1.21 0 1.81-.35 2.89-.71 5.78-1.08 8.67-.79 6.03-2.05 11.98-3.76 17.81a79.187 79.187 0 0 1-7.55 17.93c-.34.55-.72 1.08-1.12 1.59h-.06Zm-10.25 16.6c.18-.48.39-.95.63-1.4 3.04-5.4 5.8-10.95 8.25-16.64a103.7 103.7 0 0 0 4.52-12.78c1.49-4.86 2.81-9.74 4.21-14.64.9-3.21 1.7-6.47 2.51-9.71 1.15-4.63 2.32-9.26 3-14.03.52-3.52 1.12-7.02 1.7-10.53.04 1.92-.04 3.84-.25 5.75-.34 2.71-.84 5.39-1.26 8.08-.13.73-.22 1.47-.35 2.2-.76 4.39-1.53 8.8-2.3 13.19-.1.55-.21 1.1-.32 1.64-.73 4.03-1.73 7.98-2.81 11.93-.5 1.88-1.04 3.75-1.66 5.61-1.66 4.35-3.46 8.64-5.42 12.87-.18.27-.35.56-.49.86-1.05 2.09-2.01 4.21-3.11 6.32a91.423 91.423 0 0 1-6.79 11.28h-.06Zm-18.54 25.6c-.54.79-1.28 1.43-2.15 1.84.41-.83.65-1.4.95-1.89.59-.95 1.16-1.91 1.81-2.81 2.76-3.51 5.29-7.19 7.58-11.03 1.18-2.19 2.37-4.36 3.54-6.55 3.5-6.28 6.68-12.74 9.53-19.34 2.81-6.82 6.02-13.46 8.14-20.54 1.71-5.7 3.55-11.35 5.26-17.05 1.11-3.68 2.14-7.37 3.07-11.09.93-3.66 1.84-7.34 2.5-11.06.93-5.19 1.61-10.41 2.43-15.62.11-.45.26-.89.43-1.32l.46.13c.11 1.96.07 3.93-.1 5.89-.43 3-.94 6.01-1.4 9.01-.63 4.42-1.4 8.83-2.4 13.16-1.4 5.61-2.67 11.23-4.21 16.84-1.31 4.91-2.81 9.82-4.21 14.62-1.5 5.3-3.38 10.49-5.61 15.52-2.33 5.35-4.99 10.54-7.99 15.55-5.56 8.74-11.25 17.46-17.58 25.74h-.06Zm70.37-65.27c.14-.31.3-.61.48-.9 5.35-7.36 10.14-15.11 14.34-23.18.21-.42.46-.83.88-1.57-.03.3-.09.6-.17.9a86.073 86.073 0 0 1-14.4 23.7c-.35.38-.73.73-1.14 1.05Zm-24.93 25.26c-.5.41-1.03.79-1.59 1.12.12-.25.26-.5.42-.73 5.15-6.48 10.29-12.97 15.44-19.45.39-.54.74-1.11 1.05-1.7-.35.22-.68.49-.97.79-1.9 2.3-3.76 4.6-5.61 6.92l-11.56 14.31c-.25.28-.53.53-.81.77 1.01-2.06 2.18-3.96 3.24-5.91 1.85-3.38 3.89-6.66 6.1-9.82 4.24-6.03 8.45-12.08 12.63-18.15 3.47-4.99 6.88-10 10.32-15.01 1.4-2.09 2.97-4.13 4.32-6.27 4.45-7.09 8.83-14.2 13.25-21.3.29-.44.61-.85.96-1.25-.06.34-.15.68-.27 1.01-1.25 2.88-2.46 5.79-3.83 8.63-1.81 3.72-3.75 7.38-5.61 11.03-1.4 2.57-2.81 5.08-4.21 7.62-.2.46-.38.93-.53 1.4.32-.27.6-.58.86-.91.84-1.4 1.68-2.81 2.44-4.21 2.15-4.06 4.32-8.1 6.37-12.19 1.61-3.2 3.06-6.48 4.59-9.74.21-.45.43-.9.66-1.4-.13 1.56-.41 3.1-.83 4.6-.74 2.81-1.4 5.68-2.37 8.42a140.536 140.536 0 0 1-19.1 34.12 198.72 198.72 0 0 1-25.36 27.31h.01Zm40.42-66.18c-4.32 7.02-8.66 14.13-13.57 20.82-1.4 1.9-2.81 3.82-4.04 5.78a606.428 606.428 0 0 1-16.67 23.97c.19-.6.43-1.19.7-1.75 2.62-4.7 5.21-9.42 7.94-14.03 1.95-3.3 4.01-6.54 6.2-9.68 5.04-7.27 10.19-14.47 15.32-21.68 1.75-2.42 3.75-4.66 5.95-6.68-.62 1.07-1.19 2.18-1.89 3.26h.06Zm45.93 72.63c-4.1-1.4-8.22-2.71-12.36-3.99-1.95-.6-4.01-.87-5.94-1.56a45.892 45.892 0 0 0-11.83-2.23l-13.08-1c.14-.09.3-.15.46-.18 2.11 0 4.21-.13 6.32 0 3.47.2 6.92.56 10.39.83 1.4.11 2.96.11 4.45.25 1.16.1 2.32.32 3.48.52l2.37.46c-.08-.08-.15-.22-.25-.25-1.98-.72-4.07-1.12-6.17-1.18-.87 0-1.74 0-2.6-.13l-12.39-1.08c-.56-.04-1.11-.04-1.67 0l-11.32.45-7.8.36c.19-.14.4-.26.62-.36 2.79-.85 5.65-1.42 8.55-1.71 2.72-.22 5.44-.38 8.15-.62 2.72-.2 5.45-.14 8.15.2 5.36.55 10.66 1.63 15.82 3.21 1.78.4 3.49 1.08 5.07 2.01l-1.63-.2c.2.13.38.35.6.38 2.39.56 4.74 1.32 7.02 2.26 5.28 1.78 10.6 3.47 15.89 5.19.38.13.73.31 1.11.46-.41.19-.86.26-1.31.21a38.04 38.04 0 0 1-10.09-2.32h.01Zm-8.87.7c-1.06-.33-2.15-.59-3.26-.76-4.56-.51-9.05-1.4-13.57-2.15-4.52-.74-8.83-1.28-13.25-1.89-1.11-.15-2.22-.32-3.33-.38-6.62-.28-13.25-.17-19.86.32-2.64.18-5.26.59-8.32.94 2.59-1.01 5.28-1.77 8.01-2.27 2.98-.56 5.96-1.08 8.95-1.61 3.77-.74 7.62-1 11.47-.8 3.2.22 6.43.34 9.63.66 3.53.22 7.03.72 10.48 1.5 1.61.42 3.2.95 4.81 1.4 3.14.9 6.33 1.73 9.46 2.69 3.49 1.07 6.93 2.26 10.4 3.41-3.92.36-7.86 0-11.65-1.07h.01Zm15.99 2.43c-.24.06-.47.1-.71.13-3.47.2-6.92.43-10.38.56-3.28.2-6.58.04-9.82-.49-1.83-.34-3.65-.72-5.47-1.05-2.81-.49-5.61-.98-8.42-1.4-3.04-.49-6.1-1.09-9.18-1.4-5.18-.49-10.39-.79-15.58-1.12-1.4-.08-2.81 0-4.21 0-4.58.27-9.13.84-13.64 1.68-4.52.72-9.04 1.52-13.56 2.29-.59.18-1.22.14-1.78-.1.09-.08.19-.14.29-.2a77.363 77.363 0 0 1 19.21-4.95c4.67-.63 9.38-.72 14.03-.88 3.65-.26 7.32-.21 10.96.15 5.04.65 10.09 1.25 15.13 1.89.8.1 1.59.24 2.39.36 2.99.49 5.99.95 8.98 1.49 1.95.34 3.9.66 5.82 1.15 3.31.82 6.7 1.24 10.1 1.26 1.98 0 3.94.15 5.91.24l-.07.39Zm-88.3-.43h2.67c-.4.25-.87.38-1.34.38s-.94-.13-1.34-.38h.01Zm53.04 1.32c-1.73-.17-3.45-.22-5.18-.36-3.96-.32-7.9-.73-11.86-1-5.12-.35-10.26-.56-15.44-.91-3.64-.3-7.3-.3-10.95 0-.84.05-1.68.05-2.53 0 .12-.15.28-.28.45-.37.17-.09.36-.15.56-.16 3.06-.48 6.12-.95 9.19-1.4 4.53-.7 9.14-.85 13.71-.45 3.33.32 6.67.44 10.01.67 2.47.17 4.95.27 7.41.63 4.21.63 8.42 1.4 12.63 2.19.62.1 1.22.21 1.82.35 4.1.99 8.31 1.46 12.53 1.4h1.67c.49-.06.98-.06 1.47 0l-2.24.41-9.64.41c-2.72.17-5.45-.06-8.11-.67-1.82-.39-3.67-.63-5.53-.73h.01Zm-.47 7.32c2.22 0 4.46.11 6.68 0 7.49-.5 14.92-1.58 22.24-3.21.73-.15 1.4-.21 2.23-.31-1.53.52-3.05 1.16-4.6 1.54-9.71 2.62-19.71 3.96-29.76 4a83.856 83.856 0 0 1-18.24-2.53c1.12.08 2.22.27 3.32.35 2.29.17 4.58.38 6.86.39 3.72-.03 7.47-.18 11.26-.24h.01Zm-21.05-1.21c-2.19-.41-4.36-.91-6.51-1.52-1.54-.43-2.99-1.25-4.55-1.61-4.88-1.16-9.82-2.19-14.69-3.26l-1.4-.25c2.97-.95 6.14-1.1 9.19-.44 3.19.79 6.42 1.38 9.68 1.77 1.4.14 2.71.36 4.06.6l11.52 2.05c1.71.31 3.41.65 5.14.9 1.39.24 2.8.39 4.21.46 2.67.07 5.33.08 8 0 5.45-.08 10.89-.55 16.28-1.4.59-.14 1.16-.32 1.73-.53-.37-.03-.74-.03-1.11 0-4.64.74-9.33 1.18-14.03 1.31-3.15.19-6.32.22-9.47.08-3.4-.22-6.78-.79-10.15-1.31-5.75-.94-11.5-1.87-17.25-2.81a40.93 40.93 0 0 1-8.25-1.88c3.42.07 6.82.25 10.22.43 4.77.27 9.54.52 14.3.8 2.81.17 5.61.36 8.42.59 2.34.17 4.69.36 7.02.6 1.41.11 2.82.29 4.21.55 2.3.52 4.66.77 7.02.73 2.72-.13 5.45-.15 8.17-.35h1.84s.1.01.14 0h.24a7.73 7.73 0 0 0 2.13-.36h2.33c1.32-.08 2.62-.22 3.94-.34l1.11-.24v.38l4.91-1c.61-.19 1.26-.25 1.9-.15.63.09 1.24.33 1.77.7-2.58.7-5.08 1.4-7.61 2.06-7.04 1.74-14.2 2.99-21.41 3.72-2.53.27-5.07.45-7.59.51-4.34.1-8.67 0-13.01.11-4.18.15-8.35-.16-12.46-.91h.04Zm-16.18-3.46c2.61.14 5.14.88 7.42 2.15l-7.42-2.15Zm-16.84-3.09c.91.14 1.84.21 2.81.34l6.79 1-14.03-.94c1.4-.53 2.93-.64 4.39-.32l.04-.07Zm-6.33-1.33-.15-.35c12.29-5.88 24.92-10.57 38.89-10.26-.19.11-.41.18-.63.2-3.54.63-7.02 1.24-10.61 1.91-2.02.35-4.01.82-5.98 1.4-5.79 1.81-11.56 3.7-17.33 5.61-1.46.41-2.83.97-4.22 1.49h.04Zm-4.58-.79c.75-1.01 1.55-1.98 2.4-2.9.99-.94 2.03-1.82 3.12-2.64 1.08-.88 2.16-1.74 3.26-2.61-.09.2-.2.38-.34.55-2.47 2.36-4.93 4.7-7.41 7.02-.33.25-.68.44-1.07.59h.04Zm53.85-84.48c-.41 1.06-1 2.04-1.75 2.89-2.34 2.65-4.74 5.24-7.09 7.89-.83.93-1.57 1.92-2.3 2.92-3.9 5.51-7.8 11.02-11.7 16.54a228.48 228.48 0 0 0-14.03 22.33c-4.15 7.54-8.32 15.08-12.5 22.61-1.54 2.81-3.24 5.4-4.87 8.11l-.34-.17c1.4-2.88 2.81-5.77 4.32-8.6 3.28-6.19 6.64-12.34 9.93-18.51.53-.98 1.05-1.98 1.52-2.99a90.49 90.49 0 0 1 5.16-9.67c1.6-2.65 3.12-5.36 4.77-7.97 1.81-2.89 3.65-5.77 5.61-8.55 3.27-4.59 6.65-9.11 10.01-13.64a62.55 62.55 0 0 1 12.49-12.63c.23-.2.48-.39.73-.56h.04Z"/></svg>