<svg xmlns="http://www.w3.org/2000/svg" viewBox="0 0 242.12 345.13"><path fill="#c8e0d6" d="M105.05 97.62c-.45-.52-.83-1.09-1.24-1.66l15.31 12.11c7.51 6.08 15.49 11.55 23.86 16.36 14.63 8.36 30.75 13.8 47.46 16 7.97 1.01 15.94 2.09 23.93 3.14.62.08 1.25.31 1.81-.17.29-.66-.2-.93-.59-1.23-2.64-2.02-5.22-4.13-7.94-6.02-6.02-4.21-12.04-8.42-18.24-12.42a216.311 216.311 0 0 0-27.42-14.92 70.607 70.607 0 0 0-12.07-4.34c-3.78-.97-7.56-1.82-11.37-2.71-6.09-1.4-12.28-2.53-18.24-4.31-6.29-1.68-12.45-3.84-18.41-6.47-1.04-.51-2.05-1.05-3.07-1.59-1.74-.95-3.32-2.17-4.69-3.61-8.77-9.21-17.74-18.24-27.08-26.85-6.53-6.02-13.15-11.94-19.98-17.61-7.58-6.27-15.04-12.63-22.54-19.07-3.79-3.23-7.61-6.44-11.23-9.82a42.835 42.835 0 0 1-8.2-10.54C4.77 1.29 4.38.71 4.07.21 3.31.09 2.53.23 1.85.59L.32 0C.18.23-.01.39 0 .52c.07.48.18.95.32 1.42.19.54.34 1.09.45 1.64.06.55.23 1.09.51 1.57s.65.9 1.09 1.24c7.84 6.36 15 13.49 22.24 20.52 7.24 7.03 14.59 13.58 22.45 19.79 2.44 1.94 4.76 4.06 7.16 6.06 2.05 1.73 4.21 3.41 6.22 5.11.7.58 1.4 1.14 2.1 1.67a7.972 7.972 0 0 1 2.96 4.34c1 3.44 1.74 6.95 2.2 10.5 1 8.12 1.11 16.33.32 24.47-.48 5.33-.6 10.71-.8 16.07-.2 5.36-.35 11.1-.44 16.66 0 2.62 0 5.25.18 7.86.27 4.07.65 8.14 1.01 12.22.87 9.09 2.44 18.11 4.72 26.96 1.11 4.46 1.99 8.98 2.99 13.47.09.5.22.99.38 1.47.09.34.3.63.59.82.29.19.64.27.99.22.28-.27.55-.56.8-.86.13-.22.24-.46.32-.7 2.36-5.99 4.81-11.96 7.02-18a84.901 84.901 0 0 0 4.35-19.98c.88-7.04.93-14.16.15-21.22-.84-7.1-1.61-14.22-2.58-21.3a72.12 72.12 0 0 0-3.17-13.61c-2.26-6.64-4.21-13.42-7.02-19.84-.91-2.03-1.88-4.06-2.81-6.09-.31-.67-.52-1.4-.77-2.09 1.66 1.56 3.38 3.06 4.95 4.7 2.81 3 6.01 5.74 9.05 8.56 6.93 6.53 13.49 13.44 19.65 20.7 3.05 3.46 5.86 7.11 8.42 10.95a74.18 74.18 0 0 1 9.23 21.16 72.833 72.833 0 0 1 2.23 16.49c.2 7.41-.47 14.82-2.01 22.07-2.11 10.71-4.21 21.43-5.61 32.28a110.086 110.086 0 0 0 0 31.5c.49 3.09 1.12 6.16 1.74 9.22.15.79.31 1.7 1.4 1.74.73-.2.9-.76 1.08-1.31 2.86-8.33 5.72-16.67 8.56-25.01 2.32-7.41 3.97-15.02 4.93-22.73.85-5.17 1.43-10.38 1.73-15.6.27-6.64-.15-13.3-1.25-19.86-.41-2.46-.74-4.93-1.24-7.37a117.84 117.84 0 0 0-5.44-19.53c-.14-.35-.25-.72-.51-1.49.52.58.79.84 1.02 1.14 1.22 1.54 2.47 3.1 3.68 4.66.47.52.85 1.11 1.12 1.75.49 1.6 1.41 3.03 2.67 4.14 1.22 1.21 2.21 2.64 2.89 4.21 2.27 4.79 4.56 9.56 7.02 14.29 3.23 6.24 5.85 12.78 7.83 19.52.96 3.12 2.08 6.18 3.37 9.18 2.59 6.6 4.82 13.33 6.69 20.17.31 1.04.56 2.09.91 3.12 1.28 3.96 1.76 8.14 1.4 12.29-.17 2.1-.51 4.18-1 6.23-.63 2.99-1.29 6.01-2.15 8.94-1.07 3.68-2.22 7.34-3.58 10.92-3.14 8.25-5.24 16.85-6.26 25.61-.37 4.07-.37 8.17 0 12.24.38 5.87.84 11.73 1.32 17.58.15 1.91.42 3.82.67 5.71.08.69.29 1.4.45 2.08l1.11.22c.21-.21.39-.32.46-.49 1.91-4.86 4.23-9.56 6.92-14.03a73.615 73.615 0 0 0 7.7-19.96c.46-2.19.73-4.41.81-6.64.21-3.19.31-6.37.37-9.57.02-4.85-.3-9.7-.95-14.51-.21-1.68-.35-3.38-.48-4.67 2.11 6.93 3.5 14.47 6.02 21.72a84.133 84.133 0 0 0 7.23 15.62c5.15 8.53 10.91 16.68 17.22 24.39a255.414 255.414 0 0 0 29.68 30.96c.31.32.66.6 1.04.83.38.1.78.15 1.18.13.05-.4.05-.82 0-1.22a75.723 75.723 0 0 1-2.65-11.23c-.62-3.33-1.11-6.67-1.7-10.01-.36-2.13-.7-4.29-1.22-6.38-1.03-4.15-2.44-8.2-4.21-12.1a126.43 126.43 0 0 0-6.43-12.19 152.38 152.38 0 0 0-11.23-16.48c-6.55-8.27-13.5-16.19-20.54-24.04-4.8-5.3-9.17-10.98-13.07-16.98a32.996 32.996 0 0 1-4.86-12.18 186.83 186.83 0 0 0-12.8-42.25c-2.26-5.14-4.59-10.26-6.88-15.44-.2-.44-.31-.9-.46-1.4.44.5.84 1.02 1.21 1.57 3 5.21 6.01 10.4 8.94 15.63a218.076 218.076 0 0 0 19.65 29.88c6.92 8.47 14.63 16.27 23.03 23.27 9.64 8 20.11 14.96 31.22 20.74 1.68.9 3.47 1.61 5.21 2.41.25.19.56.27.86.25.31-.03.6-.17.8-.4-.09-.33-.23-.64-.42-.93-7.87-8.42-14.26-17.84-20.38-27.52-6.78-10.75-13.81-21.34-20.77-31.98a58.459 58.459 0 0 0-7.02-8.6c-6.53-6.79-13.36-13.21-21.5-18.06-3.13-1.87-6.37-3.54-9.56-5.29-1.96-1.07-3.93-2.15-5.91-3.19-3.23-1.82-6.25-4-8.98-6.51-.6-.57-1.12-1.22-1.53-1.94-1.74-2.81-3.42-5.68-5.12-8.55a227.142 227.142 0 0 0-19.35-27.81 33.06 33.06 0 0 0-2.67-3c-2.47-2.5-4.81-5.12-7.02-7.86-2.29-2.54-4.59-5.16-6.85-7.72Zm75.99 147.35c1.4 2.62 2.99 5.21 4.57 7.77 1.17 1.88 2.39 3.72 3.62 5.53l.08.13c.29.48.52 1.01.77 1.5l.39.17.71 1.01c.07.12.16.23.25.34 2.11 2.93 4.28 5.8 6.51 8.66 4.61 5.88 9.23 11.76 13.85 17.64l.08.09c3.4 4.82 6.5 9.84 9.27 15.04 1.85 3.41 3.54 6.92 5.46 10.29 2.62 5 4.54 10.34 5.68 15.87a454.978 454.978 0 0 0-19.88-37.48c-.03-.04-.06-.08-.1-.1a.235.235 0 0 0-.13-.05h-.14c-.05.01-.09.04-.13.07-1.99-3.1-4.05-6.15-6.16-9.16-4.67-6.61-9.44-13.15-14.16-19.73-.58-.83-1.03-1.74-1.53-2.61-.41-.49-.86-.94-1.21-1.4-1.57-2.33-3.17-4.64-4.65-7.02-1.47-2.37-2.58-4.41-3.85-6.62-.17-.38-.3-.77-.39-1.18.35.34.72.76 1.05 1.21v.06Zm51.35 80.84c-.32-.93-.62-1.87-.9-2.81-1.01-3.57-2.42-7-4.21-10.24-1.56-2.81-3.07-5.61-4.53-8.42-3.05-5.85-6.51-11.48-10.36-16.84v-.14a.31.31 0 0 0-.06-.13l-1.7-2.19-.25-.34c-1.9-2.46-3.79-4.92-5.7-7.38-4.5-5.82-9.21-11.55-13.46-17.58-2.9-4.14-5.53-8.42-8.18-12.77l2.81 2.99c8.08 8.8 15.9 17.82 23.34 27.17 2.5 3.05 4.84 6.23 7.02 9.53 4.95 7.75 9.11 15.98 12.43 24.56a77.48 77.48 0 0 1 3.76 14.54v.06Zm1.71 13.36c-1.64-2.19-3.28-4.38-4.85-6.61-3.97-5.61-7.62-11.41-11.31-17.19-3.69-5.78-7.54-11.72-11.31-17.57a.3.3 0 0 0-.14-.11c-.34-.56-.67-1.1-1-1.66-2.68-4.55-5.01-9.3-7.56-13.94-3.54-6.41-7.23-12.74-10.41-19.35-.29-.63-.52-1.32-.76-1.98l1.18 1.66c5.87 9.56 12.08 18.9 18.24 28.25.03.04.06.07.1.09.04.02.09.03.14.02.56.81 1.11 1.63 1.64 2.44 4.57 7.13 9.15 14.27 13.71 21.42.76 1.19 1.4 2.43 2.1 3.65 1.9 3.4 3.76 6.81 5.61 10.2 1.78 3.02 3.24 6.22 4.34 9.56.18.32.28.69.28 1.07v.06Zm-.99.31c-4.13-5-8.14-10.09-12.1-15.23a356.895 356.895 0 0 1-22.35-32.85c-5.21-8.63-10.13-17.46-14.68-26.48-.94-2.12-1.87-4.21-2.69-6.4-1.95-5.11-3.79-10.27-5.61-15.44-.14-1.24-.32-2.44-.56-3.65l.18-.37c.15.37.32.72.48 1.08.07.03.13.09.17.15.04.06.07.14.08.21 0 .08 0 .15-.03.23-.03.07-.08.13-.14.18.87 1.7 1.77 3.4 2.62 5.11 5.91 11.89 11.76 23.86 18.38 35.32 2.81 4.98 5.33 10.19 8.29 15.11.29.49.6.98.9 1.49v.14l1.26 1.99c3.97 6.47 8.08 12.84 12.12 19.25.1.14.21.26.32.38l3.87 6.09c3.17 4.93 6.72 9.57 10.33 14.17v.15l-.86-.66Zm-20.55-21.05c-3.76-5-7.47-10.03-11.02-15.18-2.09-3.03-4.12-6.1-6.1-9.19-.88-1.4-1.8-2.81-2.68-4.21v-.11c-1.67-3.16-3.38-6.29-5.01-9.46-4.83-9.51-8.56-19.54-11.13-29.89-.23-.86-.41-1.73-.59-2.58 1.12 2.98 2.32 5.94 3.61 8.85-.05.04-.09.09-.11.16a.31.31 0 0 0 .01.19c1.66 3.57 3.35 7.12 5.11 10.62 0 .14.11.27.18.41.11.25.24.49.38.71 1.4 2.81 2.81 5.61 4.31 8.29 6.3 11.63 13.23 22.92 20.75 33.81 6.76 9.82 14.02 19.28 21.77 28.35-.34-.29-.69-.59-1.01-.9a246.484 246.484 0 0 1-18.47-19.9v.03Zm-35.77-64.4c.16.23.29.48.38.74 2.14 7.83 5.01 15.44 8.56 22.73 1.14 2.32 2.23 4.66 3.4 7.02-.03.04-.04.09-.04.14s.01.1.04.14c1.98 3.24 3.77 6.6 5.78 9.82 2.01 3.23 3.99 6.33 6.08 9.43 1.5 2.25 3.06 4.46 4.63 6.67-.37-.31-.71-.64-1.04-1-6.16-7.6-11.74-15.65-16.67-24.1a66.661 66.661 0 0 1-6.2-13.75c-.83-2.7-1.78-5.33-2.53-8.04-.9-3.31-1.61-6.58-2.39-9.84v.03Zm-.53-1.65.31-.07.15 1.52-.46-1.45Zm-1.71-15.37.7 2.01h-.24c-.14-.69-.29-1.32-.46-2.03v.03Zm-1.03-4.21c.59 1 1.26 1.96 1.76 3.02 2.98 6.57 6.46 12.9 10.43 18.93 5.15 7.7 10.55 15.23 15.96 22.73 5.07 7.02 9.82 14.3 14.37 21.68a535.043 535.043 0 0 1 17.11 33.16c.22.9.45 1.81.69 2.71-.9-1.4-1.57-2.99-2.39-4.46-2.69-4.93-5.42-9.82-8.14-14.71-.31-.56-.65-1.11-.98-1.64-5.74-8.79-11.49-17.59-17.25-26.4-.12-.17-.25-.34-.39-.49l-1.31-1.98-.13-.25c-2.29-3.57-4.58-7.15-6.88-10.72-4.06-6.48-8.05-13.02-12.11-19.52a.364.364 0 0 0-.16-.14.304.304 0 0 0-.21-.01c-2.46-4.17-4.65-8.49-6.55-12.94-1.02-2.47-2.19-4.87-3.27-7.31-.21-.55-.4-1.11-.55-1.68v.03Zm-6.65 72.54c.15-.56.31-1.11.51-1.66 2.61-7.34 4.57-14.89 5.87-22.57.69-3.83 1.02-7.72.97-11.62l-.17-9.56h.22c.23 3.02.57 6.03.65 9.07.07 3.71-.15 7.41-.15 11.1.03 2.62-.25 5.23-.81 7.79a83.332 83.332 0 0 1-4.57 13.4 38.95 38.95 0 0 1-2.44 4.66c-.05-.21-.07-.43-.06-.65v.03Zm-4.03 7.18c.79-5.49 1.96-10.93 3.49-16.26 1.03-3.28 1.87-6.62 2.68-9.96.65-2.67 1.18-5.36 1.64-8.06.44-2.44.76-4.91 1.04-7.38.35-2.97.62-5.96.91-8.94.19-1.45.29-2.91.32-4.38 0-2.55-.24-5.09-.39-7.63 0-.69-.13-1.4-.2-2.05.43 2.26.71 4.54.84 6.83.17 3.26.21 6.5.27 9.75 0 2.93.11 5.87 0 8.8a98.257 98.257 0 0 1-3.37 19.56c-1.29 5.14-3.03 10.15-4.59 15.2-.66 1.67-1.46 3.29-2.39 4.83-.2-.24-.27-.29-.27-.34v.03Zm-2.66 4.94c.1-.74.2-1.5.32-2.25l3.16-18.86c.66-3.9 1.1-7.86 2.03-11.68 2.57-10.43 4-21.05 5.54-31.64.13-.84.21-1.67.32-2.51.81 3.95.91 8.02.31 12.01a67.42 67.42 0 0 0-.79 7.23c-.17 2.99-.58 5.97-1.24 8.9-.43 1.99-.79 4-1.26 5.99-.74 3.16-1.4 6.34-2.39 9.46a104.76 104.76 0 0 0-3.61 15.63c-.25 1.77-.6 3.52-.98 5.28-.04.48-.19.95-.44 1.37s-.59.77-.99 1.04v.03Zm-.66-10.09c-.14-2.02-.2-4.06-.15-6.08.08-3.76.17-7.52.35-11.23.04-2.42.25-4.84.62-7.23.86-4.7 1.92-9.36 2.93-14.03.23-1.06.52-2.11.86-3.14 1.55-4.72 2.75-9.56 3.59-14.45.17-.97.5-1.89.76-2.81.03.66 0 1.32-.07 1.98-.87 5.61-1.85 11.23-3.23 16.7-.72 2.9-1.21 5.87-1.74 8.81-.53 2.95-.93 5.8-1.47 8.67a69.33 69.33 0 0 0-1.24 10.05c-.2 4.18-.59 8.46-1.21 12.73v.03Zm8.91-63.33c-.1.8-.14 1.6-.31 2.39-.43 2.19-.97 4.35-1.4 6.54-.65 3.39-1.49 6.73-2.51 10.02-.74 2.37-1.4 4.77-1.98 7.2-.83 3.54-1.57 7.1-2.25 10.66-.41 2-.68 4.02-.79 6.06-.2 5.53-.24 11.06-.37 17.05-.67-4.83-1.01-9.7-1.04-14.58-.01-8.96 1.5-17.85 4.46-26.3 2.12-6.22 4.62-12.31 6.01-18.76a.79.79 0 0 1 .17-.31v.03Zm.91 2.9c.22-2.15.28-4.32.63-6.46.05.01.11.02.16 0 .05-.01.11-.03.15-.06.04-.03.08-.07.11-.12.03-.05.04-.1.05-.16.17-.98.32-1.96.48-2.95.16.58.26 1.17.31 1.77.07 1.4 0 2.93 0 4.41-.2 5.36-.73 10.69-1.6 15.98-.99 7.91-2.4 15.77-4.21 23.53-.96 4.04-1.71 8.12-2.23 12.24-.72 5-1.53 9.98-2.32 14.95 0 .49-.22.96-.34 1.4a23.31 23.31 0 0 1 0-4.42c.29-3.37.71-6.72.93-10.1.17-4.21.64-8.39 1.4-12.53.56-2.81.95-5.61 1.47-8.49.56-3.14 1.12-6.29 1.78-9.4 1.41-6.48 2.49-13.03 3.21-19.62v.03Zm-1.5-31.7c.41.43.46.97.35 1.91-.15-.93-.25-1.45-.35-1.91Zm-.2-1.68.15 1.56a1.494 1.494 0 0 1-.15-1.61v.06Zm-1.57-4.74c.17.22.28.48.32.75.04.27.02.55-.07.81-.11-.74-.18-1.22-.25-1.61v.06ZM158 186.21c.27.37.5.77.7 1.19 1.61 3.87 3.17 7.76 4.81 11.62 1.3 3.09 2.15 6.35 2.51 9.68-.11-.13-.21-.28-.28-.43-1.88-6.44-4.53-12.63-6.86-18.87-.35-1.06-.65-2.15-.88-3.24v.06Zm42.1 12.94c-.36-.32-.76-.63-1.1-.98-2.6-2.64-5.16-5.3-7.77-7.91-5.71-5.75-12.08-10.76-18.31-15.93-1.81-1.52-3.76-2.81-5.61-4.21a467.29 467.29 0 0 0-5.08-3.65c.48.12.95.28 1.4.49 3.06 1.71 6.17 3.34 9.13 5.22a105.37 105.37 0 0 1 19.54 16.84c2.6 2.64 4.95 5.52 7.02 8.59.3.48.56.98.8 1.49v.06Zm34.76 50.77c-.67-.41-1.31-.88-1.89-1.4-3.44-3.59-7.02-7.11-10.22-10.88-3.91-4.53-7.61-9.26-11.37-13.94-3.9-4.88-7.83-9.82-11.63-14.71-2.92-3.8-5.82-7.61-9.02-11.16-2.27-2.51-4.52-5.03-6.75-7.58-4.14-4.69-8.56-9.12-13.23-13.28-3.94-3.52-7.66-7.3-11.46-10.99-.42-.44-.8-.91-1.14-1.4.27.09.52.22.76.38l7.31 6.01c.48.39 1 .73 1.5 1.09l.42-.45c1.15.87 2.3 1.68 3.38 2.57 3.76 3.07 7.51 6.17 11.23 9.26.53.45 1.05.93 1.57 1.4 7.5 6.67 14.44 13.94 20.74 21.75.95 1.19 1.91 2.41 2.81 3.69 5.61 8.49 11.16 17 16.64 25.51.24.41.45.84.62 1.29-.25-.15-.47-.34-.67-.55-2.23-2.81-4.49-5.54-6.66-8.42-2.18-2.88-4.14-5.61-6.25-8.42-1.64-2.19-3.35-4.32-5-6.53-3.11-4.2-6.46-8.23-10.02-12.05-.41-.37-.85-.71-1.31-1.02.39.64.82 1.25 1.29 1.82 7.02 7.68 12.78 16.26 19.15 24.4.35.45.65.95.97 1.4 2.07 2.99 4.3 5.86 6.69 8.6 3.47 4.1 7.35 7.82 10.58 12.1.34.39.65.91.97 1.42v.06Zm-29.03-22.37-1.07-1.05c-.36-.27-.69-.56-1.01-.87a481.029 481.029 0 0 1-20.7-24.07c-6.67-8.28-12.99-16.71-19.46-25.09-.38-.49-.7-1.05-1.05-1.57-.35-.52-.42-.63-.65-.94l.76.81c.87.74 1.77 1.4 2.61 2.23 5.75 5.35 10.9 11.23 16.29 16.95.74.8 1.43 1.63 2.06 2.51 3.82 5.18 7.73 10.3 11.23 15.75.98 1.56 2.2 2.96 3.27 4.48 2.29 3.21 4.53 6.46 6.79 9.7l.93 1.16Zm-3.05-5.4c-1.53-2.05-3.02-4.11-4.52-6.17-1.33-1.85-2.68-3.7-3.98-5.61-.31-.51-.6-1.03-.84-1.57.41.33.78.7 1.12 1.09 2.33 3.05 4.66 6.08 6.93 9.16 4.05 5.57 8.63 10.74 13.67 15.44 2.15 1.99 4.21 4.08 6.3 6.15.36.38.69.79.98 1.22l-.66-.49c-5.44-4.52-10.57-9.41-15.35-14.62-1.3-1.48-2.51-3.03-3.64-4.64v.06Zm-22.45-31.56c-3.88-4.57-7.77-9.15-11.66-13.71-.33-.45-.63-.91-.9-1.4.16.05.31.13.45.22 3.44 3.14 7.1 6.09 10.26 9.49 7.73 8.34 15.55 16.6 22.16 25.91.37.52.79 1.01 1.18 1.5 4.21 5.25 8.42 10.45 12.53 15.75 4.38 5.74 9.09 11.23 14.1 16.42.39.44.75.91 1.08 1.4-.55-.26-1.08-.56-1.57-.91-1.15-.9-2.3-1.83-3.37-2.81-3.35-3.16-6.62-6.39-9.98-9.53a94.476 94.476 0 0 1-11.47-12.84c-2.22-2.96-4.45-5.91-6.68-8.87-5.29-6.96-10.5-14.01-16.17-20.67l.03.06Zm45.78 54.28c.5.41.98.83 1.52 1.18 3.52 2.31 6.89 4.86 10.08 7.62l.73.67c-.96-.19-1.88-.55-2.72-1.05a45.523 45.523 0 0 1-9.63-8.48l.03.06Zm-64.98-66.28c.39.52.8 1.04 1.15 1.57 2.88 4.29 5.61 8.67 8.63 12.87 3.02 4.2 6.13 8.15 9.29 12.15 2.33 2.96 4.7 5.88 7.16 8.73 2.46 2.85 5.02 5.61 7.55 8.42 3.5 3.89 7.28 7.51 11.31 10.85 2.2 1.84 4.42 3.66 6.61 5.52.49.44.94.93 1.4 1.4-.59-.27-1.15-.6-1.68-.97-3.79-3.02-7.63-5.99-11.32-9.15-16-13.91-29.29-30.65-39.21-49.38-.31-.73-.63-1.4-.91-2.06l.03.06Zm-3.98-8.93c.42.43.9.81 1.28 1.29l20.52 26.27c1.9 2.41 3.66 4.94 5.61 7.27 5.71 6.71 11.45 13.39 17.29 20 5.78 6.4 12.07 12.32 18.8 17.71 2.33 1.9 4.73 3.71 7.02 5.61.61.54 1.17 1.14 1.68 1.78-1.77-1.4-3.52-2.71-5.32-4.04-.52-.34-1.05-.65-1.6-.93l.42.69c-.77-.39-1.5-.83-2.2-1.32-3.89-3.12-7.7-6.32-11.62-9.4-5.4-4.29-10.42-9.04-15.02-14.19a218.92 218.92 0 0 1-15.84-18.95c-1.29-1.81-2.67-3.58-4.05-5.33-3.55-4.5-6.86-9.18-9.91-14.03-.21-.35-.39-.72-.56-1.09.54.47 1.06.98 1.53 1.52 4.43 5.75 8.63 11.68 13.15 17.37 3.03 3.83 5.91 7.82 9.19 11.47 1.32 1.47 2.6 2.98 3.86 4.5 2.92 3.46 6.09 6.69 9.49 9.68.4.3.81.57 1.25.8-.48-.58-.93-1.19-1.4-1.73-2.31-2.37-4.73-4.65-6.95-7.11-8.34-9.23-15.87-19.13-23.35-29.06-2.06-2.81-4.14-5.49-6.29-8.18a64.265 64.265 0 0 1-6.23-8.93c-.29-.56-.55-1.13-.77-1.73l.03.06Zm-6.84-10.51c.55.42 1.11.81 1.7 1.16 1.8 1.11 3.39 2.54 4.69 4.21 2.3 2.62 4.66 5.21 7.02 7.79.44.41.91.79 1.4 1.14.23.44.5.86.8 1.25 3.07 3.65 6.19 7.27 9.28 10.9.31.41.6.84.87 1.29-.48-.42-1-.81-1.4-1.28-3.47-3.54-6.88-7.14-10.41-10.62-2.88-2.8-5.61-5.76-8.15-8.87-1.4-1.77-2.95-3.49-4.38-5.29-.49-.62-1.32-.9-1.43-1.73l.03.04Zm0 7.78c.36.45.69.92 1 1.4.73 1.4 1.4 2.93 2.08 4.43.3.79.57 1.59.79 2.4-.13-.17-.26-.36-.36-.55-1.07-2.25-2.13-4.48-3.19-6.74-.14-.33-.26-.66-.34-1.01l.03.06Zm-1.4-2.94.86 1.64c-.26-.21-.48-.46-.63-.76-.16-.29-.26-.61-.29-.94l.07.06Zm-2.81-5.44a12.84 12.84 0 0 1 2.81 5.16l-2.81-5.16Zm-18.51-19.77-.22-1.57c.15.22.24.48.26.74.02.27-.03.53-.15.77l.11.06Zm3.09 33.68c0-.05 0-.1-.02-.15a.217.217 0 0 0-.1-.11c.51-5.24.66-10.51.46-15.77.62 2.27 1.13 4.57 1.5 6.89.48 3.41.77 6.85 1.1 10.29.09.93.09 1.87 0 2.81-.17 1.96-.48 3.93-.63 5.89-.31 3.82-.53 7.65-.83 11.47-.51 4.82-1.35 9.61-2.53 14.31-.7 3.17-1.4 6.36-2.01 9.54-.39 1.88-.7 3.77-1.22 5.61a65.779 65.779 0 0 0-2.58 12.73v.73c-.19-.41-.29-.85-.28-1.31.15-4.79.27-9.57.52-14.34.32-7.33 1.19-14.63 2.61-21.84.06-.29.1-.58.11-.87.98-3.89 1.88-7.77 2.5-11.75.68-4.72 1.11-9.48 1.29-14.24l.11.11Zm-.91-24.32c-.58-2.51-1.14-5.04-1.7-7.55.9 2.38 1.44 4.89 1.58 7.44l.11.11Zm-4.1 93.28c2.51-8.88 4.51-17.88 6.01-26.99a67.3 67.3 0 0 0 1.4-5.85c.34-1.75.77-3.48 1.1-5.23.62-3.33 1.31-6.64 1.74-9.98.69-4.55.98-9.14.86-13.74-.11-2.29-.22-4.59-.27-6.88-.1-4.79-.66-9.55-1.7-14.23-1.51-6.85-3.44-13.6-5.61-20.26-.76-2.32-1.4-4.67-2.09-7.02.15.23.28.48.39.73.88 2.39 1.75 4.8 2.65 7.19 2.43 6.53 4.31 13.25 5.61 20.1.46 2.32.81 4.66 1.21 7.02 1.19 6.67 1.6 13.46 1.22 20.22-.28 4.21-.72 8.53-1.25 12.77-.57 5.72-1.51 11.4-2.81 16.99-2.12 8.24-5.07 16.21-7.83 24.24-.03.19-.1.37-.21.53-.17.11-.35.2-.53.28l.11.11Zm-1.6-1.55c.28-1.84.55-3.66.73-5.5.3-2.73.81-5.43 1.53-8.08.74-2.9 1.4-5.84 2.05-8.77.73-3.23 1.4-6.48 2.09-9.73 1.17-4.71 2-9.5 2.5-14.33.41-5.22.86-10.44 1.26-15.65.23-3.96 0-7.93-.7-11.83-.56-3.66-1.4-7.28-1.98-10.93-.72-4.08-1.4-8.18-2.06-12.27-.02-.18-.02-.36 0-.53 1.1 3.21 2.07 6.45 2.92 9.71 1.35 4.53 2.29 9.18 2.81 13.88.28 3.63.48 7.27.74 10.89.38 6.51.03 13.05-1.07 19.48-.9 5.95-2.16 11.83-3.77 17.63-.06.04-.1.11-.11.18 0 .24-.1.49-.15.74-.25.87-.53 1.74-.83 2.6-.25.68-.44 1.38-.59 2.09-.6 2.15-.92 4.37-.97 6.61v-.1c-1.4 6.06-2.81 12.1-4.39 18.1-.27-1.42-.31-2.88-.11-4.31l.11.11Zm-.38 4.21c.1.42.17.85.2 1.28l-.34 1.28c-.19-.42-.28-.87-.27-1.32 0-.46.11-.9.3-1.32l.11.08Zm5.12-95.42c0-.4.04-.81.1-1.21 1.21 4.81 1.74 9.77 1.56 14.73 0 3.4-.18 6.79-.45 10.17l-.25 2.93c-.21 2.05-.46 4.08-.79 6.12-.33 1.67-.5 3.37-.51 5.07-.51 3.62-1.11 7.23-1.82 10.79-.17.31-.31.64-.41.98-1.32 5.92-2.16 11.94-2.51 17.99-.49 7.44-.76 14.9-.66 22.37v2.11c-.05.47-.13.94-.24 1.4a66.61 66.61 0 0 1-1.4-8.42c-.29-3.68-.42-7.38-.49-11.09-.11-5.36.2-10.72.93-16.03 1.28-9.5 2.98-18.92 4.8-28.32 2.06-9.74 2.74-19.71 2.04-29.64l.11.03Zm-2.19-13.69c.36.51.53 1.12.5 1.74l-.5-1.74Zm-3.73-11.22c.59.41 1.07.96 1.4 1.6.29.56.51 1.15.8 1.71a8.7 8.7 0 0 1 1.21 4.21 25.594 25.594 0 0 1-2.95-6.23c-.22-.34-.32-.8-.46-1.25v-.04Zm-4.53-6.09 2.27 2.58a7.352 7.352 0 0 1 1.91 4.91c-.26-.33-.51-.68-.73-1.04-1.04-1.87-2.05-3.71-3.05-5.52-.16-.29-.29-.59-.41-.9v-.04ZM4.38 4.57c-.42-.18-.81-.45-1.12-.79a3.28 3.28 0 0 1-.72-1.17c.83.43 1.48 1.13 1.84 1.99v-.04Zm.48-.95c-.37-.19-.69-.46-.93-.79-.24-.33-.41-.72-.47-1.12.36.2.68.48.92.82.24.34.41.72.48 1.13v-.04Zm1.65 3.36c-.38-.41-.76-.83-1.15-1.24.28.11.53.28.72.5.2.22.35.49.43.77v-.04Zm47.25 44.23c-.28-.1-.54-.25-.77-.42-3.23-2.81-6.45-5.61-9.65-8.42-.32-.33-.6-.69-.84-1.08 2.05 1.56 4.21 3.02 6.09 4.7 1.88 1.68 3.47 3.52 5.18 5.26v-.04Zm2.5 2.4a7.554 7.554 0 0 1-2.41-2.33c.98.59 1.81 1.4 2.41 2.37v-.04Zm32.47 76.98c-1.12-6.03-2.19-12.06-3.21-18.07-1.17-7.17-2.89-14.24-5.15-21.15-.12-.46-.22-.93-.29-1.4.59 1.4 1.19 2.81 1.74 4.21a81.4 81.4 0 0 1 4.43 16.21c.94 5.98 1.59 12 2.34 18 .14.8.14 1.5.14 2.2Zm-18.77-32.1c0 .22 0 .45.07.67.31 6.37.28 12.76-.11 19.13-.14 2.48-.31 4.97-.24 7.45.1 4.21.39 8.42.58 12.63v3.83c.55 8.41 1.53 16.78 2.95 25.09.29 1.7.63 3.38.95 5.08.69 3.62 1.4 7.26 2.09 10.89.17.97.21 1.95.31 2.93-1.18-4.11-2.23-8.25-3.24-12.41a145.66 145.66 0 0 1-3.82-20.29c-.39-3.94-.88-7.87-1.14-11.83-.25-3.96-.42-8.03-.29-12.04.25-8.62.73-17.22 1.14-25.82.08-1.77.27-3.52.41-5.29l.35-.03Zm-1.93-32.41c.73 3.24 1.6 6.44 2.34 9.68a91.27 91.27 0 0 1 2.15 12.84c.34 4.07.77 8.14 1.16 12.21 0 .56.11 1.14.14 1.71L75 124.33c0 1.4.11 2.81.15 4.21.07 2.62.1 5.23.22 7.84.25 5.36.59 10.72.86 16.08.13 2.48.17 4.97.28 7.47.15 3.56.22 7.14.52 10.71.46 5.47 1.07 10.93 1.61 16.41 0 .43.1.88.11 1.4-.04 1.07-.45 2.1-1.15 2.9-.18-1.75-.27-3.09-.46-4.42-.43-3.16-.87-6.31-1.4-9.46-.66-3.83-1.5-7.63-2.15-11.48-1.08-6.5-1.82-13.02-2.39-19.65-.11-1.26-.15-2.54-.18-3.82-.08-3.58 0-7.17-.27-10.72-.35-4.77-.35-9.57 0-14.34.45-5.6.45-11.24 0-16.84-.6-5.73-.6-11.48-.83-17.22-.2-5.62-1.14-11.2-2.81-16.57-.34-1.08-.62-2.18-.93-3.26.47.25.88.61 1.2 1.04.32.43.53.93.63 1.46Zm2.64 4.21c.84 2.68 1.5 5.42 2.22 8.13 1.27 4.74 2.21 9.57 2.81 14.44.29 2.47.77 4.91 1.18 7.37.49 2.89 1.07 5.77 1.5 8.67.53 3.66.97 7.34 1.4 11.02.74 5.88 1.54 11.77 2.18 17.67.38 3.62.49 7.26.76 10.89.21 2.67.16 5.35-.14 8.01-.27 2.41-.52 4.83-.67 7.24-.26 4.4-.85 8.77-1.75 13.08-.38 2.26-.64 4.54-.79 6.83-.1.87-.14 1.75-.22 3.06-.17-.58-.22-.69-.24-.81-.86-7.48-1.57-14.99-1.75-22.45 0-2.1-.17-4.21-.21-6.32-.14-5.99-.15-12-.79-17.98a34.83 34.83 0 0 1-.25-3.82c0-5.69-.24-11.36-.73-17.02-.1-1.15-.2-2.29-.21-3.44-.08-5.61-.45-11.35-.98-17.01-.2-2.03-.46-4.07-.56-6.1-.49-7.27-1.73-14.46-3.7-21.47-.36-1.4-.65-2.81-.97-4.21.73 1.38 1.37 2.8 1.94 4.25v-.03Zm1.7 1.93c-.25-.32-.46-.68-.6-1.07-.27-.76-.51-1.52-.74-2.29.88.91 1.36 2.12 1.35 3.38v-.03Zm1.12 6.07c.17.24.3.49.41.76.77 2.62 1.64 5.23 2.27 7.9 1.4 6.27 2.43 12.63 3.49 19 .7 4.21 1.4 8.29 2.16 12.45.58 3.4 1.21 6.79 1.61 10.22.73 6.2 1.32 12.45 1.96 18.66.16 1.27.24 2.54.25 3.82.02 7.34-.6 14.67-1.84 21.91-.21.92-.33 1.86-.38 2.81-.07 1.91-.55 3.79-1.4 5.5-.58 1.19-1.05 2.43-1.75 4.06-.07-.4-.1-.8-.11-1.21.25-3.12.68-6.22 1.31-9.29.45-2.25.77-4.52 1-6.81.34-3.42.53-6.86.79-10.3.26-1.96.41-3.93.42-5.91-.29-5.42-.73-10.83-1.22-16.24-.22-2.54-.73-5.05-1.05-7.58-.9-7.02-1.75-14.03-2.62-21.05 0-.44-.15-.87-.24-1.32-.74-4.21-1.6-8.27-2.2-12.42-.56-3.86-1.11-7.7-2.03-11.49-.34-1.14-.56-2.29-.81-3.44v-.03Zm-.15-2.99a36.57 36.57 0 0 1 3.12 6.34c.93 2.46 1.61 4.98 2.46 7.45 1.99 5.79 3.61 11.71 4.84 17.71.36 1.81.7 3.63 1.07 5.44.84 4.21 1.78 8.42 2.23 12.63.1.94.34 1.88.48 2.81.48 3.09 1.04 6.17 1.4 9.28.29 2.72.36 5.47.48 8.22.08 1.53.08 3.06 0 4.59a95.442 95.442 0 0 1-3.24 20.56c-.39 1.4-.87 2.81-1.32 4.21l-.41-.15c.88-4.5 1.4-9.07 1.56-13.65.4-4 .46-8.03.18-12.04-1.18-10.78-2.01-21.61-4.08-32.28-.79-4-1.4-8.04-2.13-12.05l-2.4-13.56c-.6-3.53-1.44-7.01-2.53-10.41l-1.7-5.09Zm3.31-3.63a2.987 2.987 0 0 1-1.63-1.65l1.63 1.66Zm1.7 1.71c-.74-.34-1.33-.94-1.66-1.68.38.16.72.4 1 .69s.51.64.66 1.02v-.03Zm32.91 24.22c4.29 1.64 8.45 3.58 12.47 5.8 4.42 2.29 8.91 4.42 13.4 6.57 2.93 1.4 5.89 2.81 8.86 4.08 2.96 1.28 6.06 2.68 9.12 3.99 2.81 1.19 5.61 2.33 8.42 3.51 4.42 1.85 8.81 3.73 13.23 5.61 2.7 1.12 5.4 2.23 8.11 3.33 6.61 2.99 13.25 5.96 19.97 8.73-3.61-1.07-7.2-2.19-10.83-3.19-6.14-1.67-12.17-3.74-18.05-6.17-3.21-1.4-6.44-2.9-9.64-4.39l-2.3-1.07c-2.16-1.02-4.33-2.03-6.51-3.02-10.4-4.86-20.74-9.82-31-14.89-.15-.09-.31-.17-.48-.24l-1.73-.86h-.11c-1.73-.87-3.47-1.71-5.19-2.6-.01 0-.03-.01-.05-.01s-.03 0-.05.01c-3-1.59-6.02-3.17-9.01-4.79-.77-.47-1.5-1-2.19-1.59 1.24.38 2.39.8 3.55 1.21v-.03Zm8.98 6.44c.8.45 1.65.8 2.53 1.07l.8.42c.26.21.56.37.88.45l7.69 3.99c12.73 6.5 25.62 12.77 38.73 18.52l1.63.83c.19.12.37.27.52.44-.35-.07-.7-.16-1.04-.27-3.47-1.28-7.02-2.4-10.37-3.9-7.02-3.16-14.03-6.5-20.95-9.82-7.37-3.49-14.54-7.41-21.47-11.72-.5-.31-.98-.66-1.4-1l2.46 1Zm45.7 9.05c-.4-.1-.79-.22-1.18-.36l-14.44-6.02-1.4-.66c.51.07 1.03.18 1.53.31 5.1 1.52 10.04 3.57 14.72 6.1.27.19.52.42.74.66l.03-.03Zm11.92 6.32-.87-.41c-.7-.29-1.4-.56-2.09-.91a295.07 295.07 0 0 1-6.03-3.31c-.52-.28-1-.62-1.49-.94.44.1.87.25 1.28.43 2.4 1.25 4.79 2.52 7.17 3.79.43.26.83.56 1.22.87l.81.48Zm12.63 8.53c-.59-.11-1.16-.27-1.71-.49-3.66-1.66-7.33-3.31-10.95-5.05-6.56-3.31-13.3-6.22-20.21-8.71-3.38-1.15-6.75-2.36-10.1-3.56-4.03-1.4-8.04-2.93-12.06-4.38-5.61-2.01-11.23-3.99-16.76-6.02-1.58-.46-3.07-1.19-4.41-2.16.49.11.98.21 1.4.34 1.96.55 3.9 1.21 5.89 1.63a181.94 181.94 0 0 1 23.65 6.31c8.41 2.82 16.6 6.29 24.49 10.36 3.71 1.99 7.45 3.94 11.13 5.98 2.81 1.53 5.61 3.17 8.29 4.8.49.3.96.64 1.4 1l-.07-.03Zm19.08 11.92c-6.17-2.43-12.38-4.8-18.54-7.26-.23-.21-.49-.38-.77-.52-2.46-1.09-4.88-2.22-7.37-3.21-6.22-2.51-12.45-4.95-18.57-7.72-7.68-3.47-15.62-6.3-23.09-10.26-.34-.17-.7-.29-1.05-.46-4.79-2.26-9.57-4.53-14.34-6.81a9.87 9.87 0 0 1-1.4-.91c.35.08.7.14 1.04.25l21.96 7.9c2.33.84 4.65 1.78 7.02 2.53 8.29 2.78 16.34 6.22 24.08 10.29 3.58 1.81 7.21 3.54 10.93 5.05a125.54 125.54 0 0 1 18.45 9.67c.49.37.96.76 1.4 1.18.07.06.15.11.23.15v.13Zm-84.2-28.34c.81.42 1.66.79 2.43 1.26A226.428 226.428 0 0 0 160.3 129c6.88 2.81 14.03 5.15 21.05 7.7.45.17.87.38 1.3.58-.48 0-.95-.08-1.4-.15-6.96-1.24-13.8-3.09-20.45-5.52a129.496 129.496 0 0 1-34.41-19.2c-.33-.27-.63-.56-.91-.87l-.11-.03Zm-17.93-13.93c.63.29 1.25.61 1.84.98a222.81 222.81 0 0 0 22.99 13.81c5.73 2.95 11.54 5.77 17.35 8.56 4.21 2.01 8.42 4.08 12.74 5.75 12.08 4.86 24.46 8.97 37.05 12.29.62.12 1.25.2 1.88.24.57.45 1.29.66 2.01.59 1.88.12 3.72.6 5.42 1.4-.48 0-.97 0-1.4-.11-3.4-.51-6.79-1.09-10.22-1.52a89.218 89.218 0 0 1-19.13-4.59 275.024 275.024 0 0 1-30.12-12.27c-7.1-3.35-14.02-7.07-20.73-11.14-1.57-.98-3.13-1.96-4.74-2.89-5.22-3.3-10.18-7.01-14.82-11.09l-.11-.03Z"/></svg>