<svg xmlns="http://www.w3.org/2000/svg" xml:space="preserve" style="enable-background:new 0 0 197 32" viewBox="0 0 197 32"><path d="M196.5 8v3.5h-4.8V24h-4.3V11.5h-4.8V8h13.9zm-19.9 8.4h-.1L170.8 8h-3.7v16h4.3v-8.4h.1l5.8 8.4h3.6V8h-4.3v8.4zM160.3 8l5.3 16h-4.7l-.9-3.1h-5.3l-.9 3.1h-4.7l5.3-16h5.9zm-1.3 9.7-1.6-5.3h-.1l-1.6 5.3h3.3zM150 8h-13.9v3.5h4.8V24h4.3V11.5h4.8V8zm-19.8 0h-4.3v16h10.8v-3.5h-6.5V8zm-10.7 9.9c0 .5-.1.9-.3 1.3-.2.4-.5.7-.9.9-.4.2-.8.3-1.3.3s-.9-.1-1.3-.3c-.4-.2-.7-.5-.9-.9-.2-.4-.3-.8-.3-1.3V8H110v10.2c0 1.2.3 2.3.9 3.2.6.9 1.4 1.6 2.4 2.1s2.2.7 3.6.7 2.6-.2 3.6-.7c1-.5 1.8-1.2 2.4-2.1.6-.9.9-1.9.9-3.2V8h-4.3v9.9zm-12.3-1.7c-.4-.4-.9-.8-1.5-1.1-.6-.3-1.4-.6-2.3-.7l-1.3-.3c-.4-.1-.7-.2-1-.3-.3-.1-.5-.2-.7-.3-.2-.1-.3-.3-.4-.4-.1-.2-.1-.3-.1-.5s.1-.4.2-.6c.1-.2.3-.3.6-.4.3-.1.7-.2 1.1-.2.7 0 1.2.1 1.6.4.3.3.5.7.6 1.2h4.2c0-1-.3-2-.8-2.7-.5-.8-1.2-1.4-2.2-1.8-.9-.4-2.1-.6-3.4-.6-1.3 0-2.4.2-3.4.6-1 .4-1.7 1-2.3 1.8-.5.8-.8 1.6-.8 2.7 0 1.2.4 2.2 1.2 3 .8.7 1.9 1.2 3.4 1.5l1.6.3c.6.1 1.1.3 1.4.4.3.1.6.3.8.5.2.2.2.4.2.6 0 .3-.1.5-.2.7-.2.2-.4.4-.7.5-.3.1-.7.2-1.2.2-.6 0-1-.1-1.4-.3-.4-.2-.7-.4-.9-.8-.2-.3-.3-.7-.4-1.2H95c0 1.3.3 2.4.9 3.3.6.9 1.4 1.5 2.4 1.9 1 .4 2.2.6 3.6.6s2.5-.2 3.5-.6c1-.4 1.7-.9 2.2-1.7.5-.7.8-1.6.8-2.7 0-.6-.1-1.2-.3-1.7-.2-.4-.5-.9-.9-1.3zm-18.3.2h-.1L83.1 8h-3.7v16h4.3v-8.4h.1l5.8 8.4h3.6V8h-4.3v8.4zm-12.5-4.9c.7 1.2 1 2.7 1 4.5s-.3 3.3-1 4.5c-.7 1.2-1.6 2.1-2.8 2.8-1.2.6-2.5.9-3.9.9-1.5 0-2.8-.3-4-.9-1.2-.6-2.1-1.6-2.8-2.8-.7-1.2-1-2.7-1-4.5 0-1.8.3-3.3 1-4.5.7-1.2 1.6-2.1 2.8-2.8 1.2-.6 2.5-.9 4-.9 1.4 0 2.8.3 3.9.9 1.2.7 2.1 1.6 2.8 2.8zM73 16c0-1-.1-1.8-.4-2.4-.2-.7-.6-1.2-1.1-1.5-.5-.3-1.1-.5-1.8-.5s-1.3.2-1.8.5-.9.8-1.1 1.5c-.2.7-.4 1.5-.4 2.4s.1 1.8.4 2.4c.3.7.6 1.2 1.1 1.5.5.3 1.1.5 1.8.5s1.3-.2 1.8-.5.9-.8 1.1-1.5c.2-.6.4-1.4.4-2.4zm-22-3.9c.5-.4 1.1-.5 1.9-.5.4 0 .8.1 1.1.2.3.1.6.3.8.5.2.2.4.5.5.8.1.3.2.6.2 1H60c-.1-1-.3-1.9-.7-2.6-.4-.8-.9-1.4-1.5-1.9s-1.4-.9-2.2-1.2c-.8-.3-1.8-.4-2.8-.4-1.4 0-2.7.3-3.9.9-1.2.6-2.1 1.5-2.8 2.8-.7 1.2-1 2.7-1 4.5 0 1.8.3 3.3 1 4.5.7 1.2 1.6 2.2 2.8 2.8 1.2.6 2.5.9 4 .9 1.2 0 2.2-.2 3.1-.5.9-.4 1.6-.8 2.2-1.4.6-.6 1.1-1.2 1.4-1.9.3-.7.5-1.4.6-2.1h-4.4c-.1.3-.2.7-.3.9-.1.3-.3.5-.6.7-.2.2-.5.3-.8.4-.3.1-.7.1-1.1.1-.7 0-1.3-.2-1.8-.5s-.9-.8-1.1-1.5c-.3-.7-.4-1.5-.4-2.5 0-.9.1-1.7.4-2.4 0-.7.4-1.3.9-1.6z"/><path d="M25 0H14C6.3 0 0 6.3 0 14v14c0 2.2 1.8 4 4 4h11c.5 0 .9 0 1.4-.1.2 0 .3 0 .4-.1.3 0 .6-.1.9-.1.2 0 .3-.1.5-.1.3-.1.5-.1.8-.2.2-.1.4-.1.5-.2.2-.1.5-.2.7-.2.2-.1.4-.2.6-.2l.6-.3c.2-.1.4-.2.5-.3l.6-.3c.2-.1.4-.2.5-.3.2-.1.3-.3.5-.4.2-.1.3-.3.5-.4l.1-.1c.3-.3.7-.6 1-.9.1-.1.3-.3.4-.5l.5-.5c.1-.1.2-.3.3-.4.2-.2.4-.5.5-.7v-.1c1.4-2.1 2.2-4.5 2.3-7.2V4C29 1.8 27.2 0 25 0zM4 14C4 8.5 8.5 4 14 4h11v6.7c-.1-.1-.3-.1-.4-.2-1.2-.4-2.4-.6-3.8-.6-2 0-3.9.5-5.5 1.4-1.6.9-2.9 2.3-3.9 4.1-1 1.8-1.4 3.9-1.4 6.5 0 2.3.4 4.3 1.2 6H4V14zm12.8 13.8c-.4-.5-.8-1-1.1-1.7-.5-1.1-.7-2.5-.7-4.1 0-1.6.2-3 .7-4.1.5-1.1 1.2-2 2.1-2.6.9-.6 1.9-.9 3.1-.9.7 0 1.3.1 1.9.3.6.2 1.1.5 1.5.8.3.2.5.4.7.7V18c0 4.9-3.5 9-8.2 9.8z" style="fill:#076951"/></svg>