<svg xmlns="http://www.w3.org/2000/svg" viewBox="0 0 50 50"><path d="M30.35.59C29.24.35 28.1.25 26.98.09c-.14-.02-.28-.06-.42-.08h-3.12c-.93.13-1.87.23-2.79.38C10.66 2.03 2.35 10.17.49 20.12c-.21 1.1-.33 2.21-.49 3.32v3.13c.12.92.22 1.84.38 2.75 1.69 9.98 9.47 18.06 19.35 20.13 11.42 2.39 22.76-3.16 27.8-13.63C54.5 21.36 46.03 3.98 30.34.59Zm6.66 42.93c-3.67 2.36-7.68 3.53-12.02 3.57-4.36-.04-8.37-1.23-12.03-3.59-.33-.21-.42-.42-.34-.79 1.1-5.09 5.29-9.05 10.42-9.81 6.69-.99 12.79 3.17 14.31 9.74.09.4.04.63-.34.87Zm-12.03-29.6a7.922 7.922 0 0 1 7.34 4.9 7.932 7.932 0 0 1-.73 7.46 7.901 7.901 0 0 1-3.56 2.93c-1.45.6-3.05.76-4.59.46-1.54-.31-2.96-1.06-4.07-2.17s-1.87-2.53-2.18-4.07c-.31-1.54-.15-3.14.45-4.59.6-1.45 1.62-2.69 2.92-3.57a7.969 7.969 0 0 1 4.41-1.34Zm15.01 27.22c-1.48-4.73-4.47-8.11-9.03-10.14 3.41-2.48 5.14-5.79 4.85-10.02-.2-2.85-1.43-5.25-3.54-7.17-4.38-4-11.15-3.71-15.24.67-2.28 2.45-3.22 5.39-2.83 8.71.39 3.3 2.07 5.87 4.84 7.81-2.22.95-4.11 2.28-5.67 4.04a15.44 15.44 0 0 0-3.36 6.1c-5.38-4.75-8.83-13.46-6.15-22.47C6.49 9.78 14.8 3.28 23.99 2.95c9.7-.35 18.34 5.37 21.68 14.42 3.24 8.76.52 18.09-5.68 23.76Z"/></svg>