<svg xmlns="http://www.w3.org/2000/svg" viewBox="0 0 50 43.7"><path d="M44.89 8.15H34.26V5.22c0-.6.03-1.21-.04-1.81C34 1.47 32.53.06 30.59.04c-3.74-.05-7.46-.05-11.19 0-2.1.03-3.62 1.68-3.65 3.82-.02 1.41 0 2.81 0 4.29H5.25C2.54 8.15.67 9.68.08 12.34c-.02.04-.04.08-.07.12v26.96c.21.58.35 1.19.64 1.71.99 1.74 2.54 2.57 4.52 2.57h39.6c2.4 0 4.29-1.29 4.97-3.44.17-.54.26-1.11.26-1.68.01-8.45.02-16.89 0-25.33 0-2.93-2.18-5.09-5.11-5.1Zm-25.93-4.4c0-.43.35-.52.73-.52h10.49c.78 0 .89.12.89.92v3.98H18.95c0-1.47-.01-2.92 0-4.37ZM3.18 13.42c0-1.39.68-2.08 2.07-2.08h19.77c6.56 0 13.12 0 19.68.02.44 0 .94.06 1.29.3.35.24.74.72.77 1.11.08 1.25.13 2.53-.07 3.75-.32 1.91-1.54 3.21-3.38 3.76-5.56 1.66-11.13 3.27-16.7 4.89-1.1.31-2.27.29-3.37-.05-5.43-1.59-10.85-3.17-16.28-4.75-2.34-.68-3.74-2.54-3.78-4.99v-1.96Zm43.64 9.18c-.01 5.28-.01 10.55 0 15.83 0 .88-.28 1.58-1.11 1.94-.26.1-.53.14-.81.13H5.1c-1.18 0-1.93-.7-1.93-1.86V22.32c0-.06.01-.13.02-.19.04 0 .08-.03.1-.02 1.57 1.18 3.47 1.52 5.29 2.05 4.72 1.39 9.46 2.75 14.19 4.12 1.45.43 2.99.44 4.44.01 5.7-1.65 11.4-3.29 17.08-4.99.86-.26 1.65-.74 2.54-1.15v.45Z"/></svg>