<svg xmlns="http://www.w3.org/2000/svg" viewBox="0 0 38.41 50"><path d="M37.76 45.56c-1.13-1.21-2.32-2.37-3.51-3.53-.46-.45-1.06-.42-1.55-.03-.11.09-.22.18-.27.23l-.88-.74.29-.4c3.23-4.43 2.74-10.59-1.15-14.35-.13-.12-.23-.26-.3-.42-.07-.16-.1-.33-.09-.51.02-8.07 0-16.14.02-24.21 0-.72-.19-1.27-.86-1.59H6.81c-.29.24-.61.44-.85.71C4.14 2.74 2.34 4.8.51 6.84.17 7.21-.01 7.7 0 8.2v30.61c0 1.1.41 1.51 1.5 1.51h11.57c.16-.01.31.02.45.09.14.07.25.19.33.32 1.23 1.82 2.97 3.23 5 4.05s4.27 1.01 6.41.55c1.66-.36 3.21-1.09 4.55-2.13l.87.77c-.67.78-.76 1.36-.24 1.89 1.15 1.18 2.29 2.36 3.49 3.48 1.04.97 2.69.86 3.67-.13s1.09-2.62.14-3.63Zm-25.31-7.61H2.38c-.01-.16-.03-.33-.03-.5 0-9.56 0-19.13.01-28.69.01-.28.12-.55.3-.77C4.22 6.2 5.79 4.41 7.37 2.64c.14-.16.34-.26.56-.28 6.59 0 13.18-.01 19.77-.01.06 0 .13.01.23.02v22.3c-4.34-1.87-8.46-1.55-12.09 1.55-3.63 3.1-4.56 7.14-3.39 11.73Zm10.48 5.28c-4.82-.04-8.64-3.95-8.61-8.8.03-4.7 3.96-8.56 8.68-8.54 2.3 0 4.5.93 6.12 2.55a8.639 8.639 0 0 1 2.52 6.13c-.03 4.83-3.91 8.7-8.71 8.66Zm12.47 4.24c-.82-.78-1.61-1.59-2.46-2.44l.48-.42.12-.13c.29.34.57.7.88 1.02.48.49.98.95 1.43 1.46.11.12.06.38.08.58-.18-.02-.43.03-.54-.07ZM13.31 22.21c-.3.32-.59.51-.87.57-.47.11-.91-.14-1.33-.74-.44-.63-.88-1.27-1.32-1.91-.81-1.17-1.63-2.33-2.43-3.5-.21-.31-.29-.65-.26-.95.05-.51.42-.92 1.01-.99.52-.06.9.2 1.19.62l2.78 4.01c.09.13.19.26.32.45l5.15-5.41c1.16-1.23 2.33-2.46 3.51-3.67.14-.15.32-.27.5-.37.1-.05.19-.11.3-.14.12-.04.24-.05.36-.04.35.03.67.25.86.56.06.1.1.21.13.33v.06c.02.11.03.22.02.34-.03.25-.13.49-.31.68-.71.78-1.45 1.54-2.18 2.31l-7.43 7.81Z"/></svg>