<svg xmlns="http://www.w3.org/2000/svg" viewBox="0 0 50 47.9"><path d="M48.55 1.16C46.86-.29 44.56-.38 42.93.87c-1.61 1.23-2.58 3.69-.98 6.19 0 .03-.02.06-.04.08-2.26 2.32-4.54 4.62-6.82 6.92a.54.54 0 0 1-.49.06c-1.23-.48-2.46-.51-3.64.09-3.1 1.57-3.44 5.47-.67 7.6.26.2.32.37.24.68-.65 2.62-1.28 5.24-1.92 7.86-.29 1.19-.59 2.36-.86 3.48-.51.21-.77 0-1.04-.35-1.87-2.44-3.76-4.88-5.64-7.3l-1.62-2.1c1.58-2.33.84-4.82-.78-6.14-1.71-1.39-4.17-1.31-5.84.26-.82.76-1.31 1.82-1.36 2.94-.08 1.34.42 2.47 1.32 3.44l-.13.29c-1.9 3.72-3.79 7.45-5.68 11.18-.12.24-.25.25-.5.23-2.2-.19-3.97.61-5.33 2.35-.63.8-.9 1.75-1.15 2.7v1.46l.09.31c.44 2.44 2.41 4.31 4.97 4.73 2.23.37 4.69-.88 5.86-2.98.58-1.04.82-2.23.69-3.41a5.743 5.743 0 0 0-1.42-3.18c-.4-.44-.87-.82-1.34-1.25.47-.91.94-1.86 1.42-2.8 1.38-2.73 2.77-5.45 4.17-8.17.07-.14.28-.35.38-.33 1 .22 2.04.11 2.98-.3l7.2 9.3c-1.36 1.09-1.99 2.43-1.85 4.13.24 2.94 3.69 4.87 6.31 3.51 3.09-1.61 3.42-5.51.65-7.61-.27-.2-.31-.36-.23-.67.68-2.76 1.35-5.53 2.02-8.29.25-1.04.51-2.07.76-3.11 1.07-.03 2.02-.27 2.83-.91 1.85-1.45 2.31-3.66 1.19-5.75-.12-.23-.16-.37.05-.59 2.25-2.28 4.51-4.57 6.75-6.86.05-.04.09-.08.15-.11 2.68 1.1 4.84-.19 5.75-1.78 1.07-1.87.71-4.19-.83-5.52Zm-39 40.9c0 1.99-1.71 3.7-3.71 3.7-.97-.02-1.89-.42-2.57-1.11-.68-.69-1.06-1.62-1.06-2.59s.38-1.9 1.06-2.59 1.6-1.09 2.57-1.11c2 0 3.71 1.7 3.71 3.69Zm8.29-19.36c-.26.38-.62.68-1.05.86-.43.18-.9.22-1.35.13a2.28 2.28 0 0 1-1.19-.64 2.32 2.32 0 0 1-.5-2.55c.18-.43.48-.79.86-1.05s.84-.39 1.3-.39c.62 0 1.21.26 1.64.69.44.44.68 1.03.69 1.64 0 .46-.14.91-.4 1.3ZM29.7 39.23c-.17.42-.47.78-.85 1.04s-.83.39-1.28.39c-.62 0-1.21-.25-1.64-.69s-.68-1.03-.69-1.64c0-.46.14-.9.4-1.28s.62-.67 1.04-.85c.42-.17.89-.22 1.34-.13.45.09.86.31 1.18.64.32.32.54.74.63 1.18s.04.91-.13 1.34ZM35 19.09c-.17.42-.47.79-.85 1.04-.38.26-.83.39-1.28.4-.31 0-.61-.06-.89-.17s-.54-.29-.76-.5a2.31 2.31 0 0 1-.51-.76c-.12-.28-.18-.59-.18-.89 0-.46.14-.9.39-1.28s.62-.68 1.04-.85c.42-.17.89-.22 1.34-.13s.86.31 1.19.63c.32.32.55.73.64 1.18.09.45.05.91-.13 1.34ZM45.57 6.75c-.46 0-.91-.14-1.29-.4s-.67-.62-.85-1.04c-.17-.42-.22-.89-.13-1.34.09-.45.31-.86.64-1.18.33-.32.74-.54 1.19-.63.45-.09.92-.04 1.34.14s.78.47 1.04.86c.25.38.39.83.39 1.29 0 .62-.25 1.21-.69 1.64-.44.43-1.03.68-1.65.68Z"/></svg>