<svg xmlns="http://www.w3.org/2000/svg" viewBox="0 0 50 49.32"><path d="M6.58 37.01V8.83c0-1.84.23-2.07 2.04-2.07h4.7V1.5c0-1.05.43-1.5 1.47-1.5H48.3c.23 0 .46 0 .69.03.26.03.49.15.67.34.18.19.29.43.32.69.01.13.02.27.01.4v37.29c0 4.36-2.91 8.04-7.16 8.95-1.08.23-2.23.15-3.35.25-.32.02-.64.1-.93.24-1.4.76-2.97 1.14-4.57 1.13H7.97c-2.65 0-4.6-1.36-6.17-3.36C.26 44-.38 41.79.24 39.34c.17-.68.59-1.33 1.01-1.9.18-.25.66-.39 1-.4 1.41-.05 2.83-.03 4.33-.03ZM9 9.17v27.84h19.56a1.18 1.18 0 0 1 .94.57c.1.16.16.35.17.54.01.19-.02.38-.1.56-.06.13-.13.27-.2.4-.88 1.88-.79 3.72.36 5.44 1.15 1.71 2.8 2.5 4.84 2.37 3.63-.24 6.31-3.12 6.32-6.77V9.65c0-.16-.02-.32-.03-.48H9Zm32.72 36.3c.1 0 .2-.01.3-.03a6.726 6.726 0 0 0 4.02-2.32 6.799 6.799 0 0 0 1.57-4.38V2.42H15.73v4.33h26.01c1.06 0 1.51.42 1.51 1.4 0 10.69 0 21.38-.01 32.07 0 .83-.12 1.65-.36 2.45-.29.95-.76 1.85-1.16 2.8ZM26.69 39.4h-.53c-7.63 0-15.26 0-22.89-.01-.52 0-.7.2-.78.65-.23 1.33-.03 2.57.7 3.72 1.29 2.03 2.97 3.22 5.53 3.19 6.39-.09 12.78-.03 19.18-.03h.67c-1.93-2.23-2.56-4.68-1.87-7.52Zm2.63-23.13c.2 0 .4.05.57.14.18.09.32.23.43.4.11.17.17.36.19.56.01.2-.02.4-.11.58-.06.13-.14.26-.23.38-2.86 4.24-5.71 8.49-8.57 12.73-.3.44-.65.76-1.21.71-.91-.07-1.39-1.05-.89-1.85.55-.87 1.14-1.71 1.71-2.56l6.99-10.38c.27-.4.59-.71 1.11-.71Zm.78 8.47a3.806 3.806 0 0 1 2.7 1.12c.35.36.64.78.83 1.24.19.46.29.96.29 1.47a3.857 3.857 0 0 1-3.84 3.82c-1 0-1.96-.42-2.67-1.13a3.807 3.807 0 0 1-1.11-2.69c0-.5.09-1 .29-1.47.19-.47.47-.89.83-1.24.35-.36.78-.64 1.24-.83.46-.19.96-.29 1.46-.29Zm.02 2.4c-.38 0-.74.14-1.01.4s-.43.62-.43 1c0 .19.03.38.1.56.07.18.18.34.31.48.13.14.29.25.47.32s.36.11.55.12c.38-.01.73-.17 1-.43.27-.27.42-.63.43-1 0-.38-.15-.74-.42-1.01a1.4 1.4 0 0 0-1-.42Zm-10.38-3.65c-.5 0-1-.1-1.46-.3-.46-.19-.88-.48-1.23-.84s-.63-.78-.82-1.25c-.19-.47-.28-.96-.28-1.47 0-.5.1-1 .3-1.46.19-.46.48-.88.84-1.24.36-.35.78-.63 1.25-.82.46-.19.96-.28 1.46-.27 1 0 1.96.41 2.67 1.13s1.1 1.68 1.09 2.69c0 .5-.1 1-.29 1.47a3.777 3.777 0 0 1-3.53 2.34Zm.04-5.24c-.19 0-.37.03-.54.09a1.408 1.408 0 0 0-.77.75c-.07.17-.11.35-.11.54 0 .19.02.37.09.55.07.18.16.34.29.47.13.14.28.25.45.32.17.08.35.12.54.12.19 0 .38-.02.56-.09.18-.07.34-.17.48-.3.14-.13.25-.29.32-.47a1.51 1.51 0 0 0 .01-1.11c-.07-.17-.17-.33-.3-.47a1.436 1.436 0 0 0-1-.42Z"/></svg>