<svg xmlns="http://www.w3.org/2000/svg" viewBox="0 0 50 45.24"><path d="M39.18 19.3c-.28-.47-.55-.95-.82-1.42 2.21-2.13 2.71-4.21 1.5-6.28-.51-.9-1.32-1.6-2.28-1.97-1.31-.52-2.6-.43-3.88.18-.11-.18-.2-.33-.29-.48-1.29-2.22-2.55-4.45-3.86-6.67C28.47.82 26.32.09 24.41.86c-1.92.77-2.92 2.78-2.45 4.87.05.2.03.41-.05.6-.61 1.22-1.17 2.47-1.89 3.63-2.45 3.99-5.72 7.24-9.37 10.12-.25.2-.46.34-.82.22-.21-.07-.52.02-.73.14-1.8 1.02-3.6 2.04-5.36 3.1S.83 26.15.29 28.14c-.1.37-.19.75-.28 1.12v1.76c.04.14.08.28.1.42.69 4.18 4.77 7.11 8.91 6.33 1-.19 1.96-.61 3-.95.04.05.15.18.26.32 1.81 2.37 3.62 4.73 5.43 7.09.93 1.21 2.4 1.35 3.54.34.44-.38.87-.78 1.3-1.17 1.24-1.14 1.34-2.27.33-3.6l-4.97-6.52c-.11-.14-.2-.29-.37-.52 1.86-.61 3.62-1.27 5.43-1.78 3.99-1.13 8.05-1.68 12.21-1.22.37.03.72.18.99.43 1.15 1.01 2.49 1.32 3.96.87 2.56-.77 3.68-3.65 2.34-6.04-1.07-1.92-2.19-3.8-3.29-5.71Zm-1.1-6.87c.2.29.33.62.4.96a2.601 2.601 0 0 1-.41 2c-.2.29-.45.53-.74.72l-2.62-4.54c1-.69 2.62-.27 3.37.86ZM9.96 35.47c-2.75 1.26-5.98.01-7.37-2.66a5.805 5.805 0 0 1-.45-4.19c.39-1.4 1.29-2.61 2.53-3.37 1.5-.93 3.05-1.78 4.63-2.7 1.93 3.35 3.85 6.67 5.81 10.06-1.75.98-3.39 2.06-5.15 2.86Zm7.78.81 3.54 4.65c.43.56.42.59-.11 1.07l-1.23 1.11c-.26.24-.48.22-.7-.07-1.85-2.41-3.69-4.82-5.53-7.24-.02-.02-.02-.06-.04-.13.1-.06.19-.12.26-.17l2.23-1.29 1.57 2.05Zm-1.22-5.15-5.24-9.07c4.89-3.8 9.13-8.16 11.95-13.85 3.76 6.51 7.48 12.96 11.25 19.49-6.32-.39-12.2 1.07-17.96 3.43Zm24.15-2.75c-.42.59-1.02.9-1.85.9-.81-.02-1.45-.47-1.9-1.25-2.05-3.55-4.09-7.1-6.14-10.64-2.2-3.82-4.4-7.63-6.61-11.44-.34-.59-.49-1.21-.3-1.87a2.063 2.063 0 0 1 1.67-1.52c.83-.16 1.54.11 2.09.75.12.15.23.32.32.49 4.24 7.35 8.48 14.69 12.73 22.04.5.87.57 1.72-.02 2.56ZM50 17.04c-.02.57-.43.91-1.1.93h-4.53c-.65 0-1.07-.37-1.09-.93-.02-.56.41-1 1.08-1.01 1.53-.02 3.06-.02 4.58 0 .66 0 1.09.44 1.07 1.02ZM36.62 4.49c.76-1.33 1.52-2.65 2.29-3.97.27-.46.71-.62 1.17-.47.4.13.66.49.66 1.05-.06.17-.13.34-.21.51-.73 1.29-1.47 2.57-2.22 3.84-.35.59-.88.78-1.38.51-.53-.29-.65-.86-.31-1.47Zm4.46 6.43c-.28-.47-.16-1.04.36-1.35 1.3-.77 2.61-1.53 3.93-2.26.66-.37 1.42.1 1.53.91-.21.26-.36.62-.63.78-1.26.77-2.55 1.5-3.83 2.23-.53.3-1.08.16-1.36-.32Z"/></svg>