<svg xmlns="http://www.w3.org/2000/svg" viewBox="0 0 50 39.16"><path d="M49.47 25.34c-.72-2.19-2.14-4.07-4.03-5.38-.15-.09-.27-.21-.35-.37s-.11-.32-.1-.5V5.41c0-3.32-2.08-5.42-5.37-5.42H5.39C2.09 0 0 2.09 0 5.4v22.34c0 3.31 2.09 5.4 5.39 5.4h24.06c.43 0 .64.13.86.51 1.89 3.33 4.75 5.23 8.56 5.49a10.47 10.47 0 0 0 10.56-7.08c.75-2.18.76-4.54.04-6.73ZM2.01 4.81c.05-.73.36-1.41.88-1.92.51-.51 1.2-.82 1.92-.87h34.75C41.82 2.02 43 3.2 43 5.45V7H2.01c0-.76-.03-1.47 0-2.18Zm40.94 4.26v3.95H2.03V9.07h40.93ZM29.28 31.14H5.41C3.16 31.14 2 29.95 2 27.69V15.11h40.97v3.54c-3.87-1.19-7.43-.59-10.46 2.15-3.04 2.75-4.01 6.24-3.22 10.33Zm18.56-.82c-.33 1.65-1.15 3.17-2.34 4.36s-2.71 2-4.36 2.32c-1.65.32-3.36.15-4.91-.5s-2.88-1.75-3.8-3.16a8.618 8.618 0 0 1-1.42-4.75c.01-2.27.92-4.43 2.52-6.02a8.47 8.47 0 0 1 10.73-1.03c1.39.94 2.48 2.28 3.12 3.84.64 1.56.8 3.28.47 4.93Zm-3.13-4.91c.41.41.42.99-.04 1.46-1.96 1.99-3.93 3.97-5.92 5.94-.09.09-.19.15-.29.2a.93.93 0 0 1-.47.15c-.14 0-.28-.05-.41-.12-.11-.06-.23-.14-.34-.25-.97-.95-1.93-1.91-2.87-2.88-.49-.5-.5-1.08-.06-1.5.22-.21.47-.31.73-.29.26.02.52.15.77.4.32.32.63.64.95.97.39.4.78.81 1.19 1.23l2.17-2.17 1.75-1.75c.46-.46.9-.93 1.37-1.37.24-.22.5-.33.75-.34.25 0 .5.1.7.3Zm-30.72-4.32c0 .61-.45.99-1.19 1.01H6.18c-.73 0-1.18-.4-1.18-1.01s.45-1 1.19-1.01h6.62c.73 0 1.18.4 1.18 1.01Zm0 4.03c0 .61-.45.99-1.19 1.01H6.18c-.73 0-1.18-.4-1.18-1.01s.45-1 1.19-1h6.62c.73 0 1.18.4 1.18 1.01Z"/></svg>