<svg xmlns="http://www.w3.org/2000/svg" viewBox="0 0 49.97 50"><path d="M48.11 36.14 30.87 20.73c-.14-.13-.28-.26-.33-.31 1.42-1.44 2.8-2.85 4.24-4.31.26.29.52.6.82.89.47.45.89.45 1.37 0 .44-.42.88-.85 1.3-1.3 1.38-1.46 1.4-3.56-.02-4.99-3.2-3.23-6.42-6.45-9.65-9.65-1.44-1.43-3.57-1.39-5.03.02-.42.41-.85.83-1.25 1.26-.45.46-.44.92 0 1.37.44.45.9.87 1.33 1.28L10.01 18.64c-.39-.43-.8-.9-1.26-1.35-.46-.45-.91-.44-1.37 0-.43.41-.85.83-1.26 1.25-1.4 1.44-1.47 3.55-.05 4.99 3.23 3.28 6.49 6.53 9.77 9.75 1.36 1.33 3.43 1.3 4.83.01.48-.44.95-.92 1.38-1.36.43-.45.44-.88.01-1.33-.3-.31-.64-.57-.96-.85l4.36-4.31c.07.08.17.22.29.36 3.78 4.24 7.56 8.47 11.35 12.71 1.49 1.66 2.93 3.37 4.48 4.96 2.31 2.38 6.28 1.76 7.83-1.17 1.1-2.09.62-4.49-1.28-6.19ZM24.8 2.29c.8-.74 1.88-.73 2.7.09 1.77 1.77 3.53 3.53 5.29 5.3l3.88 3.89c1.21 1.22 1.21 2.1 0 3.3-.12.13-.26.24-.31.3L23.97 2.98c.34-.28.59-.47.83-.69Zm-5.42 29.83c-.75.63-1.76.59-2.48-.13-3.19-3.18-6.38-6.37-9.56-9.57-.78-.79-.76-1.84 0-2.64.22-.23.45-.46.65-.66L20.2 31.36c-.23.22-.51.49-.81.75Zm.49-3.84-8.46-8.44L24.83 6.41l8.47 8.47-13.43 13.4Zm28.09 13.03c-.29.65-.78 1.2-1.41 1.54-.64.34-1.38.46-2.09.33s-1.36-.5-1.84-1.04c-1.51-1.66-3-3.35-4.49-5.02L27.11 24.77c-.17-.19-.33-.38-.46-.53l2.58-2.59c.42.37.87.77 1.33 1.18 5.47 4.88 10.95 9.75 16.43 14.63.56.49.98 1.06 1.15 1.78.17.69.11 1.43-.17 2.08Zm-18.27 6.97h-1.41v-4.17c0-.8-.31-1.1-1.12-1.1h-1.05c0-.57.01-1.07 0-1.57-.02-.7-.34-1.02-1.04-1.02H5.56c-.7 0-1 .32-1.01 1.04v1.55H3.48c-.77.01-1.07.31-1.07 1.09v4.18H.79c-.4.01-.75.21-.79.6-.02.32.07.64.27.9.15.17.52.21.79.21H29.69c.66 0 1.07-.38 1.05-.89-.02-.51-.41-.83-1.05-.84ZM6.34 42.14h18.05v.81H6.34v-.81Zm20.18 6.09H4.16v-3.47h22.36v3.47Z"/></svg>