<svg xmlns="http://www.w3.org/2000/svg" viewBox="0 0 50 35.82"><path d="M48.65 2.99h-2.92v-.97c-.01-.74-.24-1.01-.95-1.19-3.57-.88-7.16-1.1-10.79-.48-3.3.57-6.25 1.85-8.69 4.19-.1.1-.22.18-.31.26-.04-.02-.08-.05-.12-.08C22.13 1.97 18.72.64 14.95.19a26.35 26.35 0 0 0-9.73.64c-.74.19-.97.46-.99 1.22v.93c-1.03 0-1.97.03-2.91 0-.6-.02-1.04.17-1.32.7v31.43c.45.79.83.87 1.68.51 1.24-.52 2.48-1.07 3.77-1.46 5.95-1.79 11.96-1.97 18.03-.65.74.16 1.46.37 2.26.18a36.01 36.01 0 0 1 15.29-.43c2.52.47 4.96 1.2 7.26 2.33 1.07.52 1.72.15 1.72-1.02V4.32c0-1.02-.31-1.33-1.35-1.33ZM1.96 33.34V4.97h2.3v23.65c0 .18-.01.36 0 .54.05.74.49 1.08 1.24 1.01 1.89-.16 3.79-.36 5.69-.44 2.61-.1 5.21.24 7.71.99.13.04.27.09.39.15a36.21 36.21 0 0 0-17.32 2.46ZM24 30.81c-5.58-3.25-11.63-3.34-17.82-2.71V2.62c4.19-.85 8.34-.96 12.4.49 1.98.68 3.75 1.85 5.17 3.38.14.15.22.34.24.54.02 7.87.03 15.74.03 23.62 0 .05-.01.1-.02.15Zm2-.09c0-.08-.02-.22-.02-.36 0-7.74 0-15.48.01-23.22.01-.26.12-.52.29-.71 2.17-2.3 4.91-3.53 7.97-4.09 3.12-.57 6.22-.4 9.3.24.08.02.15.04.25.07V28.1l-1.74-.15c-4.34-.38-8.62-.19-12.75 1.31-1.12.41-2.19.97-3.3 1.47Zm22.05 2.62c-5.62-2.25-11.38-3.07-17.35-2.43l-.02-.15c1.34-.27 2.67-.62 4.02-.8 3.16-.43 6.33-.27 9.48.16.19.03.39.04.58.05.13 0 .25 0 .37-.05.12-.04.23-.11.33-.19.09-.08.17-.19.23-.3.05-.11.09-.24.09-.37.01-.18.02-.36 0-.54V4.96h2.26v28.39Z"/></svg>