<svg xmlns="http://www.w3.org/2000/svg" viewBox="0 0 50 50"><path d="M48.85 42.19h-5.51V18.97c0-.21 0-.42.03-.63.19-1.51.19-1.52 1.54-2.17.15-.05.31-.04.45.03.42.16.83.37 1.26.53.56.22 1.01.08 1.3-.43.65-1.09 1.28-2.19 1.9-3.29.3-.54.19-.98-.31-1.37a.834.834 0 0 0-.12-.08c-1.1-.47-1.34-1.36-1.17-2.44.03-.15.1-.29.21-.39.35-.29.73-.54 1.09-.82.49-.38.6-.83.3-1.37-.62-1.1-1.26-2.2-1.9-3.3-.29-.49-.74-.62-1.26-.44-.08.03-.15.06-.23.09q-1.4.6-2.7-.2a.558.558 0 0 1-.21-.33c-.08-.47-.12-.94-.18-1.4-.08-.6-.43-.94-1.04-.94h-3.76c-.63 0-.99.35-1.06.97v.1q-.16 1.55-1.54 2.28a.56.56 0 0 1-.44 0c-.41-.16-.8-.35-1.21-.52-.62-.26-1.1-.13-1.39.47-.25.5-.58.61-1.1.61-8.82 0-17.64-.01-26.46-.01C2.47 3.91.76 5.24.06 8.03c0 .03-.04.05-.06.07v2.93c.28.53.73.7 1.33.7 1.97-.03 3.94-.01 5.91-.01h.58v32.89c0 2.93 1.3 4.61 4.13 5.33.03 0 .05.04.07.06h33.79c.29-.08.59-.17.86-.26.96-.32 1.79-.93 2.38-1.74.6-.81.92-1.79.94-2.8.01-.63 0-1.27 0-1.9 0-.73-.38-1.1-1.13-1.1ZM34.22 4.93c.43.18.81.35 1.2.52.44.2.82.14 1.23-.13.59-.39 1.21-.75 1.85-1.07.42-.21.67-.49.72-.95.05-.43.1-.87.16-1.32h2.14l.18 1.4c.05.41.28.65.64.85.67.36 1.33.74 1.97 1.14.35.22.68.29 1.06.13.41-.18.83-.36 1.3-.56l1.08 1.86c-.35.25-.67.51-1.01.74-.44.3-.58.69-.54 1.21.05.68.05 1.36 0 2.03-.04.53.1.92.54 1.21.34.22.65.48 1.01.74l-1.07 1.85c-.41-.18-.8-.33-1.17-.51-.48-.22-.88-.14-1.32.16-.54.38-1.12.71-1.72.99-.47.23-.76.52-.8 1.06-.03.42-.1.83-.15 1.25h-2.14c-.06-.49-.12-.95-.18-1.42-.05-.41-.29-.65-.65-.84-.66-.34-1.3-.72-1.93-1.12-.38-.24-.75-.3-1.15-.12-.4.18-.8.35-1.25.54l-1.07-1.86c.37-.27.71-.54 1.06-.79.17-.11.3-.27.39-.45.09-.18.12-.39.1-.59-.03-.76-.03-1.52 0-2.28.02-.45-.12-.78-.49-1.04-.34-.24-.68-.5-1.07-.79l1.08-1.86ZM7.78 9.75h-5.8c-.14-1.31.03-2.49 1.17-3.31 1.01-.72 2.09-.79 3.17-.19 1.35.76 1.61 2.03 1.46 3.5Zm7.84 33.81v1.32c0 1.84-1.22 3.16-2.92 3.17-1.7 0-2.94-1.32-2.94-3.15V26.5c0-5.63-.01-11.26 0-16.89 0-1.31-.12-2.56-.97-3.71h22.57c-.15.26-.28.48-.39.71-.23.47-.13.88.26 1.23.03.03.07.06.12.09 1.04.49 1.5 1.29 1.27 2.44-.03.18-.11.34-.23.47-.35.3-.73.54-1.09.82-.47.37-.58.81-.28 1.33.63 1.12 1.27 2.23 1.92 3.34.27.46.72.59 1.22.42.08-.02.15-.05.22-.1.95-.73 1.85-.49 2.7.18.12.09.2.23.24.37.07.43.11.87.16 1.3.08.68.43 1.01 1.13 1.01h2.75v22.66h-24.4c-1.06 0-1.35.29-1.35 1.37Zm32.4 1.97a2.895 2.895 0 0 1-2.9 2.52H16.95c-.08 0-.16 0-.33-.02.85-1.17 1.06-2.46.94-3.85h30.46c0 .47.05.91 0 1.35ZM25.53 25.61H13.28a.976.976 0 0 1-.6-.27.943.943 0 0 1-.11-1.22c.13-.19.32-.32.54-.38.19-.05.38-.07.58-.06H37.5c.21 0 .42.02.62.08.2.07.38.21.5.39.12.18.17.4.14.61-.02.22-.12.42-.27.57-.15.15-.35.25-.57.28-.18.01-.36.02-.54.01H25.53Zm-13.12-5.63a.946.946 0 0 1 .3-.68c.09-.09.2-.16.32-.2s.24-.07.37-.06c.93-.01 1.85 0 2.78 0h13.8c.6 0 .99.29 1.08.77.03.13.03.26 0 .39s-.08.25-.15.36c-.07.11-.17.2-.28.27-.11.07-.23.12-.36.14-.14.02-.29.03-.44.02H13.34c-.55-.06-.95-.48-.93-1ZM16.99 38c-.1-.09-.26-.11-.39-.19a.961.961 0 0 1-.46-.53c-.08-.23-.08-.48.02-.7s.27-.4.48-.51.47-.12.7-.04c.17.05.33.13.5.19.41.13.78 0 .9-.35.13-.39 0-.71-.38-.89-.26-.12-.54-.22-.81-.34-.95-.42-1.54-1.13-1.65-2.18-.11-1.05.29-1.89 1.17-2.46.31-.2.25-.45.28-.71.05-.45.27-.77.72-.88.45-.11.95 0 1.03.41.15.7.54 1.04 1.12 1.33.19.1.26.44.32.55-.01.8-.6 1.25-1.21 1.08-.19-.05-.36-.14-.55-.2-.41-.13-.78 0-.89.35-.13.39 0 .71.38.88.28.13.57.24.85.37.94.42 1.5 1.13 1.6 2.16.11 1.03-.29 1.83-1.11 2.45-.17.15-.28.35-.31.57-.08.65-.42 1.06-.98 1.07-.53 0-.89-.38-1-1-.03-.16-.19-.32-.33-.44Zm21.5-9.4c.15.15.24.35.27.56.02.21-.02.42-.13.61-.11.18-.28.32-.48.4-.22.06-.44.1-.67.09H25.58c-.59-.06-.99-.48-.97-1.01.02-.54.43-.93 1.04-.93h11.8c.16 0 .32 0 .49.01.21.03.41.13.55.28Zm.05 4.68c.16.19.24.43.23.68 0 .25-.11.48-.29.65-.18.17-.42.26-.66.26-.78.02-1.57 0-2.34 0h-9.85c-.59 0-1.01-.42-1.01-.97s.4-.93.96-.98c.13-.01.26 0 .39 0h11.46c.16 0 .32 0 .49.02.24.03.47.15.63.34ZM12.41 10.74c0-.59.45-.96 1.16-.97h11.7c.75 0 1.2.37 1.19.98s-.45.97-1.21.97h-11.7c-.7 0-1.15-.39-1.15-.98Zm13.86 4.05c.14.19.21.42.2.66a.927.927 0 0 1-.88.88c-.34.03-.68.01-1.02.01H13.75c-.18 0-.36 0-.53-.02a.942.942 0 0 1-.78-.87c-.02-.21.04-.42.16-.6s.29-.31.49-.38c.19-.05.38-.08.58-.07h11.61c.15 0 .29.01.44.04.23.04.44.17.59.36Zm6.39 23.74c0 .58-.4.97-1.06.98-1.97.02-3.94.02-5.91 0-.67 0-1.1-.43-1.08-1 .02-.57.44-.94 1.13-.94H31.55c.68 0 1.1.38 1.1.97Zm5.36-26.35a3.407 3.407 0 0 0 3.72.73c.62-.26 1.16-.7 1.53-1.26s.57-1.22.57-1.9c0-.91-.36-1.78-1-2.42a3.42 3.42 0 0 0-4.32-.42c-.56.38-1 .91-1.26 1.53s-.32 1.31-.19 1.97c.13.66.46 1.27.94 1.75Zm1.2-3.23c.16-.24.39-.43.66-.53.27-.11.56-.14.85-.08.28.06.54.2.75.41s.34.47.39.75c.05.28.02.58-.09.85s-.3.49-.55.65a1.448 1.448 0 0 1-1.84-.2 1.46 1.46 0 0 1-.17-1.84Z"/></svg>