<svg xmlns="http://www.w3.org/2000/svg" viewBox="0 0 50 49.99"><path d="M49.05 19.82c-2.54-1.93-5.07-3.91-7.61-5.84a.892.892 0 0 1-.3-.34.851.851 0 0 1-.09-.44V2.03C41.05.7 40.34 0 39.02 0H10.98C9.62 0 8.94.69 8.94 2.07v11.1c.01.16-.02.32-.09.47-.07.15-.18.27-.32.36C6 15.92 3.5 17.88.97 19.8c-.69.52-.97 1.14-.97 2v22.43c0 3.51 2.24 5.76 5.74 5.76h38.54c3.43 0 5.7-2.26 5.7-5.68 0-7.51 0-15.03.01-22.54 0-.84-.28-1.45-.95-1.95Zm-7.96-1.62 4.18 3.23-4.18 3.22V18.2ZM12.52 3.59h24.97V26.9c0 .33-.06.57-.35.8-3.91 2.99-7.81 6-11.71 9.01-.31.24-.51.28-.85.02-3.89-3.02-7.8-6.02-11.69-9.03a.989.989 0 0 1-.37-.65c0-7.74-.01-15.47-.01-23.21 0-.06 0-.11.02-.23Zm-3.61 14.6v6.46l-4.19-3.23 4.19-3.23Zm37.5 26.14c0 1.41-.68 2.1-2.08 2.1H5.64c-1.37 0-2.06-.69-2.06-2.05V25l4.03 3.1 16.04 12.35c1 .77 1.71.77 2.72 0L45.9 25.42c.14-.11.29-.21.5-.36.01.24.03.42.03.6v18.69ZM17.87 15.78c.11-2.65 2.25-4.82 4.97-5.06l.38-.03V9.01c.01-1.08.78-1.87 1.8-1.86.99 0 1.75.79 1.77 1.84v1.64c.62.14 1.21.23 1.76.41 1.33.44 2.3 1.34 2.97 2.55.22.4.28.88.16 1.32-.12.44-.41.83-.8 1.06-.82.49-1.91.28-2.39-.56-.48-.84-1.17-1.17-2.12-1.13-.94.04-1.94 0-2.9 0-1.23 0-2.04.72-2.03 1.8 0 1.04.82 1.76 2.01 1.77 1.43.02 2.87-.06 4.28.12 2.51.32 4.4 2.62 4.41 5.19.02 2.59-1.85 4.87-4.37 5.3-.31.05-.62.09-.98.14v1.61c-.01 1.13-.77 1.93-1.8 1.92-1.01 0-1.76-.81-1.77-1.9v-1.54c-.77-.21-1.5-.35-2.18-.62-1.14-.46-1.97-1.31-2.56-2.38-.22-.4-.28-.88-.16-1.32.12-.44.41-.82.8-1.06.82-.49 1.91-.28 2.39.56.48.84 1.17 1.17 2.12 1.13.98-.04 1.97 0 2.96-.01 1.17 0 1.99-.74 1.98-1.8 0-1.03-.81-1.75-1.96-1.77-1.41-.02-2.84.08-4.23-.11-2.77-.38-4.63-2.77-4.51-5.54Z"/></svg>