<svg xmlns="http://www.w3.org/2000/svg" viewBox="0 0 43.85 50"><path d="M43.31 32.02c-1.25-5.64-4.4-10.05-8.92-13.54-.24-.2-.42-.46-.52-.76-.4-1.08-.71-2.19-1.13-3.26-2.05-5.18-5.25-9.58-9.19-13.45-.38-.37-.82-.67-1.23-1h-.78c-.38.31-.8.59-1.15.94-4.87 4.79-8.57 10.31-10.43 16.98-.06.21-.26.4-.44.54C3.64 23.03.23 28.9 0 36.46c-.04 1.31.76 1.97 2.02 1.68 2.5-.57 5.01-1.14 7.51-1.75.49-.12.62.01.75.46.63 2.22 1.5 4.36 2.6 6.39.13.27.34.5.6.65.26.15.56.23.86.22h1c-.23 1.34-.43 2.62-.65 3.9-.22 1.24.39 1.98 1.65 1.98h11.12c1.36 0 1.94-.71 1.71-2.06-.22-1.25-.42-2.5-.64-3.81.27 0 .51-.02.74 0 .88.07 1.46-.32 1.86-1.1 1-1.95 1.82-3.99 2.45-6.09.06-.21.14-.42.21-.64.19.04.34.06.48.1 2.53.59 5.07 1.18 7.61 1.77 1.18.27 2.05-.4 1.96-1.59-.11-1.52-.21-3.06-.54-4.54ZM3 34.91c.5-4.83 2.61-8.73 6-12.17-.4 3.56-.25 7.16.42 10.68l-6.43 1.49ZM22.05 3.5l4.34 5.14-.1.13h-8.68c.21-.68 3.35-4.45 4.44-5.27Zm-4.23 43.55c.15-.93.29-1.84.45-2.74.01-.08.19-.17.29-.17h7.03c.16 1.01.32 1.95.48 2.92h-8.25Zm14.29-18.04c-.3 4.08-1.35 8.07-3.09 11.77-.15.33-.34.43-.7.43-2.14-.02-4.27 0-6.41 0h-6.36c-.34 0-.52-.1-.66-.41-2.46-5.29-3.54-10.85-3.07-16.69.33-4.24 1.58-8.21 3.6-11.95.16-.3.33-.41.67-.41 3.9.01 7.8.01 11.71 0 .36 0 .54.12.71.43a29.956 29.956 0 0 1 3.61 16.83Zm2.44 4.43c.17-1.79.42-3.56.49-5.31.07-1.75-.03-3.5-.06-5.27 3.27 3.32 5.37 7.23 5.87 12.04l-6.3-1.46Zm-8.31-4.84c.39 1.96-.62 3.93-2.49 4.81-.28.13-.38.28-.36.58.02.42.01.85 0 1.27-.02.85-.61 1.47-1.42 1.49-.8.02-1.46-.6-1.49-1.47-.02-.47 0-.94 0-1.47h-1.29c-.99-.01-1.64-.6-1.63-1.47.01-.87.68-1.45 1.66-1.45h2.62c.92-.01 1.55-.61 1.56-1.45.01-.84-.61-1.46-1.52-1.5-2.1-.1-3.81-1.49-4.22-3.45-.43-2.09.55-4.02 2.51-4.99.08-.05.15-.12.2-.19.05-.08.08-.17.1-.26.04-.44 0-.88.02-1.32.02-.91.64-1.54 1.48-1.53.82 0 1.42.64 1.43 1.52v1.41h1.44c.85.02 1.47.61 1.48 1.42 0 .2-.03.39-.1.57-.07.18-.18.35-.31.49-.14.14-.3.25-.48.33-.18.08-.37.11-.57.11-.92.02-1.84 0-2.77 0-.95 0-1.6.59-1.61 1.45-.01.85.62 1.46 1.57 1.5 2.12.09 3.78 1.52 4.2 3.6Z"/></svg>