<svg xmlns="http://www.w3.org/2000/svg" viewBox="0 0 48 48"><path d="M24 0C10.77 0 0 10.77 0 24s10.77 24 24 24 24-10.77 24-24S37.23 0 24 0Zm0 43.64C13.17 43.64 4.36 34.83 4.36 24S13.17 4.36 24 4.36 43.64 13.17 43.64 24 34.83 43.64 24 43.64Zm10.47-13.97c-.16.21-4 5.24-10.47 5.24s-10.31-5.02-10.47-5.24c-.72-.96-.53-2.33.44-3.05.96-.72 2.32-.53 3.05.43.06.07 2.76 3.5 6.99 3.5s6.96-3.47 6.99-3.5a2.18 2.18 0 0 1 3.05-.41c.96.73 1.15 2.08.43 3.04ZM14.19 17.45c0-1.81 1.45-3.27 3.26-3.27h.02c1.81 0 3.27 1.47 3.27 3.27s-1.47 3.27-3.27 3.27-3.28-1.47-3.28-3.27Zm13.09 0c0-1.81 1.45-3.27 3.26-3.27h.02a3.271 3.271 0 0 1 0 6.54 3.28 3.28 0 0 1-3.28-3.27Z"/></svg>