<svg xmlns="http://www.w3.org/2000/svg" viewBox="0 0 48 48"><path d="m1.21 15.04 21.82 10.91c.31.15.64.23.98.23s.67-.08.98-.23l21.82-10.91c.74-.37 1.21-1.13 1.21-1.95s-.47-1.58-1.21-1.95L24.98.23a2.16 2.16 0 0 0-1.95 0L1.21 11.14a2.178 2.178 0 0 0 0 3.9ZM24 4.62l16.94 8.47L24 21.56 7.06 13.09 24 4.62Zm23.77 29.31c.54 1.08.1 2.39-.98 2.93L24.97 47.77c-.31.15-.64.23-.98.23s-.67-.08-.98-.23L1.21 36.86a2.192 2.192 0 0 1-.98-2.93 2.192 2.192 0 0 1 2.93-.98L24 43.37l20.84-10.42c1.08-.54 2.39-.1 2.93.98Zm0-10.91c.54 1.08.1 2.39-.98 2.93L24.97 36.86c-.31.15-.64.23-.98.23s-.67-.08-.98-.23L1.21 25.95a2.192 2.192 0 0 1-.98-2.93 2.192 2.192 0 0 1 2.93-.98L24 32.46l20.84-10.42c1.08-.54 2.39-.1 2.93.98Z"/></svg>