<?xml version="1.0" encoding="UTF-8"?>
<svg xmlns="http://www.w3.org/2000/svg" version="1.1" viewBox="0 0 197 32">
  <defs>
    <style>
      .cls-1 {
        fill: #f8fbfb;
      }
    </style>
  </defs>
  <g>
    <g id="Layer_1">
      <path class="cls-1" d="M196.5,8v3.5h-4.8v12.5h-4.3v-12.5h-4.8v-3.5h13.9ZM176.6,16.4h-.1l-5.7-8.4h-3.7v16h4.3v-8.4h.1l5.8,8.4h3.6V8h-4.3v8.4h0ZM160.3,8l5.3,16h-4.7l-.9-3.1h-5.3l-.9,3.1h-4.7l5.3-16h5.9,0ZM159,17.7l-1.6-5.3h-.1l-1.6,5.3h3.3ZM150,8h-13.9v3.5h4.8v12.5h4.3v-12.5h4.8v-3.5h0ZM130.2,8h-4.3v16h10.8v-3.5h-6.5v-12.5ZM119.5,17.9c0,.5,0,.9-.3,1.3-.2.4-.5.7-.9.9-.4.2-.8.3-1.3.3s-.9-.1-1.3-.3c-.4-.2-.7-.5-.9-.9-.2-.4-.3-.8-.3-1.3v-9.9h-4.5v10.2c0,1.2.3,2.3.9,3.2.6.9,1.4,1.6,2.4,2.1s2.2.7,3.6.7,2.6-.2,3.6-.7,1.8-1.2,2.4-2.1.9-1.9.9-3.2v-10.2h-4.3v9.9h0ZM107.2,16.2c-.4-.4-.9-.8-1.5-1.1s-1.4-.6-2.3-.7l-1.3-.3c-.4-.1-.7-.2-1-.3s-.5-.2-.7-.3-.3-.3-.4-.4v-.5c0-.2,0-.4.2-.6,0-.2.3-.3.6-.4.3-.1.7-.2,1.1-.2.7,0,1.2.1,1.6.4.3.3.5.7.6,1.2h4.2c0-1-.3-2-.8-2.7-.5-.8-1.2-1.4-2.2-1.8-.9-.4-2.1-.6-3.4-.6s-2.4.2-3.4.6-1.7,1-2.3,1.8c-.5.8-.8,1.6-.8,2.7s.4,2.2,1.2,3c.8.7,1.9,1.2,3.4,1.5l1.6.3c.6.1,1.1.3,1.4.4s.6.3.8.5c.2.2.2.4.2.6,0,.3,0,.5-.2.7s-.4.4-.7.5c-.3.1-.7.2-1.2.2s-1-.1-1.4-.3c-.4-.2-.7-.4-.9-.8-.2-.3-.3-.7-.4-1.2h-4.1c0,1.3.3,2.4.9,3.3s1.4,1.5,2.4,1.9,2.2.6,3.6.6,2.5-.2,3.5-.6,1.7-.9,2.2-1.7c.5-.7.8-1.6.8-2.7s0-1.2-.3-1.7c-.2-.4-.5-.9-.9-1.3h0ZM88.9,16.4h0l-5.7-8.4h-3.7v16h4.3v-8.4h0l5.8,8.4h3.6V8h-4.3s0,8.4,0,8.4ZM76.4,11.5c.7,1.2,1,2.7,1,4.5s-.3,3.3-1,4.5-1.6,2.1-2.8,2.8c-1.2.6-2.5.9-3.9.9s-2.8-.3-4-.9-2.1-1.6-2.8-2.8c-.7-1.2-1-2.7-1-4.5s.3-3.3,1-4.5,1.6-2.1,2.8-2.8c1.2-.6,2.5-.9,4-.9s2.8.3,3.9.9c1.2.7,2.1,1.6,2.8,2.8ZM73,16c0-1,0-1.8-.4-2.4-.2-.7-.6-1.2-1.1-1.5s-1.1-.5-1.8-.5-1.3.2-1.8.5-.9.8-1.1,1.5-.4,1.5-.4,2.4,0,1.8.4,2.4c.3.7.6,1.2,1.1,1.5s1.1.5,1.8.5,1.3-.2,1.8-.5.9-.8,1.1-1.5c.2-.6.4-1.4.4-2.4ZM51,12.1c.5-.4,1.1-.5,1.9-.5s.8.1,1.1.2c.3.1.6.3.8.5s.4.5.5.8.2.6.2,1h4.5c0-1-.3-1.9-.7-2.6-.4-.8-.9-1.4-1.5-1.9s-1.4-.9-2.2-1.2-1.8-.4-2.8-.4-2.7.3-3.9.9c-1.2.6-2.1,1.5-2.8,2.8-.7,1.2-1,2.7-1,4.5s.3,3.3,1,4.5,1.6,2.2,2.8,2.8c1.2.6,2.5.9,4,.9s2.2-.2,3.1-.5c.9-.4,1.6-.8,2.2-1.4.6-.6,1.1-1.2,1.4-1.9.3-.7.5-1.4.6-2.1h-4.4c0,.3-.2.7-.3.9,0,.3-.3.5-.6.7-.2.2-.5.3-.8.4s-.7.1-1.1.1c-.7,0-1.3-.2-1.8-.5s-.9-.8-1.1-1.5c-.3-.7-.4-1.5-.4-2.5s0-1.7.4-2.4c0-.7.4-1.3.9-1.6ZM25,0h-11C6.3,0,0,6.3,0,14v14c0,2.2,1.8,4,4,4h11c.5,0,.9,0,1.4-.1.2,0,.3,0,.4-.1.3,0,.6-.1.9-.1s.3-.1.5-.1c.3-.1.5-.1.8-.2.2-.1.4-.1.5-.2.2-.1.5-.2.7-.2.2-.1.4-.2.6-.2l.6-.3c.2-.1.4-.2.5-.3l.6-.3c.2-.1.4-.2.5-.3.2-.1.3-.3.5-.4s.3-.3.5-.4h.1c.3-.4.7-.7,1-1s.3-.3.4-.5l.5-.5c.1-.1.2-.3.3-.4.2-.2.4-.5.5-.7h0c1.4-2.2,2.2-4.6,2.3-7.3V4c0-2.2-1.9-4-4.1-4ZM4,14c0-5.5,4.5-10,10-10h11v6.7c-.1-.1-.3-.1-.4-.2-1.2-.4-2.4-.6-3.8-.6-2,0-3.9.5-5.5,1.4s-2.9,2.3-3.9,4.1c-1,1.8-1.4,3.9-1.4,6.5s.4,4.3,1.2,6h-7.2s0-13.9,0-13.9ZM16.8,27.8c-.4-.5-.8-1-1.1-1.7-.5-1.1-.7-2.5-.7-4.1s.2-3,.7-4.1,1.2-2,2.1-2.6,1.9-.9,3.1-.9,1.3.1,1.9.3,1.1.5,1.5.8c.3.2.5.4.7.7v1.8c0,4.9-3.5,9-8.2,9.8Z"></path>
    </g>
  </g>
</svg>
